<?xml version="1.0" standalone="no"?>
<!DOCTYPE svg PUBLIC "-//W3C//DTD SVG 1.1//EN" "http://www.w3.org/Graphics/SVG/1.1/DTD/svg11.dtd" >
<svg xmlns="http://www.w3.org/2000/svg">
<metadata></metadata>
<defs>
<font id="BellGothicStdLightBold" horiz-adv-x="1024" >
<font-face units-per-em="2048" ascent="1532" descent="-516" />
<missing-glyph horiz-adv-x="563" />
<glyph unicode="&#xfb01;" horiz-adv-x="1138" d="M43 877v122h178q-6 180 18 279q71 275 379 276q162 0 312 -65v-184q-47 26 -78 41t-94.5 33t-124.5 18q-109 0 -168 -70q-30 -36 -43.5 -80.5t-14.5 -103.5t1 -144h583v-999h-184v877h-397v-877h-189v877h-178z" />
<glyph unicode="&#xfb02;" horiz-adv-x="1138" d="M47 877v122h174q-2 57 -2 142q0 182 82 278q111 133 317 133q68 0 138 -18q94 -23 112 -23q54 0 123 41v-1552h-184v877h-395v-877h-191v877h-174zM412 999h395v351q-10 3 -31 9.5t-31 9.5t-27.5 7.5t-30 7t-29.5 4t-33 1.5q-106 0 -159.5 -50t-53.5 -176v-164z" />
<glyph horiz-adv-x="0" />
<glyph horiz-adv-x="2048" />
<glyph unicode=" "  horiz-adv-x="563" />
<glyph unicode="&#x09;" horiz-adv-x="563" />
<glyph unicode="&#xa0;" horiz-adv-x="563" />
<glyph unicode="!" horiz-adv-x="796" d="M258 129q0 60 42 100.5t99 40.5q56 0 99 -41.5t43 -99.5q0 -56 -40 -97.5t-100 -41.5q-66 0 -104.5 41t-38.5 98zM289 1511h213l-2 -125l-39 -878h-131l-39 878z" />
<glyph unicode="&#x22;" horiz-adv-x="681" d="M113 948v555h163v-555h-163zM403 948v555h168v-555h-168z" />
<glyph unicode="#" horiz-adv-x="1228" d="M111 569h223l41 295h-203l-2 131h223l60 439h149l-61 -439h243l60 439h149l-61 -439h184l2 -131h-205l-41 -295h185l2 -131h-205l-61 -438h-148l62 438h-244l-62 -438h-147l61 438h-202zM481 569h244l41 295h-244z" />
<glyph unicode="$" horiz-adv-x="1138" d="M74 186l94 166q55 -47 85 -71t78 -55.5t94 -46t97 -15.5v547q-73 29 -109 44.5t-82 42t-85 58.5q-64 53 -103 128.5t-39 148.5q0 176 121 278q36 31 77 51.5t86 29.5t70 12t66 5v174h111v-174q149 -16 250.5 -64t138.5 -87l-115 -158q-51 54 -103.5 87t-86 44t-84.5 21 v-473q151 -66 206 -97.5t113 -93.5q99 -105 99 -264q0 -173 -107 -285q-114 -122 -311 -129v-274h-111v268q-74 6 -119 13.5t-100.5 26t-109.5 53t-121 89.5zM283 1171q0 -95 68.5 -158.5t170.5 -90.5v434q-101 0 -170 -45t-69 -140zM635 162q104 5 175 71t71 164 q0 58 -25 108.5t-70 82.5q-30 22 -76 45.5t-75 30.5v-502z" />
<glyph unicode="%" horiz-adv-x="2048" d="M115 1128q0 153 108.5 264t284.5 111q86 0 168.5 -44.5t138 -129.5t55.5 -188q0 -159 -110 -271t-266 -112t-267.5 106t-111.5 264zM276 1130q0 -94 62.5 -152t150.5 -58q91 0 153.5 63t62.5 152q0 79 -61.5 143.5t-154.5 64.5q-88 0 -150.5 -59.5t-62.5 -153.5zM465 -41 l981 1575h133l-981 -1575h-133zM1180 369q0 160 113 267t268 107q147 0 259.5 -108.5t112.5 -261.5q0 -157 -108.5 -266t-263.5 -109t-268 106.5t-113 264.5zM1341 377q0 -98 66 -160.5t154 -62.5q91 0 152 66.5t61 152.5q0 90 -64.5 150.5t-148.5 60.5q-92 0 -156 -61 t-64 -146z" />
<glyph unicode="&#x26;" horiz-adv-x="1478" d="M111 416q0 59 14 113.5t34.5 96t53 81.5t59 65.5t64 53t57 39.5t47.5 28q-27 58 -41.5 92.5t-30.5 100t-16 128.5q0 127 86 213q94 97 252 97q120 0 214.5 -78t94.5 -209q0 -43 -12 -82.5t-29.5 -70t-47 -60.5t-54 -50t-62 -42.5t-59.5 -34.5t-57 -29q138 -236 307 -444 q92 120 170 319l197 -67q-38 -81 -82 -153.5t-72.5 -111t-95.5 -124.5q33 -37 50 -54t42.5 -37.5t50 -28t55.5 -7.5q41 0 99 30v-192l-36 -18t-34.5 -11t-52.5 -6q-53 0 -99.5 15t-86.5 45.5t-63.5 53.5t-57.5 62q-64 -52 -95 -75.5t-84 -54t-106 -42.5t-119 -12 q-113 0 -203.5 43t-143 112t-80 147.5t-27.5 158.5zM291 467q0 -44 12 -88.5t37.5 -87t61.5 -75.5t89 -53t115 -20q127 0 252 125q-108 133 -178.5 233t-177.5 279q-36 -25 -56 -40t-54 -47t-52.5 -61t-33.5 -73t-15 -92zM514 1235q0 -45 30 -116t74 -142q61 29 95.5 49.5 t73.5 52.5t57 73t18 93q0 82 -52.5 126t-117.5 44q-91 0 -134.5 -52.5t-43.5 -127.5z" />
<glyph unicode="'" horiz-adv-x="454" d="M143 948v555h168v-555h-168z" />
<glyph unicode="(" horiz-adv-x="796" d="M160 715q0 217 64 400t229 417h192q-59 -63 -125.5 -176t-93.5 -172q-18 -40 -30 -70.5t-30.5 -88.5t-28 -128.5t-9.5 -148.5q0 -99 22 -199t51.5 -175t79 -160.5t82.5 -133.5t84 -117h-190q-176 235 -240 434q-24 67 -40.5 158.5t-16.5 159.5z" />
<glyph unicode=")" horiz-adv-x="796" d="M150 1532h186q49 -72 76 -113.5t67.5 -110.5t63 -125t46 -128.5t34 -150.5t10.5 -163q0 -122 -29.5 -245t-76.5 -221t-82 -156.5t-70 -106.5q-26 -35 -35 -49h-186q49 65 75 107q15 22 59 97t46 77q46 86 75 165.5t40 146.5t13.5 102t2.5 81q0 45 -1.5 75.5t-13 99 t-32.5 131t-64.5 154.5t-105.5 187q-28 46 -98 146z" />
<glyph unicode="*" horiz-adv-x="1138" d="M178 1180l45 172l312 -148l-50 322h172l-45 -322l306 142l43 -166l-334 -37l243 -258l-147 -103l-152 312l-157 -312l-146 103l244 248z" />
<glyph unicode="+" horiz-adv-x="1228" d="M98 434v168h432v434h168v-434h432v-168h-432v-434h-168v434h-432z" />
<glyph unicode="," horiz-adv-x="569" d="M0 -373l246 643h166q-46 -126 -133 -357.5t-107 -285.5h-172z" />
<glyph unicode="-" horiz-adv-x="681" d="M76 442v172h530v-172h-530z" />
<glyph unicode="." horiz-adv-x="569" d="M150 121q0 59 42 99t99 40q62 0 103.5 -41.5t41.5 -99.5q0 -48 -37.5 -90.5t-107.5 -42.5q-59 0 -100 38t-41 97z" />
<glyph unicode="/" horiz-adv-x="569" d="M-45 -45l485 1571h174l-487 -1571h-172z" />
<glyph unicode="0" horiz-adv-x="1138" d="M84 721q0 175 26 314t71.5 232.5t110 155t138.5 88.5t160 27q78 0 157.5 -33t133.5 -90q98 -109 136 -255t38 -369q0 -393 -123 -611q-31 -55 -70.5 -95t-75.5 -61t-79.5 -33t-74 -15t-67.5 -3q-27 0 -55.5 3.5t-71 17t-80.5 35t-79.5 62.5t-73.5 95q-69 119 -95 270.5 t-26 264.5zM285 725q0 -239 61 -403q67 -175 238 -175q270 0 270 639q0 216 -31.5 345t-89.5 182t-151 53q-100 0 -169 -76t-94 -205q-34 -170 -34 -360z" />
<glyph unicode="1" horiz-adv-x="1138" d="M129 1333v170h559v-1337h293v-166h-829v166h327v1167h-350z" />
<glyph unicode="2" horiz-adv-x="1138" d="M76 1200q45 96 94 155t131 107q119 68 258 68q30 0 65.5 -4.5t81 -17t88 -32.5t84.5 -53.5t73 -76.5t50 -105.5t19 -136.5q0 -52 -18 -118.5t-54 -121.5q-40 -61 -101.5 -122.5t-191.5 -159.5l-168 -127q-37 -27 -69.5 -64t-45 -56.5t-18.5 -31.5q-18 -29 -25 -53 t-12 -66h707v-184h-934q3 105 22 190t50 151.5t87 131.5t116 117.5t153 122.5q44 34 62.5 48t58 47t58 53t46.5 53.5t41 60.5t23 62.5t10 70.5q0 41 -13 82t-40 79t-77.5 61.5t-117.5 23.5q-44 0 -86.5 -11t-89 -37.5t-87.5 -79t-70 -126.5z" />
<glyph unicode="3" horiz-adv-x="1138" d="M47 -51v174q39 -2 100 -2t104 2.5t118.5 12.5t148.5 37t137 69q54 35 90.5 75.5t53 79.5t22.5 67.5t6 55.5q0 108 -66.5 161.5t-176.5 53.5q-54 0 -93 -10.5t-139 -48.5l-55 139q163 67 237 107.5t148 111.5q74 59 74 152q0 78 -59 122t-144 44q-45 0 -88 -12t-74 -26.5 t-73.5 -47t-66.5 -54.5t-73 -67l-108 141q33 33 56 54t75 58.5t101 59.5t122 40t151 18q106 0 189 -32.5t135.5 -105t52.5 -176.5q0 -42 -13 -81.5t-31 -69t-47.5 -58.5t-53 -47t-57.5 -38t-51 -28t-42 -20q38 -2 65 -5.5t67.5 -13t77.5 -30.5t69 -53q96 -96 96 -244 q0 -114 -66 -229t-204 -197q-86 -51 -183.5 -82.5t-204.5 -42.5t-168.5 -13t-158.5 -1z" />
<glyph unicode="4" horiz-adv-x="1138" d="M61 418v227l484 858h332v-911h165v-174h-165v-418h-197v418h-619zM213 588h465v807h-19l-446 -793q-3 -7 0 -14z" />
<glyph unicode="5" horiz-adv-x="1138" d="M66 -8l28 192q131 -51 266 -51q46 0 76 2t86.5 18t112.5 46q76 41 130 124t54 191q0 88 -27.5 152t-73.5 97.5t-95.5 48.5t-104.5 15q-57 0 -104 -17.5t-69.5 -35.5t-59.5 -53h-148q0 31 2 47l76 735h719v-184h-572l-36 -371q100 45 202 45q246 0 392 -166 q104 -117 104 -313q0 -51 -9.5 -103t-33 -108t-58.5 -105.5t-89 -94.5t-122 -77.5t-161 -51.5t-201 -19q-71 0 -118 6.5t-166 30.5z" />
<glyph unicode="6" horiz-adv-x="1138" d="M61 498q0 106 11.5 200.5t33.5 171t35 113t35 88.5q45 104 97.5 198t85 141t83.5 116h271q-72 -80 -108.5 -123t-85 -107.5t-87.5 -128.5q-125 -212 -137 -358q25 20 45 33t56 31t82.5 27t101.5 9q115 0 207 -38.5t148.5 -103.5t86 -146t29.5 -170q0 -75 -16 -143.5 t-53.5 -133.5t-94 -113t-144.5 -77t-198 -29q-97 0 -182.5 33t-153.5 97t-108 170.5t-40 242.5zM274 432q0 -145 79.5 -230t203.5 -85q126 0 206.5 81t80.5 230q0 54 -17 107.5t-49.5 101t-89.5 77t-129 29.5q-49 0 -97.5 -18.5t-91.5 -54.5t-69.5 -98t-26.5 -140z" />
<glyph unicode="7" horiz-adv-x="1138" d="M72 1313v190h962q0 -23 -6 -41.5t-18.5 -40.5t-16.5 -32q-30 -61 -69 -150l-152 -362q-54 -128 -141 -412t-125 -465h-240q55 182 77 252t67 198.5t108 286.5q70 176 114.5 278t137.5 298h-698z" />
<glyph unicode="8" horiz-adv-x="1138" d="M78 397q0 103 18 163.5t56 111.5q70 96 200 139v8q-22 6 -48.5 18.5t-62 40t-63.5 63t-47.5 92t-19.5 122.5q0 165 121 273t315 108q102 0 184.5 -23t136 -61t89.5 -89.5t51.5 -105t15.5 -110.5q0 -130 -84 -223q-32 -35 -59 -53t-97 -52v-8q277 -105 277 -410 q0 -92 -32 -170.5t-94 -138t-162 -93.5t-228 -34q-38 0 -85.5 6.5t-119.5 34t-123 72.5q-52 45 -85.5 109.5t-43.5 114.5t-10 95zM285 416q0 -34 8 -70.5t29 -76.5t52 -71.5t81.5 -52t113.5 -20.5q51 0 98.5 16t91.5 51t70.5 99.5t26.5 150.5q0 30 -7 64.5t-27 77.5 t-50.5 77t-84.5 57t-122 23q-62 0 -128.5 -28t-102.5 -90q-49 -81 -49 -207zM307 1130q0 -102 75 -173.5t181 -71.5q116 0 188 75t72 170q0 97 -75 173.5t-185 76.5q-103 0 -179.5 -72.5t-76.5 -177.5z" />
<glyph unicode="9" horiz-adv-x="1138" d="M63 1059q0 68 17 134t55.5 129.5t94.5 111.5t141 77t188 29q113 0 204 -39.5t150 -103.5q75 -79 107.5 -186t32.5 -216q0 -306 -115 -573q-44 -104 -99.5 -202t-86.5 -142t-80 -109h-271q132 146 186 219q50 66 93 138q53 87 93 186t46 172q-34 -27 -60 -43.5 t-89.5 -36.5t-134.5 -20q-94 0 -172.5 27.5t-133 73.5t-92.5 107t-56 128.5t-18 138.5zM270 1065q0 -133 77.5 -224t203.5 -91q49 0 97 16.5t92.5 51t72 97.5t27.5 146q0 141 -80.5 228t-204.5 87q-129 0 -213 -90q-46 -50 -59 -101t-13 -120z" />
<glyph unicode=":" horiz-adv-x="681" d="M182 958q0 62 48.5 100t101.5 38q54 0 96.5 -39t42.5 -96q0 -58 -40.5 -101t-90.5 -43q-79 0 -118.5 44t-39.5 97zM190 123q0 65 45 104t95 39q55 0 98 -42t43 -103q0 -49 -37.5 -92t-103.5 -43q-58 0 -99 38t-41 99z" />
<glyph unicode=";" horiz-adv-x="681" d="M18 -377l248 643h172l-245 -643h-175zM205 963q0 66 44 103.5t97 37.5q60 0 100.5 -41t40.5 -94q0 -57 -39 -101.5t-104 -44.5q-60 0 -99.5 40.5t-39.5 99.5z" />
<glyph unicode="&#x3c;" horiz-adv-x="1228" d="M94 444v148l1041 461v-168l-828 -367l828 -366v-168z" />
<glyph unicode="=" horiz-adv-x="1228" d="M98 221v168h1032v-168h-1032zM98 647v168h1032v-168h-1032z" />
<glyph unicode="&#x3e;" horiz-adv-x="1228" d="M94 -16v168l828 366l-828 367v168l1041 -461v-148z" />
<glyph unicode="?" d="M100 1276q14 31 24.5 50t34.5 53.5t60.5 64t83.5 53.5q27 13 45.5 20t59.5 14t94 7q35 0 75.5 -7t93.5 -28.5t95 -56t71 -96t29 -140.5q0 -36 -7.5 -69.5t-14.5 -53.5t-27.5 -50.5t-28.5 -40.5t-36 -44q-106 -124 -129 -152.5t-33 -49.5q-38 -80 -33 -248h-172 q-6 178 35 286.5t135 215.5q70 80 91.5 118t21.5 99q0 71 -48 119.5t-126 48.5q-41 0 -74.5 -14t-53.5 -32.5t-37 -47.5t-24 -47t-14 -42zM326 121q0 50 26.5 85t57.5 47.5t61 12.5q58 0 100.5 -43t42.5 -100q0 -53 -38.5 -95t-102.5 -42q-62 0 -104.5 39.5t-42.5 95.5z" />
<glyph unicode="@" horiz-adv-x="1638" d="M104 719q0 203 101.5 373.5t273 268t371.5 97.5q181 0 338 -75t251.5 -210t94.5 -299q0 -103 -32 -195.5t-83.5 -157t-114.5 -111.5t-126.5 -70t-118.5 -23q-54 0 -89 31t-38 88h-4q-48 -51 -111 -85t-131 -34q-118 0 -196 88t-78 211q0 95 30.5 186.5t85 165.5 t139 119.5t183.5 45.5q70 0 130.5 -37t98.5 -111l33 107h139l-135 -496q-35 -143 25 -143q64 0 124.5 55t97 140.5t36.5 172.5q0 155 -75.5 272t-199 176.5t-274.5 59.5q-128 0 -240 -48.5t-190 -131.5t-123 -196.5t-45 -241.5q0 -171 81.5 -310.5t222 -218t310.5 -78.5 q133 0 256 56t207 153l82 -82q-93 -115 -237 -185.5t-312 -70.5q-156 0 -296 57.5t-241.5 156t-161 237t-59.5 293.5zM575 653q0 -83 45.5 -135.5t118.5 -52.5q75 0 141.5 57t102 134t35.5 145q0 74 -48 131t-112 57q-79 0 -146.5 -57.5t-102 -134t-34.5 -144.5z" />
<glyph unicode="A" horiz-adv-x="1366" d="M70 0l485 1503h236l507 -1503h-219l-102 313h-594l-94 -313h-219zM436 487h482l-238 766q-4 9 -10 9t-11 -11z" />
<glyph unicode="B" horiz-adv-x="1366" d="M223 0v1503h428q237 0 348 -69q78 -49 111 -124t33 -134q0 -58 -14 -107t-31 -78.5t-46 -56.5t-46 -37.5t-43 -24.5q-40 -24 -84 -28q-33 -3 -33 -25q0 -12 11 -19t42 -16l66 -20q111 -35 187.5 -136t76.5 -231q0 -65 -15.5 -120.5t-41.5 -92.5t-47 -58.5t-44 -37.5 q-44 -31 -99.5 -50.5t-118.5 -27t-100 -9t-91 -1.5h-449zM418 176h291q19 0 31 0.5t38 2.5t44 6.5t44 13t44.5 21t38.5 32t32.5 44t20.5 59t8 75.5q0 119 -64 192t-184 95l-8 1q-8 1 -22 2.5t-34.5 3t-49.5 3t-62 2.5t-77 1t-91 -1v-553zM418 887h215q159 0 223 59 q80 74 80 184q0 39 -9 70.5t-29 53t-40.5 37.5t-53.5 25.5t-57.5 15t-64.5 8t-61 3t-60 0.5h-143v-456z" />
<glyph unicode="C" horiz-adv-x="1251" d="M129 737q0 79 6 152.5t21.5 154t40 148t65 130t92.5 106t125.5 69t161.5 25.5q82 0 165.5 -29t147.5 -94q107 -109 133 -295l-196 -37q-6 57 -23 104.5t-46 87t-75.5 62t-105.5 22.5q-53 0 -96 -18.5t-72 -51t-46 -61t-32 -65.5q-25 -60 -40 -150.5t-18 -139t-3 -71.5 q0 -651 307 -651q42 0 78 13t60.5 34.5t37.5 36.5t23 31q42 72 53 205l205 -37q-6 -95 -42 -184.5t-100 -153.5q-129 -129 -333 -129q-32 0 -66.5 5t-85 24.5t-95 51.5t-91.5 92.5t-80 140t-54.5 201.5t-21.5 271z" />
<glyph unicode="D" horiz-adv-x="1366" d="M213 0v1503h326q184 0 318.5 -52t217.5 -153.5t122.5 -241.5t39.5 -325q0 -256 -107 -444q-20 -35 -40 -62.5t-53.5 -63.5t-78 -62t-102.5 -50t-138.5 -36.5t-176.5 -12.5h-328zM422 190h156q440 0 440 564q0 285 -119 430q-60 72 -147 100.5t-230 28.5h-100v-1123z" />
<glyph unicode="E" horiz-adv-x="1366" d="M246 0v1503h934v-184h-719v-436h530v-191h-526v-502h754v-190h-973z" />
<glyph unicode="F" horiz-adv-x="1251" d="M217 0v1503h926v-190h-711v-455h512v-190h-512v-668h-215z" />
<glyph unicode="G" horiz-adv-x="1366" d="M131 735q0 352 121 553q43 72 99 123t112 75.5t100.5 35t83.5 10.5q93 0 172.5 -30t135 -81.5t92.5 -115.5t53 -136l-195 -41q-11 31 -18.5 51t-29 57t-45.5 59.5t-64.5 40.5t-88.5 18q-21 0 -43 -3.5t-57 -20t-65 -43t-61.5 -78.5t-51.5 -122q-39 -131 -39 -339 q0 -276 80 -443q80 -164 242 -164q51 0 98.5 18t69 35t38.5 35q38 43 57.5 92t23.5 83t7 98h-290v190h489v-723h-74l-47 94q-25 54 -45 54q-11 0 -21 -6.5t-22 -19t-16 -15.5q-26 -22 -44.5 -35.5t-59 -37.5t-91 -37t-106.5 -13q-27 0 -45.5 1t-58 9.5t-71.5 23.5t-73.5 47 t-77.5 77q-66 80 -107 202t-54 223t-13 199z" />
<glyph unicode="H" horiz-adv-x="1478" d="M262 0v1503h209v-631h537v631h209v-1503h-209v692h-537v-692h-209z" />
<glyph unicode="I" horiz-adv-x="796" d="M162 0v133h127v1233h-127v137h473v-137h-133v-1233h133v-133h-473z" />
<glyph unicode="J" d="M12 375l213 82v-26q0 -56 7 -100q9 -54 31 -97.5t63.5 -66t101.5 -22.5q38 0 69 13.5t50.5 33.5t33.5 50.5t21 56.5t11 59t4.5 51t0.5 40v1054h216v-989q0 -96 -10 -173t-38.5 -151.5t-74.5 -124t-122.5 -80t-178.5 -30.5q-150 0 -258 100q-39 36 -65.5 75.5t-41 84 t-20.5 76.5t-13 84z" />
<glyph unicode="K" horiz-adv-x="1366" d="M231 0v1503h205v-1503h-205zM492 803l598 700h235v-30l-586 -662l596 -791v-20h-254z" />
<glyph unicode="L" horiz-adv-x="1251" d="M246 0v1503h207v-1313h694v-190h-901z" />
<glyph unicode="M" horiz-adv-x="1820" d="M258 0v1503h313l320 -1167q6 -19 18 -19q21 0 25 21l311 1165h318v-1503h-170v1356q0 8 -5 13t-10 5q-14 0 -20 -14l-361 -1360h-172l-364 1372q-4 12 -15 12q-6 0 -12 -6t-6 -14v-1364h-170z" />
<glyph unicode="N" horiz-adv-x="1478" d="M238 0v1503h266l436 -966q0 -2 30 -75.5t31 -74.5q56 -151 62 -170q2 0 6 -1t6 -1q8 8 8 31q0 12 -4 73.5t-4 71.5q-4 94 -4 223v889h172v-1503h-262l-438 977q-78 178 -121 319q-1 1 -5 2t-5 2q-13 -11 -13 -22q0 -26 5.5 -152t5.5 -127v-999h-172z" />
<glyph unicode="O" horiz-adv-x="1251" d="M119 727q0 380 123 576q44 72 95.5 119t104 68.5t94 28.5t91.5 7q91 0 167.5 -31t130 -85t89.5 -115t61 -134q58 -171 58 -413q0 -116 -13 -221t-48.5 -212t-90.5 -184.5t-146 -126.5t-208 -49q-107 0 -194 42t-144.5 114t-96.5 171.5t-56 210t-17 234.5zM334 733 q0 -48 2 -93.5t9.5 -106.5t19.5 -113t34.5 -105t51.5 -90t73.5 -60.5t98.5 -23.5q155 0 225 152t70 448q0 605 -287 605q-181 0 -252 -232q-45 -140 -45 -381z" />
<glyph unicode="P" horiz-adv-x="1366" d="M252 0v1503h326q150 0 260.5 -20t199.5 -84q185 -128 185 -355q0 -211 -154 -335q-60 -48 -139.5 -74t-140.5 -31.5t-146 -5.5h-182v-598h-209zM461 778q27 -2 82 -2q70 0 122 3.5t107 13t93 28.5t69.5 48.5t47 74.5t15.5 105q0 45 -11 83t-28 65t-44 48t-52 34.5t-60 23 t-59.5 14.5t-59.5 7t-51 2.5t-42 0.5h-129v-549z" />
<glyph unicode="Q" horiz-adv-x="1251" d="M119 727q0 380 123 576q44 72 95.5 119t104 68.5t94 28.5t91.5 7q91 0 167.5 -31t130 -85t89.5 -115t61 -134q58 -171 58 -413q0 -198 -44 -373.5t-145 -286.5q49 -72 99 -96q46 -23 115 -23h11v-209q-35 1 -55.5 2.5t-57 8t-63 21.5t-59.5 39.5t-62.5 66t-56.5 96.5 q-88 -39 -188 -39q-107 0 -194 42t-144.5 114t-96.5 171.5t-56 210t-17 234.5zM334 733q0 -48 2 -93.5t9.5 -106.5t19.5 -113t34.5 -105t52 -90t74 -60.5t99.5 -23.5q48 0 94 19l-139 219l104 74l141 -199q95 141 95 487q0 605 -289 605q-181 0 -252 -232q-45 -140 -45 -381 z" />
<glyph unicode="R" horiz-adv-x="1366" d="M246 0v1503h463q120 0 213.5 -28t148 -70.5t89.5 -99.5t47 -107.5t12 -101.5q0 -68 -13.5 -124.5t-40.5 -96.5t-55.5 -69.5t-69.5 -51.5t-71.5 -34.5t-71.5 -25.5l393 -694h-246l-356 668h-231v-668h-211zM455 829q43 -1 81 -1q181 0 259 16q30 7 54 14.5t55 25.5t52 41 t35.5 61.5t14.5 86.5q0 130 -86.5 192t-257.5 62h-207v-498z" />
<glyph unicode="S" horiz-adv-x="1251" d="M133 303l180 113q18 -50 44.5 -94t67.5 -86t101.5 -66.5t132.5 -24.5q105 0 185 63.5t80 178.5q0 145 -185 229l-266 121q-75 34 -145 88t-103 113q-45 83 -45 209q0 168 124 277.5t304 109.5q170 0 293 -82.5t193 -237.5l-176 -104q-31 61 -55 98t-60 73.5t-84 53.5 t-111 17q-37 0 -75 -11t-73.5 -33.5t-58 -62.5t-22.5 -92q0 -138 164 -215l299 -135q276 -135 276 -400q0 -214 -147 -340q-43 -37 -89 -60.5t-93 -32.5t-74 -11t-70 -2q-81 0 -177 29.5t-167 89.5q-45 37 -79.5 80.5t-50 71t-38.5 75.5z" />
<glyph unicode="T" horiz-adv-x="1251" d="M82 1313v190h1089v-190h-436v-1313h-215v1313h-438z" />
<glyph unicode="U" horiz-adv-x="1478" d="M262 512v991h209v-1001q0 -55 5.5 -100t23.5 -95t48 -84t82.5 -56t123.5 -22q63 0 128 31t101 98q45 90 45 279v950h189v-1009q0 -267 -134 -404q-81 -83 -173.5 -109t-202.5 -26q-34 0 -72.5 6.5t-89 23.5t-100.5 55t-87 91q-58 85 -77 174t-19 207z" />
<glyph unicode="V" horiz-adv-x="1366" d="M86 1503h219l377 -1190q4 -12 14 -12q11 0 17 12l366 1190h203l-481 -1503h-226z" />
<glyph unicode="W" horiz-adv-x="1933" d="M92 1503h201l160 -655q57 -256 116 -596q2 -8 8.5 -15.5t12.5 -7.5q10 0 14.5 9t9.5 32q21 86 64 334q1 6 57 250l158 649h172l156 -626q61 -247 122 -572q12 -67 20 -74q3 -4 9 -4q7 0 11.5 4.5t7 13.5t3.5 16.5t1.5 19.5t1.5 16q48 268 66 357t57 255l139 594h184 l-375 -1503h-219l-143 563q-15 60 -33 142q-2 8 -11 61t-11 63l-56 289q-2 13 -7.5 45.5t-8.5 48.5q0 4 -3.5 7.5t-6.5 3.5q-4 0 -8.5 -3.5t-4.5 -7.5l-16 -94q-57 -336 -106 -540l-138 -578h-219z" />
<glyph unicode="X" horiz-adv-x="1366" d="M63 0l482 774l-475 729h245l256 -413q89 -159 91 -160q4 -2 12 -2q9 0 35 57q45 90 84 154l217 364h225l-453 -717l521 -786h-254l-234 375q-6 10 -59.5 101t-59.5 102q-19 44 -25 47q-3 2 -7 2q-7 0 -13.5 -8.5t-21.5 -33.5q-3 -5 -4.5 -8t-4.5 -8l-6 -10 q-12 -21 -54 -98t-62 -109l-211 -352h-224z" />
<glyph unicode="Y" horiz-adv-x="1366" d="M70 1501h245l318 -614q1 -3 13 -28t22.5 -47.5t11.5 -23.5l14 -18h15q7 11 33 67t30 64l311 602h215l-495 -911v-592h-221v582z" />
<glyph unicode="Z" horiz-adv-x="1251" d="M117 0v154l594 979q26 43 63 96q4 5 17 21t22 29.5t12 25.5q-8 16 -67 16q-8 0 -91 -4t-118 -4h-408v190h961v-129l-453 -743q-119 -198 -221 -346q-28 -44 -34 -56.5t-9 -33.5l8 -11q13 -8 35 -4q14 2 45 4t35 2q102 4 149 4h480v-190h-1020z" />
<glyph unicode="[" horiz-adv-x="796" d="M119 -14v1521l592 -14v-84l-422 8v-1343l422 6v-82z" />
<glyph unicode="\" horiz-adv-x="569" d="M-45 1526h174l485 -1571h-172z" />
<glyph unicode="]" horiz-adv-x="796" d="M86 -2v82l422 -6v1343l-422 -8v84l592 14v-1521z" />
<glyph unicode="^" horiz-adv-x="1228" d="M80 504l455 930h155l459 -930h-172l-365 753l-360 -753h-172z" />
<glyph unicode="_" d="M0 -154h1024v-102h-1024v102z" />
<glyph unicode="`" horiz-adv-x="569" d="M2 1464h223l183 -288h-138z" />
<glyph unicode="a" d="M49 242q0 185 158 303q157 116 457 119v139q0 20 -1 32.5t-10 37t-25 39t-50 26.5t-82 12q-129 0 -310 -112l-80 137q83 45 128.5 66t118.5 39t155 18q63 0 131.5 -18t114.5 -54q54 -42 76 -101.5t22 -144.5v-540q0 -22 0.5 -34t5.5 -31t14 -29t27.5 -17t44.5 -6v-146 q-79 4 -125 17t-84 55q-45 45 -53 107l-6 4q-7 -5 -35.5 -33t-32.5 -31q-84 -73 -149.5 -94.5t-149.5 -21.5q-111 0 -185.5 78t-74.5 184zM236 279q0 -70 44 -119t115 -49q42 0 82.5 14t78 42.5t57.5 46t51 48.5v293q-87 -1 -162.5 -18t-135.5 -50t-95 -86.5t-35 -121.5z " />
<glyph unicode="b" d="M123 33v1427l180 70v-606q0 -9 8 -17l21 2q48 75 57 86q23 28 42.5 45.5t63.5 36.5t97 19q155 0 250.5 -148.5t95.5 -419.5q0 -38 -3.5 -79.5t-13 -97t-25.5 -106t-43 -101t-62 -87t-87 -59.5t-114 -23q-46 0 -87 17t-67 38.5t-51 55.5t-35.5 53.5t-23.5 46.5 q-8 17 -13 23t-12 6q-3 0 -7.5 -5.5t-4.5 -8.5l-4 -238zM299 526q0 -104 30 -194t88.5 -147.5t133.5 -57.5q42 0 75 19.5t54 47t36 70t22 76.5t11 78.5t4.5 64.5t0.5 45q0 35 -1.5 66.5t-6.5 75.5t-13.5 80.5t-24.5 74.5t-37.5 64t-54.5 42.5t-73 16.5q-25 0 -53.5 -10 t-63.5 -39.5t-62.5 -74t-46 -122.5t-18.5 -176z" />
<glyph unicode="c" horiz-adv-x="909" d="M72 518q0 57 2 91.5t10.5 97.5t33 121.5t62.5 111.5q44 60 101 96.5t100.5 47t87.5 10.5q23 0 51 -4t69.5 -15.5t83 -39t70.5 -66.5q42 -55 70 -117l-156 -78q-8 22 -13.5 36.5t-21.5 42.5t-33.5 45.5t-48 31.5t-65.5 14q-97 0 -160 -96t-63 -258q0 -191 33 -281 q27 -72 77.5 -123t129.5 -51t124 57.5t58 147.5l164 -74q-26 -133 -118.5 -211t-227.5 -78q-84 0 -152 27.5t-110.5 68.5t-74.5 99t-47 107.5t-24 106t-10.5 83.5t-1.5 49z" />
<glyph unicode="d" d="M76 559q0 59 8 119t24.5 122t44.5 115t64.5 95t89 66t113.5 24q62 0 110 -24t70 -48t62 -77q4 -4 6 -7l4 -6q0 -1 5 -10t10 -15t9 -6q6 0 10.5 7t4.5 16v534l180 68v-1493l-158 -68l-8 236q0 14 -12 14q-2 0 -3.5 -0.5t-3 -2t-3 -3.5l-3 -4t-3 -5l-3 -6t-3 -7t-3.5 -7 q-10 -22 -61 -89.5t-90 -88.5q-54 -28 -113 -28q-110 0 -189.5 73.5t-119 203t-39.5 302.5zM260 516q0 -31 2 -61.5t8 -78.5t20.5 -87.5t36.5 -76.5t58.5 -58t83.5 -21q59 0 108 38t78.5 99t45.5 131t16 140q0 176 -70.5 293.5t-175.5 117.5q-211 0 -211 -436z" />
<glyph unicode="e" d="M86 506q0 112 18.5 204t47.5 151.5t69.5 105t78.5 69.5t81 38.5t71 18t54 3.5q94 0 170 -38.5t125.5 -104.5t76.5 -153t29 -186l2 -98h-635v-9q0 -390 258 -390q44 0 80.5 8.5t64.5 26t41 27.5t32 28l106 -98q-37 -32 -59 -48.5t-66 -41t-99 -35.5t-124 -11 q-189 0 -305.5 142.5t-116.5 390.5zM281 641h444q0 144 -55 233t-160 89q-65 0 -115.5 -36.5t-77.5 -99.5q-30 -70 -36 -186z" />
<glyph unicode="f" horiz-adv-x="681" d="M84 862v119h149v236q0 50 2.5 78t21.5 73t56 82q76 76 211 76q99 0 158 -29v-156q-68 33 -123 33q-38 0 -65 -12.5t-39.5 -28.5t-19.5 -42.5t-8 -41.5t-1 -39v-225h188v-123h-188v-862h-193v862h-149z" />
<glyph unicode="g" d="M72 647q0 190 99.5 319.5t240.5 129.5q59 0 105.5 -14t78.5 -40t53 -52.5t39 -61.5q2 -3 4.5 -8l3.5 -7t3 -5l3 -4.5t2 -3.5t2 -3l2.5 -2.5t2.5 -2t2.5 -1.5t3.5 -2q18 9 18 26v160h148v-964q0 -39 -9.5 -100t-15.5 -81q-1 -6 -6 -19t-18.5 -37.5t-32 -48t-51 -48.5 t-70.5 -41q-114 -47 -238 -47q-135 0 -252 32v187h76q19 -24 33.5 -37t52 -26t92.5 -13q96 0 170 49q88 61 88 230v155l-8 10q-11 0 -16.5 -5.5t-18.5 -30.5q-9 -16 -25.5 -35t-45.5 -42.5t-74.5 -38.5t-97.5 -15q-98 0 -169.5 53.5t-113.5 138.5q-38 77 -49.5 158.5 t-11.5 187.5zM254 573q0 -22 2.5 -47.5t9 -64t21.5 -72t36.5 -64.5t58.5 -49t83 -18q25 0 53 7t63.5 29.5t63.5 58.5t47 100.5t19 148.5q0 177 -69 266.5t-175 89.5q-213 0 -213 -385z" />
<glyph unicode="h" d="M137 0v1460l185 76v-631q0 -20 16 -20q9 0 51 63q101 150 270 150q110 0 161.5 -68.5t51.5 -191.5v-838h-182v831q0 63 -23 96.5t-79 33.5t-119 -50q-51 -41 -147 -182v-729h-185z" />
<glyph unicode="i" horiz-adv-x="569" d="M166 1270v194h237v-194h-237zM195 0v1071h184v-1071h-184z" />
<glyph unicode="j" horiz-adv-x="569" d="M25 -113q84 -37 112 -37q47 0 67.5 28.5t20.5 72.5v1120h187v-1132q0 -48 -11.5 -89t-38 -80t-79.5 -62t-127 -23q-53 0 -131 14v188zM205 1266v194h227v-194h-227z" />
<glyph unicode="k" d="M137 0v1460l152 66h28v-1526h-180zM352 543l385 528h209l-389 -516l408 -537v-18h-215z" />
<glyph unicode="l" horiz-adv-x="569" d="M193 0v1460l157 66h27v-1526h-184z" />
<glyph unicode="m" horiz-adv-x="1593" d="M154 0v1038l161 62v-252l13 -14q14 4 28 20q72 89 96 115t62 57q88 68 174 68q48 0 83.5 -16t55.5 -37.5t33.5 -57t18 -62t8.5 -63.5l6 -4q1 0 3 1t3 1q7 4 19.5 19t13.5 16q113 119 183 162t149 43q97 0 149 -74q23 -33 31 -78t8 -164v-780h-176v762q0 36 -1 55t-6.5 49 t-16 45.5t-32.5 28t-53 12.5q-55 0 -112 -54.5t-164 -188.5v-709h-176v795q0 52 -8 85.5t-24 47.5t-30 18t-35 4q-31 0 -62.5 -17t-84.5 -67q-25 -24 -48 -51.5t-93 -122.5v-692h-176z" />
<glyph unicode="n" d="M145 0v1030l168 68v-209q0 -7 5 -14t12 -7q11 0 35 29l41 55q101 138 258 138q81 0 139 -41q38 -25 58 -75t20 -157v-817h-181v813q0 141 -106 141q-89 0 -184 -114q-80 -107 -80 -115v-725h-185z" />
<glyph unicode="o" d="M88 555q0 136 33 241.5t90.5 170.5t130.5 98t158 33q244 0 356 -211q35 -68 57.5 -171.5t22.5 -185.5q0 -245 -116.5 -399t-311.5 -154q-53 0 -99.5 11.5t-76 25.5t-58.5 38t-41 37.5t-30 35.5q-115 144 -115 430zM268 522q0 -25 3.5 -57.5t12 -78.5t26 -88t42.5 -79 t66 -59.5t92 -22.5q70 0 118.5 40t71.5 106t32 128t9 130q0 79 -10.5 145t-34.5 127t-72 96t-116 35q-58 0 -102.5 -28.5t-70 -71.5t-41.5 -102.5t-21 -111.5t-5 -108z" />
<glyph unicode="p" d="M125 -358v1407l162 71v-229q0 -11 5 -18t9 -7q8 0 14 6q4 3 15.5 29.5t31 60t48 67t76 56.5t106.5 23q74 0 134 -34.5t99 -90.5t65.5 -130t38 -149t11.5 -151q0 -271 -98.5 -419t-247.5 -148q-59 0 -125 35t-109 102q-33 51 -45 51q-10 0 -10 -29v-503h-180zM299 551 q0 -92 16 -164.5t41 -117.5t59.5 -74t68.5 -40.5t71 -11.5q29 0 55.5 10.5t53.5 39.5t46 74.5t31.5 121t12.5 172.5q0 35 -2.5 69t-9 83t-21 88.5t-36.5 76.5t-58 57.5t-82 20.5q-75 0 -133 -64.5t-85.5 -155t-27.5 -185.5z" />
<glyph unicode="q" d="M72 528q0 147 28.5 261.5t77.5 182.5t108 102t126 34q49 0 90.5 -15t68 -34.5t51 -52.5t35.5 -55t27 -56q7 -17 11.5 -21.5t13.5 -7.5l12 6q0 3 1 9.5t1 9.5v229l164 -71v-1407h-180v503q0 29 -13 29q-9 0 -12.5 -2.5t-9.5 -13.5q-109 -172 -254 -172q-69 0 -130.5 34.5 t-110 100t-77 171t-28.5 236.5zM254 557q0 -88 8 -150t33 -124q10 -23 13.5 -30t15.5 -29.5t23 -32.5t29 -24t40.5 -20t50.5 -6q52 0 95 25t70 65.5t45.5 93.5t26 106.5t7.5 107.5q0 195 -75 306t-169 111q-55 0 -96 -33.5t-62.5 -79.5t-34.5 -106.5t-16.5 -102t-3.5 -77.5z " />
<glyph unicode="r" horiz-adv-x="796" d="M141 0v1030l172 70v-340q0 -25 11 -25h22q7 8 34 51.5t30 47.5q48 71 99 125.5t91.5 82.5t65.5 41t41 17v-303q-34 6 -68 6q-167 0 -307 -191v-612h-191z" />
<glyph unicode="s" horiz-adv-x="796" d="M59 74l72 139q76 -61 130.5 -85t119.5 -24q84 0 133 49t49 119q0 63 -40 98t-177 103q-149 72 -209.5 143.5t-60.5 176.5q0 135 93 214.5t226 79.5q49 0 81.5 -3.5t89 -23t116.5 -56.5l-53 -146q-52 37 -77.5 53t-70 30.5t-94.5 14.5q-79 0 -119.5 -41.5t-40.5 -99.5 q0 -54 34 -88t95 -65l172 -87q27 -13 44.5 -23t50 -35.5t52.5 -53t36 -72t16 -96.5q0 -142 -99 -233t-253 -91q-72 0 -139.5 19.5t-99.5 37t-77 46.5z" />
<glyph unicode="t" horiz-adv-x="681" d="M25 868v117h153v244l172 166h21v-410h170v-117h-181v-637q0 -96 91 -96q67 0 180 60v-162q-40 -23 -101 -38t-108 -15q-21 0 -45 3t-62 16.5t-67 36.5t-50.5 68t-21.5 105v659h-151z" />
<glyph unicode="u" d="M147 246v825h185v-772q0 -21 0.5 -33t3 -38.5t10 -43.5t18.5 -35.5t31.5 -28t46.5 -9.5t52.5 12.5t46 27.5t51 53t49.5 63t59 83v721h179v-1036l-170 -62v199q0 8 -4 17.5t-9 9.5q-12 0 -18 -6q-12 -13 -41 -53t-45 -58q-99 -107 -230 -107q-95 0 -155 66t-60 205z" />
<glyph unicode="v" horiz-adv-x="909" d="M59 1071h193l162 -696q2 -9 7.5 -40t8.5 -44q1 -3 3.5 -29.5t7.5 -40.5t16 -14h14q6 0 11 8t8 21t4.5 25t3 26t2.5 18q2 14 7 38t7 34l158 694h178l-277 -1071h-221z" />
<glyph unicode="w" horiz-adv-x="1478" d="M80 1071h180l129 -577l51 -289l17 -15q9 6 18 15l55 289l129 577h193l129 -569l53 -297q0 -3 1.5 -5t4.5 -4t4 -3q17 13 19 24l51 291l119 563h166q0 -10 -2 -16l-273 -1055h-190l-109 494l-57 368q-3 13 -18 21q-14 -7 -17 -19l-71 -413l-105 -451h-190z" />
<glyph unicode="x" d="M78 0l325 539l-323 532h219l203 -383q1 -3 8 -6q12 6 14 10l201 379h205l-316 -520l332 -551h-215l-217 408q-4 4 -6 4q-1 -1 -5 -2t-5 -2l-215 -408h-205z" />
<glyph unicode="y" horiz-adv-x="909" d="M37 1071h194l160 -496q20 -61 43 -151q20 -73 29 -80l12 6q33 135 62 232l147 489h180l-338 -1057q-50 -158 -98 -237t-105 -107t-153 -28q-58 0 -121 18v201h37q39 -54 107 -54q66 0 99 52t91 219z" />
<glyph unicode="z" horiz-adv-x="909" d="M94 0v137l340 541q98 155 139 196q19 19 19 31q0 15 -17 15l-108 -5h-352v156h686v-141l-471 -735q-7 -9 -11 -29q9 -10 13.5 -12t17.5 -2q10 0 115 5t127 5h215v-162h-713z" />
<glyph unicode="{" horiz-adv-x="681" d="M96 653v138q67 0 118.5 67t51.5 170v234q0 122 68.5 195t152.5 73h148v-127h-103q-98 0 -98 -176v-232q0 -55 -14 -101t-35 -75t-46.5 -50.5t-46 -31t-36.5 -12.5v-6q23 -5 48.5 -19.5t57 -44t52 -86t20.5 -129.5v-174q0 -176 98 -176h103v-127h-148q-84 0 -152.5 73 t-68.5 195v177q0 108 -51 176.5t-119 68.5z" />
<glyph unicode="|" horiz-adv-x="454" d="M143 -512v2048h168v-2048h-168z" />
<glyph unicode="}" horiz-adv-x="681" d="M47 -37v127h103q98 0 98 176v174q0 73 20.5 129.5t52 86t57 44t48.5 19.5v6q-16 3 -36.5 12.5t-46 31t-46.5 50.5t-35 75t-14 101v232q0 176 -98 176h-103v127h148q84 0 152.5 -73t68.5 -195v-234q0 -103 51.5 -170t118.5 -67v-138q-68 0 -119 -68.5t-51 -176.5v-177 q0 -122 -68.5 -195t-152.5 -73h-148z" />
<glyph unicode="~" horiz-adv-x="1228" d="M121 477q57 88 119.5 136.5t150.5 48.5q113 0 242 -70q44 -23 70.5 -35.5t64 -23.5t70.5 -11q91 0 180 131l90 -106q-57 -88 -119.5 -135.5t-150.5 -44.5q-40 0 -86 12.5t-67 21.5t-77 35q-6 3 -34 16.5t-36.5 17t-32.5 13t-38 13t-35 7t-41 3.5q-97 0 -176 -135z" />
<glyph unicode="&#xa1;" horiz-adv-x="796" d="M258 1022q0 60 42 100.5t99 40.5q56 0 99 -41.5t43 -99.5q0 -56 -40 -97.5t-100 -41.5q-66 0 -104.5 41t-38.5 98zM289 -358l2 125l39 878h131l39 -878l2 -125h-213z" />
<glyph unicode="&#xa2;" horiz-adv-x="1138" d="M174 -258l141 352q-47 50 -78 118t-42.5 135.5t-15 104t-3.5 66.5q0 55 2 91t11 98.5t33.5 121t62.5 111.5q44 60 100.5 96.5t100 47t87.5 10.5q65 0 134 -27l96 238h108l-114 -285q22 -15 51 -51q42 -55 70 -117l-156 -78q-15 46 -33 76l-264 -662q56 -53 131 -53 q79 0 124 57.5t58 147.5l164 -74q-26 -133 -118.5 -211t-227.5 -78q-112 0 -197 50l-114 -285h-111zM356 590q0 -191 33 -281q3 -9 8 -14l254 633q-32 16 -71 16q-98 0 -161 -96t-63 -258z" />
<glyph unicode="&#xa3;" horiz-adv-x="1138" d="M18 678v133h226q-24 133 -29.5 176.5t-5.5 106.5q0 70 16.5 134t51.5 120t85 97t121.5 65t157.5 24q95 0 187 -39t157 -90l-106 -180q-95 149 -256 149q-61 0 -106.5 -22.5t-68 -51.5t-35.5 -68t-15.5 -61t-2.5 -41q0 -41 7 -81.5t49 -237.5h321v-133h-299q0 -10 3 -68 t3 -67q0 -62 -10 -122t-20 -91t-27 -78q59 -34 90.5 -51t96 -39.5t116.5 -22.5q184 0 199 217h125q-1 -49 -4 -80.5t-14 -83.5t-38 -95.5t-69 -78.5q-72 -59 -191 -59q-26 0 -59 6t-84 21.5t-115 51.5t-127 87q-72 -79 -151 -121.5t-131 -40.5v217q99 16 166 103.5t67 222.5 q0 80 -25 172h-256z" />
<glyph unicode="&#xa4;" horiz-adv-x="1228" d="M51 184l201 201q-76 110 -76 252q0 71 21 138.5t55 113.5l-201 201l115 110l196 -201q107 80 252 80q152 0 252 -80l201 201l111 -110l-201 -201q80 -107 80 -252t-80 -252l201 -201l-111 -110l-201 200q-46 -33 -113.5 -54t-138.5 -21q-151 0 -252 75l-196 -200z M344 637q0 -116 77.5 -199.5t192.5 -83.5q118 0 196.5 83.5t78.5 199.5q0 117 -78.5 202t-196.5 85q-115 0 -192.5 -85.5t-77.5 -201.5z" />
<glyph unicode="&#xa5;" horiz-adv-x="1366" d="M248 324v127h334v335l-9 25h-325v127h266l-266 563h235l170 -409q7 -19 17 -51t16.5 -49t11.5 -17q7 0 14.5 18.5t19 54.5t20.5 58l163 397h207l-258 -565h258v-127h-315l-4 -14v-346h319v-127h-319v-324h-221v324h-334z" />
<glyph unicode="&#xa6;" horiz-adv-x="454" d="M143 -358v716h168v-716h-168zM143 666v716h168v-716h-168z" />
<glyph unicode="&#xa7;" horiz-adv-x="1138" d="M125 788q0 49 18.5 90.5t45 66t56.5 42t52.5 24.5t34.5 7q28 0 28 12t-38 29q-41 19 -82 78.5t-41 132.5q0 116 98.5 192t239.5 76q138 0 238 -63.5t143 -147.5l-146 -59q-93 149 -233 149q-64 0 -111 -35.5t-47 -95.5q0 -50 33 -87.5t108 -76.5q35 -19 78 -37l180 -86 q25 -12 42 -21.5t51.5 -35t56 -51.5t39.5 -68.5t18 -89.5q0 -34 -9 -64t-21 -51.5t-34.5 -41t-38.5 -30.5t-44 -23.5t-40 -17t-38 -13.5v-7q5 -6 32.5 -27t30.5 -24q88 -79 88 -192q0 -120 -94 -200.5t-264 -80.5q-50 0 -117 17.5t-121 54.5q-36 25 -65.5 54.5t-41.5 46 t-34 50.5l156 62q14 -27 20.5 -39t29 -41t44.5 -44t61 -28.5t84 -13.5q55 0 93.5 16t56 41.5t24.5 46t7 39.5q0 30 -14 57t-37 45.5t-42.5 30t-40.5 19.5l-192 82q-301 129 -301 331zM270 825q0 -39 29.5 -76.5t65.5 -62.5q30 -20 103.5 -56.5t115.5 -51.5q66 -25 121 -25 q63 0 99 30.5t36 80.5q0 74 -49 120.5t-164 100.5q-68 31 -111.5 46.5t-62 18t-47.5 2.5q-67 0 -101.5 -38.5t-34.5 -88.5z" />
<glyph unicode="&#xa8;" horiz-adv-x="569" d="M27 1200v209h188v-209h-188zM356 1200v209h187v-209h-187z" />
<glyph unicode="&#xa9;" horiz-adv-x="1638" d="M63 719q0 159 61.5 298t165 235t242 151t289.5 55q200 0 372 -93t277 -264t105 -382q0 -160 -61.5 -300.5t-165 -236.5t-241 -151.5t-286.5 -55.5q-203 0 -375.5 93.5t-277.5 265.5t-105 385zM203 719q0 -128 48.5 -244.5t131 -200t197 -133t241.5 -49.5 q169 0 310.5 83.5t223 228t81.5 315.5q0 127 -48 242t-130 198.5t-196 132.5t-241 49t-241.5 -49t-197 -132.5t-131 -198.5t-48.5 -242zM414 721q0 197 116 322.5t312 125.5q144 0 244.5 -80t121.5 -227h-141q-15 78 -76 124t-149 46q-126 0 -196.5 -86t-70.5 -223 q0 -132 75 -224.5t196 -92.5q90 0 150 49t71 129h143q-27 -145 -127 -229.5t-237 -84.5q-193 0 -312.5 128.5t-119.5 322.5z" />
<glyph unicode="&#xaa;" horiz-adv-x="716" d="M33 1004q0 67 34.5 117t92 78.5t123.5 42t139 13.5v74q0 16 -2 26t-10 27t-30.5 26t-57.5 9q-66 0 -201 -57l-51 84q54 27 83.5 39.5t76.5 23.5t100 11q99 0 159 -43q64 -48 64 -148v-326q0 -17 1 -26t6.5 -21t18.5 -17.5t35 -4.5v-88q-44 3 -63 5t-42.5 11t-41.5 27 q-31 31 -35 65l-2 2q-3 -5 -17 -20.5t-18 -18.5q-56 -42 -98 -55.5t-96 -13.5q-72 0 -120 47.5t-48 110.5zM164 1026q0 -41 25 -71.5t57 -30.5q36 0 75 19t54 31.5t47 41.5v166q-115 -2 -186.5 -42t-71.5 -114z" />
<glyph unicode="&#xab;" horiz-adv-x="1138" d="M160 543l264 315h176l-270 -313l252 -320v-8h-172zM530 543l267 315h176l-271 -313l250 -320v-8h-170z" />
<glyph unicode="&#xac;" horiz-adv-x="1228" d="M98 647v168h1032v-592h-167v424h-865z" />
<glyph unicode="&#xad;" horiz-adv-x="681" d="M76 442v172h530v-172h-530z" />
<glyph unicode="&#xae;" horiz-adv-x="1638" d="M63 719q0 159 61.5 298t165 235t242 151t289.5 55q200 0 372 -93t277 -264t105 -382q0 -160 -61.5 -300.5t-165 -236.5t-241 -151.5t-286.5 -55.5q-203 0 -375.5 93.5t-277.5 265.5t-105 385zM203 719q0 -128 48.5 -244.5t131 -200t197 -133t241.5 -49.5 q169 0 310.5 83.5t223 228t81.5 315.5q0 127 -48 242t-130 198.5t-196 132.5t-241 49t-241.5 -49t-197 -132.5t-131 -198.5t-48.5 -242zM526 311v828h324q287 0 287 -209q0 -77 -46 -131.5t-122 -69.5v-8q35 -5 59 -16.5t37.5 -24.5t22.5 -40t12 -45.5t8 -57.5 q3 -16 8.5 -55t9.5 -63t12.5 -55.5t18.5 -52.5h-151q-3 15 -9 44t-10 52.5t-6 43.5q-2 12 -5 40.5t-5 42.5t-8 34t-15 34q-34 70 -106 70h-176v-361h-140zM666 782h176q147 0 147 127q0 58 -33 90.5t-114 32.5h-176v-250z" />
<glyph unicode="&#xaf;" horiz-adv-x="569" d="M-35 1245v119h639v-119h-639z" />
<glyph unicode="&#xb0;" horiz-adv-x="819" d="M104 1155q0 126 89.5 214.5t218.5 88.5q126 0 214.5 -88.5t88.5 -214.5q0 -129 -88.5 -218t-214.5 -89q-129 0 -218.5 89t-89.5 218zM203 1155q0 -90 60.5 -155.5t148.5 -65.5q85 0 144.5 65.5t59.5 155.5q0 88 -59.5 152.5t-144.5 64.5q-88 0 -148.5 -64.5t-60.5 -152.5 z" />
<glyph unicode="&#xb1;" horiz-adv-x="1228" d="M98 -74v168h1032v-168h-1032zM98 565v168h432v352h168v-352h432v-168h-432v-352h-168v352h-432z" />
<glyph unicode="&#xb2;" horiz-adv-x="819" d="M86 1343q29 58 61 93t86 63q74 41 166 41q24 0 51.5 -4t63.5 -14t67.5 -29.5t59 -47t43.5 -71t16 -96.5q0 -77 -47 -143q-53 -73 -194 -172l-105 -74q-52 -37 -88 -90q-12 -20 -20 -66h456v-110h-606q2 81 18.5 141t54.5 111t81 89t117 93q44 31 71.5 52.5t59.5 52 t47.5 60.5t15.5 60q0 56 -37 102t-116 46q-64 0 -123.5 -33.5t-94.5 -114.5z" />
<glyph unicode="&#xb3;" horiz-adv-x="819" d="M55 598v113q25 -2 60 -2q56 0 93.5 2t109.5 19.5t126 51.5q45 27 72.5 61.5t34 55.5t6.5 37q0 64 -43.5 96.5t-110.5 32.5q-24 0 -46.5 -4t-39 -9t-69.5 -22l-37 90q104 39 153 63.5t97 67.5q49 37 49 84q0 46 -37 73.5t-82 27.5q-47 0 -93.5 -19.5t-72.5 -39t-84 -66.5 l-71 92q27 25 49 42t65 42.5t98 39t117 13.5q106 0 175 -48t69 -140q0 -25 -8.5 -49t-19.5 -41t-31.5 -35t-33.5 -28t-37.5 -23t-32 -16.5t-27.5 -12.5q116 -5 180 -62q63 -58 63 -149q0 -68 -43.5 -136.5t-132.5 -117.5q-56 -31 -123.5 -50.5t-125 -25t-117 -8.5t-99.5 0z " />
<glyph unicode="&#xb4;" horiz-adv-x="569" d="M137 1176l182 288h224l-269 -288h-137z" />
<glyph unicode="&#xb5;" horiz-adv-x="1179" d="M160 -393v1464h168v-686q0 -124 66.5 -195t185.5 -71q124 0 200 95t76 224v633h168v-1071h-168v156h-8q-47 -89 -121.5 -135t-167.5 -46q-147 0 -229 107h-6q4 -16 4 -143v-332h-168z" />
<glyph unicode="&#xb6;" horiz-adv-x="1228" d="M59 1094q0 196 130 302.5t350 106.5h532v-1822h-168v1675h-237v-1675h-168v999q-197 0 -318 116.5t-121 297.5z" />
<glyph unicode="&#xb7;" horiz-adv-x="569" d="M143 770q0 59 42.5 98t97.5 39q58 0 100.5 -40t42.5 -99q0 -51 -39.5 -93t-101.5 -42q-59 0 -100.5 38.5t-41.5 98.5z" />
<glyph unicode="&#xb8;" horiz-adv-x="569" d="M31 -416l35 82q5 -2 20.5 -7t19 -6.5t15.5 -5t16.5 -4.5t14 -3.5t15.5 -3t14.5 -1t17.5 -0.5q116 0 116 86q0 41 -33 60.5t-65 19.5q-23 0 -80 -16l-35 39l129 176h99l-94 -127q40 8 63 8q90 0 131 -46.5t41 -106.5q0 -85 -67 -137t-175 -52q-76 0 -198 45z" />
<glyph unicode="&#xb9;" horiz-adv-x="819" d="M115 1413v109h362v-793h191v-106h-539v106h207v684h-221z" />
<glyph unicode="&#xba;" horiz-adv-x="716" d="M84 1194q0 159 76 242.5t192 83.5q130 0 206.5 -90t76.5 -252q0 -150 -77.5 -241t-201.5 -91q-127 0 -199.5 91.5t-72.5 256.5zM209 1176q0 -101 42.5 -160.5t106.5 -59.5q63 0 102.5 56.5t39.5 173.5q0 111 -36 171t-108 60q-66 0 -106.5 -59.5t-40.5 -181.5z" />
<glyph unicode="&#xbb;" horiz-adv-x="1138" d="M166 858h174l266 -315l-252 -326h-170v8l250 320zM537 858h176l266 -315l-252 -326h-170v8l250 320z" />
<glyph unicode="&#xbc;" horiz-adv-x="2048" d="M104 1419v103h363v-799h190v-100h-538v100h213v696h-228zM541 -27l891 1565h131l-889 -1565h-133zM1249 250v137l314 514h215v-547h108v-104h-108v-250h-127v250h-402zM1348 352h301v486h-13l-288 -478q-4 -4 0 -8z" />
<glyph unicode="&#xbd;" horiz-adv-x="2048" d="M88 1419v103h363v-799h190v-100h-539v100h213v696h-227zM524 -27l891 1565h131l-889 -1565h-133zM1343 721q29 57 61.5 92.5t86.5 63.5q74 41 166 41q24 0 51.5 -4t63.5 -14t67.5 -30t59 -47.5t43.5 -71t16 -96.5q0 -77 -47 -143q-52 -71 -195 -172l-104 -74 q-52 -37 -88 -90q-14 -23 -21 -65h457v-111h-606q2 81 18.5 141t54 111t80.5 89.5t117 92.5q44 31 71.5 52.5t59.5 52t48 60.5t16 60q0 56 -37.5 102t-116.5 46q-64 0 -123 -33.5t-94 -114.5z" />
<glyph unicode="&#xbe;" horiz-adv-x="2048" d="M141 598v107q37 -3 66 -3q211 0 330 74q112 67 112 166q0 64 -44 96.5t-116 32.5q-34 0 -59 -6t-90 -29l-37 84q104 39 153 63.5t97 67.5q49 37 49 90q0 47 -38.5 74t-92.5 27q-47 0 -92 -19t-73 -40.5t-79 -65.5l-71 86q27 25 49 42t65 42.5t98 39t117 13.5 q106 0 175 -48t69 -140q0 -25 -8.5 -49t-19.5 -41t-31.5 -35t-33.5 -28t-37.5 -23t-32 -16.5t-27.5 -12.5q116 -5 180 -62q63 -58 63 -149q0 -68 -43.5 -136.5t-132.5 -117.5q-56 -31 -123.5 -50.5t-125 -25t-117 -8.5t-99.5 0zM610 -27l891 1565h131l-889 -1565h-133z M1360 250v137l313 514h215v-547h109v-104h-109v-250h-127v250h-401zM1458 352h301v486h-12l-289 -478q-4 -4 0 -8z" />
<glyph unicode="&#xbf;" d="M158 -23q0 45 8 81t28.5 71t33 51.5t44.5 55.5q106 124 129 152.5t33 49.5q38 80 33 248h172q6 -178 -35 -286.5t-135 -215.5q-70 -80 -91.5 -118t-21.5 -99q0 -71 48 -119.5t126 -48.5q41 0 74.5 14t53.5 32.5t37 47.5t24 47t14 42l191 -70q-14 -31 -24.5 -50 t-34.5 -53.5t-60.5 -64t-83.5 -53.5q-27 -13 -45.5 -20t-59.5 -14t-94 -7q-35 0 -75.5 6.5t-93.5 28.5t-95 56t-71 95.5t-29 140.5zM410 1036q0 39 15 68.5t38.5 45.5t47 24t44.5 8q58 0 100.5 -43.5t42.5 -100.5q0 -53 -38.5 -95t-102.5 -42q-62 0 -104.5 39.5t-42.5 95.5z " />
<glyph unicode="&#xc0;" horiz-adv-x="1366" d="M70 0l485 1503h236l507 -1503h-219l-102 313h-594l-94 -313h-219zM401 1896h224l182 -288h-137zM436 487h482l-238 766q-4 9 -10 9t-11 -11z" />
<glyph unicode="&#xc1;" horiz-adv-x="1366" d="M70 0l485 1503h236l507 -1503h-219l-102 313h-594l-94 -313h-219zM436 487h482l-238 766q-4 9 -10 9t-11 -11zM537 1608l182 288h223l-268 -288h-137z" />
<glyph unicode="&#xc2;" horiz-adv-x="1366" d="M70 0l485 1503h236l507 -1503h-219l-102 313h-594l-94 -313h-219zM385 1608l205 288h188l205 -288h-164l-135 192l-135 -192h-164zM436 487h482l-238 766q-4 9 -10 9t-11 -11z" />
<glyph unicode="&#xc3;" horiz-adv-x="1366" d="M70 0l485 1503h236l507 -1503h-219l-102 313h-594l-94 -313h-219zM336 1626q8 65 31 111t55 68.5t62.5 32t64.5 9.5q64 0 182 -49q43 -18 58 -22t38 -4q89 0 101 92h104q-8 -66 -33.5 -113.5t-59 -69.5t-61.5 -31.5t-53 -9.5q-18 0 -44 6t-47.5 13t-80.5 27 q-93 32 -125 32q-25 0 -43.5 -8.5t-29.5 -26t-15 -28t-10 -29.5h-94zM436 487h482l-238 766q-4 9 -10 9t-11 -11z" />
<glyph unicode="&#xc4;" horiz-adv-x="1366" d="M70 0l485 1503h236l507 -1503h-219l-102 313h-594l-94 -313h-219zM426 1632v209h188v-209h-188zM436 487h482l-238 766q-4 9 -10 9t-11 -11zM756 1632v209h186v-209h-186z" />
<glyph unicode="&#xc5;" horiz-adv-x="1366" d="M70 0l485 1503h236l507 -1503h-219l-102 313h-594l-94 -313h-219zM436 487h482l-238 766q-4 9 -10 9t-11 -11zM504 1796q0 77 53 129.5t131 52.5q75 0 127.5 -53t52.5 -129q0 -77 -52.5 -130.5t-127.5 -53.5q-78 0 -131 53.5t-53 130.5zM592 1796q0 -39 28 -68.5 t68 -29.5q37 0 64.5 30t27.5 68q0 40 -27.5 69t-64.5 29q-41 0 -68.5 -29t-27.5 -69z" />
<glyph unicode="&#xc6;" horiz-adv-x="2048" d="M39 0l713 1503h1126v-184h-688v-442h493v-185h-493v-508h717v-184h-928v422h-518l-193 -422h-229zM539 592h438v760h-90z" />
<glyph unicode="&#xc7;" horiz-adv-x="1251" d="M129 737q0 79 6 152.5t21.5 154t40 148t65 130t92.5 106t125.5 69t161.5 25.5q82 0 165.5 -29t147.5 -94q107 -109 133 -295l-196 -37q-6 56 -18.5 98t-30.5 67.5t-29 36.5t-29 25q-63 49 -143 49q-53 0 -96 -18.5t-72 -51t-46 -61t-32 -65.5q-25 -60 -40 -150.5 t-18 -139t-3 -71.5q0 -651 307 -651q42 0 78 13t60.5 34.5t37.5 36.5t23 31q42 72 53 205l205 -37q-6 -95 -42 -184.5t-100 -153.5q-117 -117 -282 -127l-60 -80q40 8 64 8q90 0 131 -46.5t41 -106.5q0 -85 -67 -137t-175 -52q-76 0 -198 45l34 82q4 -1 16.5 -5.5t16 -5.5 t13.5 -4.5t13.5 -4.5t12 -3t12.5 -3t11.5 -2t12.5 -1.5t12 -1t14 -0.5q116 0 116 86q0 41 -33 60.5t-65 19.5q-23 0 -80 -16l-35 39l97 131q-36 3 -71.5 13t-81.5 34.5t-86 61t-79.5 97.5t-67.5 138.5t-45.5 190.5t-17.5 247z" />
<glyph unicode="&#xc8;" horiz-adv-x="1366" d="M246 0v1503h934v-184h-719v-436h530v-191h-526v-502h754v-190h-973zM401 1896h224l182 -288h-137z" />
<glyph unicode="&#xc9;" horiz-adv-x="1366" d="M246 0v1503h934v-184h-719v-436h530v-191h-526v-502h754v-190h-973zM537 1608l182 288h223l-268 -288h-137z" />
<glyph unicode="&#xca;" horiz-adv-x="1366" d="M246 0v1503h934v-184h-719v-436h530v-191h-526v-502h754v-190h-973zM385 1608l205 288h188l205 -288h-164l-135 192l-135 -192h-164z" />
<glyph unicode="&#xcb;" horiz-adv-x="1366" d="M246 0v1503h934v-184h-719v-436h530v-191h-526v-502h754v-190h-973zM426 1632v209h188v-209h-188zM756 1632v209h186v-209h-186z" />
<glyph unicode="&#xcc;" horiz-adv-x="796" d="M117 1896h223l182 -288h-137zM162 0v133h127v1233h-127v137h473v-137h-133v-1233h133v-133h-473z" />
<glyph unicode="&#xcd;" horiz-adv-x="796" d="M162 0v133h127v1233h-127v137h473v-137h-133v-1233h133v-133h-473zM252 1608l182 288h223l-268 -288h-137z" />
<glyph unicode="&#xce;" horiz-adv-x="796" d="M100 1608l205 288h189l204 -288h-163l-136 192l-135 -192h-164zM162 0v133h127v1233h-127v137h473v-137h-133v-1233h133v-133h-473z" />
<glyph unicode="&#xcf;" horiz-adv-x="796" d="M141 1632v209h189v-209h-189zM162 0v133h127v1233h-127v137h473v-137h-133v-1233h133v-133h-473zM471 1632v209h186v-209h-186z" />
<glyph unicode="&#xd0;" horiz-adv-x="1366" d="M74 692v180h139v631h326q184 0 318.5 -52t217.5 -153.5t122.5 -241.5t39.5 -325q0 -256 -107 -444q-20 -35 -40 -62.5t-53.5 -63.5t-78 -62t-102.5 -50t-138.5 -36.5t-176.5 -12.5h-328v692h-139zM422 190h156q440 0 440 564q0 285 -119 430q-60 72 -147 100.5t-230 28.5 h-100v-441h237v-180h-237v-502z" />
<glyph unicode="&#xd1;" horiz-adv-x="1478" d="M238 0v1503h266l436 -966q0 -2 30 -75.5t31 -74.5q56 -151 62 -170q2 0 6 -1t6 -1q8 8 8 31q0 12 -4 73.5t-4 71.5q-4 94 -4 223v889h172v-1503h-262l-438 977q-78 178 -121 319q-1 1 -5 2t-5 2q-13 -11 -13 -22q0 -26 5.5 -152t5.5 -127v-999h-172zM391 1626 q8 65 31 111t55 68.5t62.5 32t64.5 9.5q64 0 182 -49q42 -18 58 -22t39 -4q88 0 100 92h104q-8 -66 -33.5 -113.5t-58.5 -69.5t-61 -31.5t-53 -9.5q-18 0 -44 6t-47.5 13t-80.5 27q-93 32 -125 32q-25 0 -43.5 -8.5t-29.5 -26t-15.5 -28t-10.5 -29.5h-94z" />
<glyph unicode="&#xd2;" horiz-adv-x="1251" d="M119 727q0 380 123 576q44 72 95.5 119t104 68.5t94 28.5t91.5 7q91 0 167.5 -31t130 -85t89.5 -115t61 -134q58 -171 58 -413q0 -116 -13 -221t-48.5 -212t-90.5 -184.5t-146 -126.5t-208 -49q-107 0 -194 42t-144.5 114t-96.5 171.5t-56 210t-17 234.5zM334 733 q0 -48 2 -93.5t9.5 -106.5t19.5 -113t34.5 -105t51.5 -90t73.5 -60.5t98.5 -23.5q155 0 225 152t70 448q0 605 -287 605q-181 0 -252 -232q-45 -140 -45 -381zM344 1896h223l183 -288h-138z" />
<glyph unicode="&#xd3;" horiz-adv-x="1251" d="M119 727q0 380 123 576q44 72 95.5 119t104 68.5t94 28.5t91.5 7q91 0 167.5 -31t130 -85t89.5 -115t61 -134q58 -171 58 -413q0 -116 -13 -221t-48.5 -212t-90.5 -184.5t-146 -126.5t-208 -49q-107 0 -194 42t-144.5 114t-96.5 171.5t-56 210t-17 234.5zM334 733 q0 -48 2 -93.5t9.5 -106.5t19.5 -113t34.5 -105t51.5 -90t73.5 -60.5t98.5 -23.5q155 0 225 152t70 448q0 605 -287 605q-181 0 -252 -232q-45 -140 -45 -381zM479 1608l183 288h223l-269 -288h-137z" />
<glyph unicode="&#xd4;" horiz-adv-x="1251" d="M119 727q0 380 123 576q44 72 95.5 119t104 68.5t94 28.5t91.5 7q91 0 167.5 -31t130 -85t89.5 -115t61 -134q58 -171 58 -413q0 -116 -13 -221t-48.5 -212t-90.5 -184.5t-146 -126.5t-208 -49q-107 0 -194 42t-144.5 114t-96.5 171.5t-56 210t-17 234.5zM328 1608 l204 288h189l205 -288h-164l-135 192l-135 -192h-164zM334 733q0 -48 2 -93.5t9.5 -106.5t19.5 -113t34.5 -105t51.5 -90t73.5 -60.5t98.5 -23.5q155 0 225 152t70 448q0 605 -287 605q-181 0 -252 -232q-45 -140 -45 -381z" />
<glyph unicode="&#xd5;" horiz-adv-x="1251" d="M119 727q0 380 123 576q44 72 95.5 119t104 68.5t94 28.5t91.5 7q91 0 167.5 -31t130 -85t89.5 -115t61 -134q58 -171 58 -413q0 -116 -13 -221t-48.5 -212t-90.5 -184.5t-146 -126.5t-208 -49q-107 0 -194 42t-144.5 114t-96.5 171.5t-56 210t-17 234.5zM279 1626 q8 65 31 111t55 68.5t62.5 32t64.5 9.5q64 0 182 -49q43 -18 58 -22t38 -4q88 0 100 92h105q-8 -66 -33.5 -113.5t-59 -69.5t-61.5 -31.5t-53 -9.5q-18 0 -44 6t-47.5 13t-80.5 27q-93 32 -125 32q-25 0 -43.5 -8.5t-29.5 -26t-15 -28t-10 -29.5h-94zM334 733q0 -48 2 -93.5 t9.5 -106.5t19.5 -113t34.5 -105t51.5 -90t73.5 -60.5t98.5 -23.5q155 0 225 152t70 448q0 605 -287 605q-181 0 -252 -232q-45 -140 -45 -381z" />
<glyph unicode="&#xd6;" horiz-adv-x="1251" d="M119 727q0 380 123 576q44 72 95.5 119t104 68.5t94 28.5t91.5 7q91 0 167.5 -31t130 -85t89.5 -115t61 -134q58 -171 58 -413q0 -116 -13 -221t-48.5 -212t-90.5 -184.5t-146 -126.5t-208 -49q-107 0 -194 42t-144.5 114t-96.5 171.5t-56 210t-17 234.5zM334 733 q0 -48 2 -93.5t9.5 -106.5t19.5 -113t34.5 -105t51.5 -90t73.5 -60.5t98.5 -23.5q155 0 225 152t70 448q0 605 -287 605q-181 0 -252 -232q-45 -140 -45 -381zM369 1632v209h188v-209h-188zM698 1632v209h187v-209h-187z" />
<glyph unicode="&#xd7;" horiz-adv-x="1228" d="M133 152l367 366l-367 367l115 114l364 -366l369 366l115 -114l-369 -367l369 -366l-115 -115l-369 369l-364 -369z" />
<glyph unicode="&#xd8;" horiz-adv-x="1251" d="M57 -193l191 363q-129 205 -129 557q0 380 123 576q44 72 95.5 119t104 68.5t94 28.5t91.5 7q159 0 276 -99l103 197h161l-163 -313q46 -69 71 -150q58 -171 58 -413q0 -116 -13 -221t-48.5 -212t-90.5 -184.5t-146 -126.5t-208 -49q-165 0 -281 98l-127 -246h-162z M334 733q0 -191 35 -330l442 848q-68 95 -180 95q-181 0 -252 -232q-45 -140 -45 -381zM442 236q72 -95 181 -95q155 0 225 152t70 448q0 208 -35 340z" />
<glyph unicode="&#xd9;" horiz-adv-x="1478" d="M262 512v991h209v-1001q0 -55 5.5 -100t23.5 -95t48 -84t82.5 -56t123.5 -22q63 0 128 31t101 98q45 90 45 279v950h189v-1009q0 -267 -134 -404q-81 -83 -173.5 -109t-202.5 -26q-34 0 -72.5 6.5t-89 23.5t-100.5 55t-87 91q-58 85 -77 174t-19 207zM457 1896h223 l182 -288h-137z" />
<glyph unicode="&#xda;" horiz-adv-x="1478" d="M262 512v991h209v-1001q0 -55 5.5 -100t23.5 -95t48 -84t82.5 -56t123.5 -22q63 0 128 31t101 98q45 90 45 279v950h189v-1009q0 -267 -134 -404q-81 -83 -173.5 -109t-202.5 -26q-34 0 -72.5 6.5t-89 23.5t-100.5 55t-87 91q-58 85 -77 174t-19 207zM592 1608l182 288 h223l-268 -288h-137z" />
<glyph unicode="&#xdb;" horiz-adv-x="1478" d="M262 512v991h209v-1001q0 -55 5.5 -100t23.5 -95t48 -84t82.5 -56t123.5 -22q63 0 128 31t101 98q45 90 45 279v950h189v-1009q0 -267 -134 -404q-81 -83 -173.5 -109t-202.5 -26q-34 0 -72.5 6.5t-89 23.5t-100.5 55t-87 91q-58 85 -77 174t-19 207zM440 1608l205 288 h189l204 -288h-164l-135 192l-135 -192h-164z" />
<glyph unicode="&#xdc;" horiz-adv-x="1478" d="M262 512v991h209v-1001q0 -55 5.5 -100t23.5 -95t48 -84t82.5 -56t123.5 -22q63 0 128 31t101 98q45 90 45 279v950h189v-1009q0 -267 -134 -404q-81 -83 -173.5 -109t-202.5 -26q-34 0 -72.5 6.5t-89 23.5t-100.5 55t-87 91q-58 85 -77 174t-19 207zM481 1632v209h189 v-209h-189zM811 1632v209h186v-209h-186z" />
<glyph unicode="&#xdd;" horiz-adv-x="1366" d="M70 1501h245l318 -614q1 -3 13 -28t22.5 -47.5t11.5 -23.5l14 -18h15q7 11 33 67t30 64l311 602h215l-495 -911v-592h-221v582zM537 1608l182 288h223l-268 -288h-137z" />
<glyph unicode="&#xde;" horiz-adv-x="1366" d="M252 0v1503h209v-256h117q150 0 260.5 -20t199.5 -84q185 -128 185 -355q0 -211 -154 -335q-60 -48 -139.5 -74t-140.5 -31.5t-146 -5.5h-182v-342h-209zM461 522q27 -2 82 -2q70 0 122 3.5t107 13t93 28.5t69.5 48.5t47 74.5t15.5 105q0 45 -11 83t-28 65t-44 48 t-52 34.5t-60 23t-59.5 14.5t-59.5 7t-51 2.5t-42 0.5h-129v-549z" />
<glyph unicode="&#xdf;" horiz-adv-x="1138" d="M180 0l2 1038q0 55 2.5 94t12.5 92t33.5 100t60.5 87q109 113 276 113q71 0 136.5 -22.5t120 -65.5t87.5 -116t33 -165q0 -68 -21.5 -125.5t-49 -91t-64.5 -60.5t-55.5 -36t-34.5 -15v-4q12 -10 45 -20q26 -7 56.5 -22.5t70 -49t70.5 -77.5t53 -113.5t22 -151.5 q0 -187 -92.5 -301.5t-245.5 -114.5q-70 0 -153 27v162q31 -16 52.5 -22.5t59.5 -6.5q46 0 81 17.5t55.5 44t33 64.5t17 73.5t4.5 75.5q0 147 -66 225q-25 31 -55 51t-64 28t-53 10t-51 3v168q28 3 45.5 7t47 16.5t52.5 38.5t39 65q23 54 23 117q0 94 -51.5 163.5 t-145.5 69.5q-204 0 -204 -280v-1090h-185z" />
<glyph unicode="&#xe0;" d="M49 242q0 185 158 303q157 116 457 119v139q0 20 -1 32.5t-10 37t-25 39t-50 26.5t-82 12q-129 0 -310 -112l-80 137q83 45 128.5 66t118.5 39t155 18q63 0 131.5 -18t114.5 -54q54 -42 76 -101.5t22 -144.5v-540q0 -22 0.5 -34t5.5 -31t14 -29t27.5 -17t44.5 -6v-146 q-79 4 -125 17t-84 55q-45 45 -53 107l-6 4q-7 -5 -35.5 -33t-32.5 -31q-84 -73 -149.5 -94.5t-149.5 -21.5q-111 0 -185.5 78t-74.5 184zM229 1464h224l182 -288h-137zM236 279q0 -70 44 -119t115 -49q42 0 82.5 14t78 42.5t57.5 46t51 48.5v293q-87 -1 -162.5 -18 t-135.5 -50t-95 -86.5t-35 -121.5z" />
<glyph unicode="&#xe1;" d="M49 242q0 185 158 303q157 116 457 119v139q0 20 -1 32.5t-10 37t-25 39t-50 26.5t-82 12q-129 0 -310 -112l-80 137q83 45 128.5 66t118.5 39t155 18q63 0 131.5 -18t114.5 -54q54 -42 76 -101.5t22 -144.5v-540q0 -22 0.5 -34t5.5 -31t14 -29t27.5 -17t44.5 -6v-146 q-79 4 -125 17t-84 55q-45 45 -53 107l-6 4q-7 -5 -35.5 -33t-32.5 -31q-84 -73 -149.5 -94.5t-149.5 -21.5q-111 0 -185.5 78t-74.5 184zM236 279q0 -70 44 -119t115 -49q42 0 82.5 14t78 42.5t57.5 46t51 48.5v293q-87 -1 -162.5 -18t-135.5 -50t-95 -86.5t-35 -121.5z M365 1176l182 288h223l-268 -288h-137z" />
<glyph unicode="&#xe2;" d="M49 242q0 185 158 303q157 116 457 119v139q0 20 -1 32.5t-10 37t-25 39t-50 26.5t-82 12q-129 0 -310 -112l-80 137q83 45 128.5 66t118.5 39t155 18q63 0 131.5 -18t114.5 -54q54 -42 76 -101.5t22 -144.5v-540q0 -22 0.5 -34t5.5 -31t14 -29t27.5 -17t44.5 -6v-146 q-79 4 -125 17t-84 55q-45 45 -53 107l-6 4q-7 -5 -35.5 -33t-32.5 -31q-84 -73 -149.5 -94.5t-149.5 -21.5q-111 0 -185.5 78t-74.5 184zM213 1176l205 288h188l205 -288h-164l-135 192l-135 -192h-164zM236 279q0 -70 44 -119t115 -49q42 0 82.5 14t78 42.5t57.5 46 t51 48.5v293q-87 -1 -162.5 -18t-135.5 -50t-95 -86.5t-35 -121.5z" />
<glyph unicode="&#xe3;" d="M49 242q0 185 158 303q157 116 457 119v139q0 20 -1 32.5t-10 37t-25 39t-50 26.5t-82 12q-129 0 -310 -112l-80 137q83 45 128.5 66t118.5 39t155 18q63 0 131.5 -18t114.5 -54q54 -42 76 -101.5t22 -144.5v-540q0 -22 0.5 -34t5.5 -31t14 -29t27.5 -17t44.5 -6v-146 q-79 4 -125 17t-84 55q-45 45 -53 107l-6 4q-7 -5 -35.5 -33t-32.5 -31q-84 -73 -149.5 -94.5t-149.5 -21.5q-111 0 -185.5 78t-74.5 184zM164 1194q8 65 31 111t55 68.5t62.5 32t64.5 9.5q64 0 182 -49q44 -19 59 -23t37 -4q88 0 101 93h104q-8 -66 -33.5 -113.5t-59 -69.5 t-61.5 -31.5t-53 -9.5q-38 0 -172 45q-96 33 -125 33q-25 0 -43.5 -8.5t-29.5 -26t-15 -28t-10 -29.5h-94zM236 279q0 -70 44 -119t115 -49q42 0 82.5 14t78 42.5t57.5 46t51 48.5v293q-87 -1 -162.5 -18t-135.5 -50t-95 -86.5t-35 -121.5z" />
<glyph unicode="&#xe4;" d="M49 242q0 185 158 303q157 116 457 119v139q0 20 -1 32.5t-10 37t-25 39t-50 26.5t-82 12q-129 0 -310 -112l-80 137q83 45 128.5 66t118.5 39t155 18q63 0 131.5 -18t114.5 -54q54 -42 76 -101.5t22 -144.5v-540q0 -22 0.5 -34t5.5 -31t14 -29t27.5 -17t44.5 -6v-146 q-79 4 -125 17t-84 55q-45 45 -53 107l-6 4q-7 -5 -35.5 -33t-32.5 -31q-84 -73 -149.5 -94.5t-149.5 -21.5q-111 0 -185.5 78t-74.5 184zM236 279q0 -70 44 -119t115 -49q42 0 82.5 14t78 42.5t57.5 46t51 48.5v293q-87 -1 -162.5 -18t-135.5 -50t-95 -86.5t-35 -121.5z M254 1200v209h188v-209h-188zM584 1200v209h186v-209h-186z" />
<glyph unicode="&#xe5;" d="M49 242q0 185 158 303q157 116 457 119v139q0 20 -1 32.5t-10 37t-25 39t-50 26.5t-82 12q-129 0 -310 -112l-80 137q83 45 128.5 66t118.5 39t155 18q63 0 131.5 -18t114.5 -54q54 -42 76 -101.5t22 -144.5v-540q0 -22 0.5 -34t5.5 -31t14 -29t27.5 -17t44.5 -6v-146 q-79 4 -125 17t-84 55q-45 45 -53 107l-6 4q-7 -5 -35.5 -33t-32.5 -31q-84 -73 -149.5 -94.5t-149.5 -21.5q-111 0 -185.5 78t-74.5 184zM236 279q0 -70 44 -119t115 -49q42 0 82.5 14t78 42.5t57.5 46t51 48.5v293q-87 -1 -162.5 -18t-135.5 -50t-95 -86.5t-35 -121.5z M332 1364q0 77 53 129.5t131 52.5q75 0 127.5 -53t52.5 -129q0 -77 -52.5 -130.5t-127.5 -53.5q-78 0 -131 53.5t-53 130.5zM420 1364q0 -39 28 -68.5t68 -29.5q37 0 64.5 30t27.5 68q0 40 -27.5 69t-64.5 29q-41 0 -68.5 -29t-27.5 -69z" />
<glyph unicode="&#xe6;" horiz-adv-x="1593" d="M96 258q0 57 18 109t43 86.5t57 63.5t53 43t38 22q146 75 400 82v139q0 19 -1 32t-10.5 37t-26 39t-51.5 27t-84 12q-145 0 -296 -116l-82 141q73 42 114 62.5t106.5 38.5t133.5 18q69 0 147.5 -24t135.5 -64q9 -9 18 -9q4 0 13 6t19 14t11 9q34 24 56 36t66 23t101 11 q145 0 260 -109q43 -42 72.5 -99t42.5 -114t17.5 -92t5.5 -68l2 -98h-635q-3 -113 22.5 -200.5t88 -143t157.5 -55.5q56 0 111 24t94 66l106 -98q-27 -25 -49.5 -41.5t-66.5 -42t-102 -39t-126 -13.5q-64 0 -122 18.5t-96.5 46t-61.5 51t-35 42.5q-13 21 -21 21 q-10 0 -14 -2q-176 -173 -356 -173q-41 0 -96.5 16t-94.5 56q-43 45 -62.5 102t-19.5 107zM285 283q0 -28 8 -56.5t25.5 -55.5t49.5 -43.5t74 -16.5t83 14.5t76.5 41t56.5 45.5t47 46v297q-188 -3 -304 -75.5t-116 -196.5zM844 641h446q-3 55 -7 88.5t-20.5 79.5t-45.5 82 q-60 70 -146 70q-208 0 -227 -320z" />
<glyph unicode="&#xe7;" horiz-adv-x="909" d="M72 518q0 57 2 91.5t10.5 97.5t33 121.5t62.5 111.5q44 60 101 96.5t100.5 47t87.5 10.5q23 0 51 -4t69.5 -15.5t83 -39t70.5 -66.5q42 -55 70 -117l-156 -78q-8 22 -13.5 36.5t-21.5 42.5t-33.5 45.5t-48 31.5t-65.5 14q-97 0 -160 -96t-63 -258q0 -191 33 -281 q27 -72 77.5 -123t129.5 -51t124 57.5t58 147.5l164 -74q-27 -138 -133 -223q-40 -32 -104 -49t-103 -17l-78 -104q40 8 63 8q90 0 131 -46.5t41 -106.5q0 -85 -67 -137t-174 -52q-76 0 -199 45l35 82q5 -2 20.5 -7t19 -6.5t15.5 -5t16.5 -4.5t14 -3.5t15.5 -3t14.5 -1 t17.5 -0.5q47 0 82 19t35 67q0 41 -33.5 60.5t-65.5 19.5q-22 0 -79 -16l-35 39l119 162q-67 12 -121 46t-88 76t-59 96.5t-37.5 99.5t-19.5 95.5t-8 74.5t-1 44z" />
<glyph unicode="&#xe8;" d="M86 506q0 112 18.5 204t47.5 151.5t69.5 105t78.5 69.5t81 38.5t71 18t54 3.5q94 0 170 -38.5t125.5 -104.5t76.5 -153t29 -186l2 -98h-635q-3 -399 258 -399q44 0 80.5 8.5t64.5 26t41 27.5t32 28l106 -98q-37 -32 -59 -48.5t-66 -41t-99 -35.5t-124 -11 q-189 0 -305.5 142.5t-116.5 390.5zM229 1464h224l182 -288h-137zM281 641h444q0 144 -55 233t-160 89q-65 0 -115.5 -36.5t-77.5 -99.5q-30 -70 -36 -186z" />
<glyph unicode="&#xe9;" d="M86 506q0 112 18.5 204t47.5 151.5t69.5 105t78.5 69.5t81 38.5t71 18t54 3.5q94 0 170 -38.5t125.5 -104.5t76.5 -153t29 -186l2 -98h-635q-3 -399 258 -399q44 0 80.5 8.5t64.5 26t41 27.5t32 28l106 -98q-37 -32 -59 -48.5t-66 -41t-99 -35.5t-124 -11 q-189 0 -305.5 142.5t-116.5 390.5zM281 641h444q0 144 -55 233t-160 89q-65 0 -115.5 -36.5t-77.5 -99.5q-30 -70 -36 -186zM365 1176l182 288h223l-268 -288h-137z" />
<glyph unicode="&#xea;" d="M86 506q0 112 18.5 204t47.5 151.5t69.5 105t78.5 69.5t81 38.5t71 18t54 3.5q94 0 170 -38.5t125.5 -104.5t76.5 -153t29 -186l2 -98h-635q-3 -399 258 -399q44 0 80.5 8.5t64.5 26t41 27.5t32 28l106 -98q-37 -32 -59 -48.5t-66 -41t-99 -35.5t-124 -11 q-189 0 -305.5 142.5t-116.5 390.5zM213 1176l205 288h188l205 -288h-164l-135 192l-135 -192h-164zM281 641h444q0 144 -55 233t-160 89q-65 0 -115.5 -36.5t-77.5 -99.5q-30 -70 -36 -186z" />
<glyph unicode="&#xeb;" d="M86 506q0 112 18.5 204t47.5 151.5t69.5 105t78.5 69.5t81 38.5t71 18t54 3.5q94 0 170 -38.5t125.5 -104.5t76.5 -153t29 -186l2 -98h-635q-3 -399 258 -399q44 0 80.5 8.5t64.5 26t41 27.5t32 28l106 -98q-37 -32 -59 -48.5t-66 -41t-99 -35.5t-124 -11 q-189 0 -305.5 142.5t-116.5 390.5zM254 1200v209h188v-209h-188zM281 641h444q0 144 -55 233t-160 89q-65 0 -115.5 -36.5t-77.5 -99.5q-30 -70 -36 -186zM584 1200v209h186v-209h-186z" />
<glyph unicode="&#xec;" horiz-adv-x="569" d="M2 1464h223l183 -288h-138zM193 0v1071h184v-1071h-184z" />
<glyph unicode="&#xed;" horiz-adv-x="569" d="M137 1176l182 288h224l-269 -288h-137zM193 0v1071h184v-1071h-184z" />
<glyph unicode="&#xee;" horiz-adv-x="569" d="M-14 1176l204 288h189l205 -288h-164l-135 192l-135 -192h-164zM193 0v1071h184v-1071h-184z" />
<glyph unicode="&#xef;" horiz-adv-x="569" d="M27 1200v209h188v-209h-188zM193 0v1071h184v-1071h-184zM356 1200v209h187v-209h-187z" />
<glyph unicode="&#xf0;" d="M88 555q0 136 33 241.5t90.5 170.5t130.5 98t158 33q119 0 205 -121q6 -6 12 -6q8 0 8 8q-51 198 -117 313l-239 -86l-41 72l237 86q-37 52 -139 168l125 37q77 -74 141 -158l234 82l41 -72l-226 -80q96 -148 145.5 -364t49.5 -447q0 -29 -3 -64.5t-14 -91t-28.5 -107 t-50.5 -106t-76 -94t-109.5 -65t-146.5 -25.5q-53 0 -99.5 11.5t-76 25.5t-58.5 38t-41 37.5t-30 35.5q-115 141 -115 430zM268 522q0 -25 3.5 -57.5t12 -78.5t26 -88t42.5 -79t66 -59.5t92 -22.5q70 0 118.5 40t71.5 106t32 128t9 130q0 79 -10.5 145t-34.5 127t-72 96 t-116 35q-58 0 -102.5 -28.5t-70 -71.5t-41.5 -102.5t-21 -111.5t-5 -108z" />
<glyph unicode="&#xf1;" d="M145 0v1030l168 68v-209q0 -7 5 -14t12 -7q11 0 35 29l41 55q101 138 258 138q81 0 139 -41q38 -25 58 -75t20 -157v-817h-181v813q0 141 -106 141q-89 0 -184 -114q-80 -107 -80 -115v-725h-185zM164 1194q8 65 31 111t55 68.5t62.5 32t64.5 9.5q64 0 182 -49 q44 -19 59 -23t37 -4q88 0 101 93h104q-8 -66 -33.5 -113.5t-59 -69.5t-61.5 -31.5t-53 -9.5q-38 0 -172 45q-96 33 -125 33q-25 0 -43.5 -8.5t-29.5 -26t-15 -28t-10 -29.5h-94z" />
<glyph unicode="&#xf2;" d="M88 555q0 136 33 241.5t90.5 170.5t130.5 98t158 33q244 0 356 -211q35 -68 57.5 -171.5t22.5 -185.5q0 -245 -116.5 -399t-311.5 -154q-53 0 -99.5 11.5t-76 25.5t-58.5 38t-41 37.5t-30 35.5q-115 144 -115 430zM229 1464h224l182 -288h-137zM268 522q0 -25 3.5 -57.5 t12 -78.5t26 -88t42.5 -79t66 -59.5t92 -22.5q70 0 118.5 40t71.5 106t32 128t9 130q0 79 -10.5 145t-34.5 127t-72 96t-116 35q-58 0 -102.5 -28.5t-70 -71.5t-41.5 -102.5t-21 -111.5t-5 -108z" />
<glyph unicode="&#xf3;" d="M88 555q0 136 33 241.5t90.5 170.5t130.5 98t158 33q244 0 356 -211q35 -68 57.5 -171.5t22.5 -185.5q0 -245 -116.5 -399t-311.5 -154q-53 0 -99.5 11.5t-76 25.5t-58.5 38t-41 37.5t-30 35.5q-115 144 -115 430zM268 522q0 -25 3.5 -57.5t12 -78.5t26 -88t42.5 -79 t66 -59.5t92 -22.5q70 0 118.5 40t71.5 106t32 128t9 130q0 79 -10.5 145t-34.5 127t-72 96t-116 35q-58 0 -102.5 -28.5t-70 -71.5t-41.5 -102.5t-21 -111.5t-5 -108zM365 1176l182 288h223l-268 -288h-137z" />
<glyph unicode="&#xf4;" d="M88 555q0 136 33 241.5t90.5 170.5t130.5 98t158 33q244 0 356 -211q35 -68 57.5 -171.5t22.5 -185.5q0 -245 -116.5 -399t-311.5 -154q-53 0 -99.5 11.5t-76 25.5t-58.5 38t-41 37.5t-30 35.5q-115 144 -115 430zM213 1176l205 288h188l205 -288h-164l-135 192 l-135 -192h-164zM268 522q0 -25 3.5 -57.5t12 -78.5t26 -88t42.5 -79t66 -59.5t92 -22.5q70 0 118.5 40t71.5 106t32 128t9 130q0 79 -10.5 145t-34.5 127t-72 96t-116 35q-58 0 -102.5 -28.5t-70 -71.5t-41.5 -102.5t-21 -111.5t-5 -108z" />
<glyph unicode="&#xf5;" d="M88 555q0 136 33 241.5t90.5 170.5t130.5 98t158 33q244 0 356 -211q35 -68 57.5 -171.5t22.5 -185.5q0 -245 -116.5 -399t-311.5 -154q-53 0 -99.5 11.5t-76 25.5t-58.5 38t-41 37.5t-30 35.5q-115 144 -115 430zM164 1194q8 65 31 111t55 68.5t62.5 32t64.5 9.5 q64 0 182 -49q44 -19 59 -23t37 -4q88 0 101 93h104q-8 -66 -33.5 -113.5t-59 -69.5t-61.5 -31.5t-53 -9.5q-38 0 -172 45q-96 33 -125 33q-25 0 -43.5 -8.5t-29.5 -26t-15 -28t-10 -29.5h-94zM268 522q0 -25 3.5 -57.5t12 -78.5t26 -88t42.5 -79t66 -59.5t92 -22.5 q70 0 118.5 40t71.5 106t32 128t9 130q0 79 -10.5 145t-34.5 127t-72 96t-116 35q-58 0 -102.5 -28.5t-70 -71.5t-41.5 -102.5t-21 -111.5t-5 -108z" />
<glyph unicode="&#xf6;" d="M88 555q0 136 33 241.5t90.5 170.5t130.5 98t158 33q244 0 356 -211q35 -68 57.5 -171.5t22.5 -185.5q0 -245 -116.5 -399t-311.5 -154q-53 0 -99.5 11.5t-76 25.5t-58.5 38t-41 37.5t-30 35.5q-115 144 -115 430zM254 1200v209h188v-209h-188zM268 522q0 -25 3.5 -57.5 t12 -78.5t26 -88t42.5 -79t66 -59.5t92 -22.5q70 0 118.5 40t71.5 106t32 128t9 130q0 79 -10.5 145t-34.5 127t-72 96t-116 35q-58 0 -102.5 -28.5t-70 -71.5t-41.5 -102.5t-21 -111.5t-5 -108zM584 1200v209h186v-209h-186z" />
<glyph unicode="&#xf7;" horiz-adv-x="1228" d="M98 434v168h1032v-168h-1032zM467 94q0 61 44 104.5t103 43.5q60 0 104 -44t44 -104q0 -56 -44 -101.5t-102 -45.5q-60 0 -104.5 43.5t-44.5 103.5zM467 942q0 61 44 104.5t103 43.5q60 0 104 -44t44 -104q0 -56 -44 -101.5t-102 -45.5q-60 0 -104.5 43.5t-44.5 103.5z " />
<glyph unicode="&#xf8;" d="M47 -121l156 246q-115 141 -115 430q0 136 33 241.5t90.5 170.5t130.5 98t158 33q158 0 260 -88l96 151h162l-168 -264q2 -2 3.5 -5.5t2.5 -4.5q36 -67 58 -170.5t22 -186.5q0 -29 -3 -64.5t-14 -91t-28.5 -107t-50.5 -106t-76 -94t-109.5 -65t-146.5 -25.5 q-122 0 -207 56l-98 -154h-156zM268 522q0 -117 43 -225l357 565q-57 82 -160 82q-58 0 -102.5 -28.5t-70 -71.5t-41.5 -102.5t-21 -111.5t-5 -108zM393 178q50 -41 117 -41q70 0 118.5 40t71.5 106t32 128t9 130q0 84 -14 161z" />
<glyph unicode="&#xf9;" d="M147 246v825h185v-772q0 -21 0.5 -33t3 -38.5t10 -43.5t18.5 -35.5t31.5 -28t46.5 -9.5t52.5 12.5t46 27.5t51 53t49.5 63t59 83v721h179v-1036l-170 -62v199q0 8 -4 17.5t-9 9.5q-12 0 -18 -6q-12 -13 -41 -53t-45 -58q-99 -107 -230 -107q-95 0 -155 66t-60 205z M229 1464h224l182 -288h-137z" />
<glyph unicode="&#xfa;" d="M147 246v825h185v-772q0 -21 0.5 -33t3 -38.5t10 -43.5t18.5 -35.5t31.5 -28t46.5 -9.5t52.5 12.5t46 27.5t51 53t49.5 63t59 83v721h179v-1036l-170 -62v199q0 8 -4 17.5t-9 9.5q-12 0 -18 -6q-12 -13 -41 -53t-45 -58q-99 -107 -230 -107q-95 0 -155 66t-60 205z M365 1176l182 288h223l-268 -288h-137z" />
<glyph unicode="&#xfb;" d="M147 246v825h185v-772q0 -21 0.5 -33t3 -38.5t10 -43.5t18.5 -35.5t31.5 -28t46.5 -9.5t52.5 12.5t46 27.5t51 53t49.5 63t59 83v721h179v-1036l-170 -62v199q0 8 -4 17.5t-9 9.5q-12 0 -18 -6q-12 -13 -41 -53t-45 -58q-99 -107 -230 -107q-95 0 -155 66t-60 205z M213 1176l205 288h188l205 -288h-164l-135 192l-135 -192h-164z" />
<glyph unicode="&#xfc;" d="M147 246v825h185v-772q0 -21 0.5 -33t3 -38.5t10 -43.5t18.5 -35.5t31.5 -28t46.5 -9.5t52.5 12.5t46 27.5t51 53t49.5 63t59 83v721h179v-1036l-170 -62v199q0 8 -4 17.5t-9 9.5q-12 0 -18 -6q-12 -13 -41 -53t-45 -58q-99 -107 -230 -107q-95 0 -155 66t-60 205z M254 1200v209h188v-209h-188zM584 1200v209h186v-209h-186z" />
<glyph unicode="&#xfd;" horiz-adv-x="909" d="M37 1071h194l160 -496q20 -61 43 -151q20 -73 29 -80l12 6q33 135 62 232l147 489h180l-338 -1057q-50 -158 -98 -237t-105 -107t-153 -28q-58 0 -121 18v201h37q39 -54 107 -54q66 0 99 52t91 219zM307 1176l182 288h224l-269 -288h-137z" />
<glyph unicode="&#xfe;" d="M125 -358v1816l162 72v-639q0 -11 5 -18t9 -7q8 0 14 6q4 3 15.5 29.5t31 60t48 67t76 56.5t106.5 23q74 0 134 -34.5t99 -90.5t65.5 -130t38 -149t11.5 -151q0 -271 -98.5 -419t-247.5 -148q-59 0 -125 35t-109 102q-33 51 -45 51q-10 0 -10 -29v-503h-180zM299 551 q0 -92 16 -164.5t41 -117.5t59.5 -74t68.5 -40.5t71 -11.5q29 0 55.5 10.5t53.5 39.5t46 74.5t31.5 121t12.5 172.5q0 35 -2.5 69t-9 83t-21 88.5t-36.5 76.5t-58 57.5t-82 20.5q-75 0 -133 -64.5t-85.5 -155t-27.5 -185.5z" />
<glyph unicode="&#xff;" horiz-adv-x="909" d="M37 1071h194l160 -496q20 -61 43 -151q20 -73 29 -80l12 6q33 135 62 232l147 489h180l-338 -1057q-50 -158 -98 -237t-105 -107t-153 -28q-58 0 -121 18v201h37q39 -54 107 -54q66 0 99 52t91 219zM197 1200v209h188v-209h-188zM526 1200v209h187v-209h-187z" />
<glyph unicode="&#x152;" horiz-adv-x="1933" d="M82 717q0 48 0.5 78.5t5.5 95t14.5 112t29 113t46.5 115.5t70.5 101t97.5 87q46 30 89.5 48.5t91 25.5t77 8.5t84.5 1.5h1114v-184h-692v-442h498v-185h-498v-502h721v-190h-1196q-156 0 -275.5 74.5t-189.5 212.5q-48 92 -68 215.5t-20 214.5zM299 719q0 -206 53 -334 q15 -35 37 -66t57.5 -62t88.5 -49t118 -18q134 0 189 51.5t55 178.5v696q0 103 -54.5 149t-162.5 46q-60 0 -110 -13.5t-86.5 -34.5t-65.5 -55t-48 -68t-33 -80.5t-21 -85t-11 -89t-5 -85t-1 -81.5z" />
<glyph unicode="&#x153;" horiz-adv-x="1593" d="M104 518q0 45 1 76t8.5 90t21.5 104.5t42.5 99t68.5 93.5q119 119 286 119q83 0 159 -34t114 -83q16 -20 24 -20q3 0 11 4q47 52 124 90.5t164 38.5q89 0 182 -48.5t146 -146.5q33 -62 49 -123.5t20 -106.5t9 -155h-635q-2 -82 10.5 -151t41 -126t81 -89.5t123.5 -32.5 q54 0 101 17t67 32t49 41l107 -98q-36 -32 -58 -48t-65 -40.5t-96 -36t-117 -11.5q-83 0 -164.5 32.5t-132.5 86.5q-17 17 -23 17h-4q-112 -132 -305 -132q-128 0 -222 70.5t-141 192t-47 278.5zM287 520q0 -23 1.5 -48t7.5 -63.5t16 -72.5t29 -70t44 -62t64 -42.5t86 -16.5 q43 0 78 16.5t57.5 42t39 62.5t25.5 71t14 75t6 66.5t1 53.5q0 412 -232 412q-60 0 -105 -30.5t-69.5 -75t-39.5 -105.5t-19 -110.5t-4 -102.5zM903 641h447q-10 122 -24.5 174t-61.5 94q-58 52 -129 52q-37 0 -74.5 -17.5t-72.5 -53t-58.5 -100.5t-26.5 -149z" />
<glyph unicode="&#x178;" horiz-adv-x="1366" d="M70 1501h245l318 -614q1 -3 13 -28t22.5 -47.5t11.5 -23.5l14 -18h15q7 11 33 67t30 64l311 602h215l-495 -911v-592h-221v582zM426 1632v209h188v-209h-188zM756 1632v209h186v-209h-186z" />
<glyph unicode="&#x2c6;" horiz-adv-x="569" d="M-14 1176l204 288h189l205 -288h-164l-135 192l-135 -192h-164z" />
<glyph unicode="&#x2dc;" horiz-adv-x="569" d="M-63 1194q8 65 31 111t55 68.5t62.5 32t64.5 9.5q64 0 182 -49q44 -19 59 -23t37 -4q87 0 100 93h105q-8 -66 -33.5 -113.5t-59 -69.5t-61.5 -31.5t-53 -9.5q-38 0 -172 45q-96 33 -125 33q-25 0 -43.5 -8.5t-29.5 -26t-15 -28t-10 -29.5h-94z" />
<glyph unicode="&#x2000;" horiz-adv-x="989" />
<glyph unicode="&#x2001;" horiz-adv-x="1978" />
<glyph unicode="&#x2002;" horiz-adv-x="989" />
<glyph unicode="&#x2003;" horiz-adv-x="1978" />
<glyph unicode="&#x2004;" horiz-adv-x="659" />
<glyph unicode="&#x2005;" horiz-adv-x="494" />
<glyph unicode="&#x2006;" horiz-adv-x="329" />
<glyph unicode="&#x2007;" horiz-adv-x="329" />
<glyph unicode="&#x2008;" horiz-adv-x="247" />
<glyph unicode="&#x2009;" horiz-adv-x="395" />
<glyph unicode="&#x200a;" horiz-adv-x="109" />
<glyph unicode="&#x2010;" horiz-adv-x="681" d="M76 442v172h530v-172h-530z" />
<glyph unicode="&#x2011;" horiz-adv-x="681" d="M76 442v172h530v-172h-530z" />
<glyph unicode="&#x2012;" horiz-adv-x="681" d="M76 442v172h530v-172h-530z" />
<glyph unicode="&#x2013;" d="M-2 465v123h1026v-123h-1026z" />
<glyph unicode="&#x2014;" horiz-adv-x="2048" d="M256 465v123h1536v-123h-1536z" />
<glyph unicode="&#x2018;" horiz-adv-x="569" d="M96 1526h176l236 -654h-170z" />
<glyph unicode="&#x2019;" horiz-adv-x="569" d="M61 872l236 654h176l-242 -654h-170z" />
<glyph unicode="&#x201a;" horiz-adv-x="569" d="M96 0l236 653h176l-242 -653h-170z" />
<glyph unicode="&#x201c;" horiz-adv-x="1138" d="M154 1526h176l233 -654h-168zM641 1526h174l236 -654h-168z" />
<glyph unicode="&#x201d;" horiz-adv-x="1138" d="M88 872l234 654h176l-242 -654h-168zM573 872l236 654h174l-242 -654h-168z" />
<glyph unicode="&#x201e;" horiz-adv-x="1138" d="M88 -440l234 653h176l-242 -653h-168zM573 -440l236 653h174l-242 -653h-168z" />
<glyph unicode="&#x2022;" d="M215 717q0 123 87 208t210 85t210 -85t87 -208q0 -126 -87 -213.5t-210 -87.5q-124 0 -210.5 86.5t-86.5 214.5z" />
<glyph unicode="&#x2026;" horiz-adv-x="2048" d="M199 121q0 59 42 99t99 40q62 0 103.5 -41.5t41.5 -99.5q0 -48 -37.5 -90.5t-107.5 -42.5q-59 0 -100 38t-41 97zM881 121q0 59 42 99t99 40q62 0 103.5 -41.5t41.5 -99.5q0 -48 -37.5 -90.5t-107.5 -42.5q-59 0 -100 38t-41 97zM1563 121q0 59 42 99t99 40 q62 0 103.5 -41.5t41.5 -99.5q0 -48 -37.5 -90.5t-107.5 -42.5q-59 0 -100 38t-41 97z" />
<glyph unicode="&#x202f;" horiz-adv-x="395" />
<glyph unicode="&#x2039;" horiz-adv-x="796" d="M199 543l266 315h176l-270 -313l250 -320v-8h-170z" />
<glyph unicode="&#x203a;" horiz-adv-x="796" d="M156 217l270 313l-254 328h174l252 -326l-266 -315h-176z" />
<glyph unicode="&#x205f;" horiz-adv-x="494" />
<glyph unicode="&#x20ac;" horiz-adv-x="1138" d="M49 532l49 148h95q-5 50 -5 80q0 19 5 76h-144l49 147h107q17 127 55 226t100 173.5t154.5 114t210.5 39.5q107 0 192 -26t132 -60v-188q-104 100 -297 100q-158 0 -246.5 -101.5t-108.5 -277.5h568l-50 -147h-536q0 -9 -1 -36t-1 -40q0 -16 1 -43.5t1 -36.5h483 l-49 -148h-416q22 -190 112.5 -288.5t242.5 -98.5q181 0 297 101v-191q-41 -32 -125.5 -56t-198.5 -24q-447 0 -518 557h-158z" />
<glyph unicode="&#x2122;" horiz-adv-x="2027" d="M119 1372v131h680v-131h-256v-713h-168v713h-256zM971 659v844h239l232 -598l229 598h238v-844h-156v664h-4l-252 -664h-115l-252 664h-4v-664h-155z" />
<glyph unicode="&#xe000;" horiz-adv-x="1075" d="M0 0v1075h1075v-1075h-1075z" />
</font>
</defs>
</svg>
