<?xml version="1.0" standalone="no"?>
<!DOCTYPE svg PUBLIC "-//W3C//DTD SVG 1.1//EN" "http://www.w3.org/Graphics/SVG/1.1/DTD/svg11.dtd" >
<svg xmlns="http://www.w3.org/2000/svg">
<metadata></metadata>
<defs>
<font id="copperplatebold" horiz-adv-x="1024" >
<font-face units-per-em="2048" ascent="1638" descent="-410" />
<missing-glyph horiz-adv-x="569" />
<glyph horiz-adv-x="2048" />
<glyph horiz-adv-x="2048" />
<glyph unicode="&#xd;" horiz-adv-x="2048" />
<glyph unicode=" "  horiz-adv-x="569" />
<glyph unicode="&#x09;" horiz-adv-x="569" />
<glyph unicode="&#xa0;" horiz-adv-x="569" />
<glyph unicode="!" horiz-adv-x="555" d="M68 1333v33h419v-33q-39 -6 -49 -23.5t-16 -64.5l-74 -614l-2 -45q0 -35 13.5 -48.5t48.5 -25.5v-33h-263v33q33 10 48.5 25.5t15.5 48.5l-2 45l-74 614q-4 45 -15.5 62.5t-49.5 25.5zM123 143q0 68 47 115t115 47q66 0 112.5 -47t46.5 -115q0 -66 -46.5 -112.5 t-112.5 -46.5t-114 46t-48 113z" />
<glyph unicode="&#x22;" horiz-adv-x="903" d="M82 1366h295l-86 -549h-125zM524 1366h295l-86 -549h-125z" />
<glyph unicode="#" horiz-adv-x="1187" d="M70 465l20 117h242l55 231h-229l20 115h240l110 438h127l-110 -438h237l111 438h127l-111 -438h213l-20 -115h-223l-56 -231h213l-20 -117h-223l-119 -465h-129l119 465h-238l-119 -465h-125l117 465h-229zM459 582h237l54 231h-238z" />
<glyph unicode="$" horiz-adv-x="1474" d="M82 125l147 336l31 -15q0 -102 149.5 -167.5t268.5 -65.5v342h-8q-225 0 -381 93t-156 308q0 201 167 317t378 116q0 72 -12.5 91t-51.5 29v33h279v-33q-66 -16 -66 -71v-54q109 0 188 -27.5t162 -62t136 -53.5q10 0 23.5 5t27.5 18l29 -15l-162 -319l-29 14 q0 80 -138 143.5t-237 63.5v-313q330 -37 447 -140.5t117 -273.5q0 -209 -174.5 -326.5t-389.5 -117.5v-66q0 -55 66 -72v-32h-279v32q31 8 47.5 24.5t16.5 47.5v66q-39 0 -85 7t-106.5 20t-148.5 50t-180 76q-20 0 -47 -22zM410 995q0 -102 101 -117.5t167 -23.5v301 q-96 0 -178 -38t-90 -122zM827 213q98 0 186.5 49t88.5 139q0 98 -120 117t-155 21v-326z" />
<glyph unicode="%" horiz-adv-x="1673" d="M70 1024q0 154 97 253t251 99q156 0 253 -99t97 -253q0 -156 -97 -255t-253 -99q-152 0 -250 100t-98 254zM176 0v33q59 8 89 35.5t91 107.5l789 1016q18 23 30.5 43t12.5 39q0 23 -17.5 38t-42.5 21v33h355v-33q-41 -6 -72 -29.5t-98 -111.5l-803 -1040 q-16 -20 -26.5 -37t-10.5 -31q0 -25 16.5 -36t45.5 -15v-33h-359zM242 1024q0 -84 47 -147.5t129 -63.5t129 62.5t47 148.5q0 84 -47 146.5t-129 62.5t-129 -62.5t-47 -146.5zM907 342q0 154 97.5 253t252.5 99q154 0 251.5 -99t97.5 -253q0 -156 -97.5 -255t-251.5 -99 q-156 0 -253 99t-97 255zM1081 342q0 -84 47.5 -147.5t128.5 -63.5q82 0 129.5 62.5t47.5 148.5q0 84 -47.5 146.5t-129.5 62.5t-129 -62.5t-47 -146.5z" />
<glyph unicode="&#x26;" horiz-adv-x="1605" d="M68 385q0 139 81.5 240.5t221.5 169.5q-59 53 -97 116.5t-38 132.5q0 164 140 254.5t314 90.5q176 0 313.5 -89.5t137.5 -255.5q0 -94 -46 -157.5t-137 -124.5q106 -72 162 -191q90 154 179.5 240t238.5 129v-381h-33q-6 49 -26 51q-66 0 -134.5 -79.5t-93.5 -155.5 q61 -66 107.5 -91.5t89.5 -25.5q45 0 57 49h33v-315q-164 10 -245 26.5t-220 155.5q-201 -199 -495 -199q-199 0 -354.5 110t-155.5 300zM344 444q0 -104 83 -169.5t191 -65.5q117 0 217.5 55t100.5 164q0 102 -100 173t-211 71q-104 0 -192.5 -62.5t-88.5 -165.5zM483 1014 q0 -80 61.5 -126t145.5 -46t145.5 46t61.5 126t-61.5 126t-145.5 46t-145.5 -46t-61.5 -126z" />
<glyph unicode="'" horiz-adv-x="501" d="M98 1366h305l-86 -549h-135z" />
<glyph unicode="(" horiz-adv-x="679" d="M45 682q0 248 111.5 477.5t310.5 370.5l111 -92q-141 -160 -203 -344.5t-62 -411.5q0 -231 59.5 -409.5t205.5 -346.5l-111 -90q-197 141 -309.5 369.5t-112.5 476.5z" />
<glyph unicode=")" horiz-adv-x="679" d="M98 -74q145 168 204.5 344t59.5 412q0 231 -59 409.5t-205 346.5l111 92q199 -141 310.5 -369.5t111.5 -478.5q0 -246 -111.5 -475.5t-310.5 -370.5z" />
<glyph unicode="*" horiz-adv-x="978" d="M70 1085l94 289l35 -10q0 -78 62.5 -103.5t162.5 -60.5v25q0 70 -3 102.5t-17.5 78.5t-65.5 58v39h303v-39q-59 -16 -69.5 -73.5t-12.5 -96.5t-2 -94q154 57 189.5 83t35.5 81l35 12l94 -289l-37 -12q-12 18 -32.5 31.5t-46.5 13.5q-49 0 -105.5 -16.5t-91.5 -28.5 q63 -82 105 -128t83 -46q12 0 21.5 4t13.5 6l23 -30l-246 -179l-20 31q23 31 22 55q0 57 -41 115t-67 94q-59 -86 -82 -124.5t-29 -73.5q0 -35 25 -66l-23 -31l-246 179l23 30q20 -10 39 -10q37 0 93 61.5t91 112.5q-86 27 -121 36t-76 9q-53 0 -80 -45z" />
<glyph unicode="+" d="M18 659v154h414v410h158v-410h416v-154h-416v-409h-158v409h-414z" />
<glyph unicode="," horiz-adv-x="509" d="M88 156q0 74 48 115.5t122 41.5q88 0 136 -75.5t48 -167.5q0 -113 -67.5 -203t-177.5 -162l-50 64q76 51 116 102t54 133q-20 -4 -35.5 -7t-27.5 -3q-74 0 -120 44t-46 118z" />
<glyph unicode="-" horiz-adv-x="1361" d="M377 416v340h33q8 -31 24.5 -47.5t46.5 -16.5h398q27 0 43 10.5t28 53.5h33v-340h-33q-8 31 -24.5 47t-46.5 16h-398q-27 0 -43 -10t-28 -53h-33z" />
<glyph unicode="." horiz-adv-x="456" d="M68 143q0 66 46 114t113 48q68 0 115 -47t47 -115q0 -66 -47 -112.5t-115 -46.5q-66 0 -112.5 47t-46.5 112z" />
<glyph unicode="/" horiz-adv-x="1554" d="M68 0v33q57 8 86.5 36.5t91.5 106.5l788 1016q25 31 35 46t10 34q0 25 -17.5 40t-43.5 21v33h469v-33q-55 -8 -82 -34.5t-88 -106.5l-805 -1040q-16 -20 -26.5 -37t-10.5 -31q0 -23 17.5 -35t44.5 -16v-33h-469z" />
<glyph unicode="0" horiz-adv-x="1560" d="M82 682q0 309 194.5 508t503.5 199q311 0 505 -198t194 -509t-194 -509t-505 -198q-309 0 -503.5 199t-194.5 508zM387 690q0 -193 103.5 -329t289.5 -136t290 136.5t104 328.5q0 193 -104 329t-290 136t-289.5 -136t-103.5 -329z" />
<glyph unicode="1" horiz-adv-x="1560" d="M506 872v363h33q10 -31 18 -45t31 -14q29 0 57.5 8t56.5 18v60q0 31 -15 47t-48 24v33h418v-33q-63 -16 -64 -71v-1158q0 -55 64 -71v-33h-418v33q31 8 47 24.5t16 46.5v865q-49 -12 -98 -25q-53 -20 -65 -72h-33z" />
<glyph unicode="2" horiz-adv-x="1560" d="M137 -39q0 262 126 404.5t321.5 233.5t320.5 149q145 86 146 204q0 92 -61.5 144.5t-158.5 52.5q-119 0 -262 -53.5t-153 -151.5q0 -16 2 -25.5t14 -44.5l-22 -22l-267 287l25 22q12 -6 25.5 -12t27.5 -6q20 0 49 20q125 106 266.5 162.5t301.5 56.5q221 0 369.5 -108.5 t148.5 -323.5q0 -139 -77 -235.5t-179.5 -153.5t-232.5 -114.5t-227 -100.5t-144 -108h833q57 0 74 65h33v-375h-33q-8 29 -25.5 46.5t-48.5 17.5h-1063q-45 0 -65.5 -10.5t-30.5 -53.5h-31z" />
<glyph unicode="3" horiz-adv-x="1560" d="M117 104l159 369l29 -12l-4 -27q0 -104 182.5 -164.5t313.5 -60.5q139 0 242.5 39t113.5 151q0 129 -98.5 168t-253.5 39q-57 0 -96 -13t-50 -56h-32v335h32q14 -45 48 -58t94 -13q131 0 229 34.5t98 141.5q0 100 -88 139t-205 39q-115 0 -274.5 -46t-159.5 -130 q0 -16 13 -49l-25 -21l-229 283l24 20q2 -2 21.5 -9t38.5 -7q125 80 274.5 136.5t319.5 56.5q215 0 389 -93.5t174 -289.5q0 -98 -42 -169t-130 -122q109 -43 167 -116.5t58 -184.5q0 -225 -190.5 -332t-434.5 -107q-174 0 -323 45q-141 53 -281 107q-23 0 -38 -8t-38 -29z " />
<glyph unicode="4" horiz-adv-x="1560" d="M125 166v289l678 762q12 16 26.5 32.5t16.5 34.5q0 39 -49 49v33h534v-33q-63 -16 -63 -71v-807h75q31 0 47.5 15t24.5 48h33v-352h-33q-8 31 -24.5 47t-47.5 16h-75v-125q0 -55 63 -71v-33h-418v33q31 8 47.5 24.5t16.5 46.5v125h-719q-51 0 -71.5 -9t-30.5 -54h-31z M451 455h526v600z" />
<glyph unicode="5" horiz-adv-x="1560" d="M100 162l242 319l27 -18q-8 -29 -9 -45q0 -84 163 -146.5t276 -62.5q139 0 241.5 56.5t102.5 180.5q0 125 -98.5 190.5t-233.5 65.5q-70 0 -190.5 -28.5t-120.5 -81.5q0 -12 14 -41l-25 -23l-352 355l21 24l14 -2q25 0 36 17.5t11 44.5v290q0 59 -63 76v31h1081 q53 0 74 66h30v-363h-30q-10 33 -26.5 49.5t-47.5 16.5h-778v-295q86 41 188.5 60.5t208.5 19.5q244 0 414 -117t170 -350q0 -240 -185.5 -358t-437.5 -118q-193 0 -340 58q-139 66 -278 131q-35 0 -74 -23z" />
<glyph unicode="6" horiz-adv-x="1560" d="M143 651q0 322 193.5 530t515.5 208q129 0 260 -35q119 -41 240 -80q8 0 28.5 12t26.5 17l27 -17l-177 -328l-28 15q6 23 6 41q0 70 -132 111.5t-235 41.5q-203 0 -321.5 -116.5t-118.5 -317.5q90 80 193.5 124t220.5 44q242 0 415 -112.5t173 -342.5q0 -229 -187.5 -350 t-427.5 -121q-313 0 -492.5 181.5t-179.5 494.5zM489 436q0 -117 102.5 -176t227.5 -59t227.5 59t102.5 176t-102.5 177.5t-227.5 60.5q-127 0 -228.5 -59.5t-101.5 -178.5z" />
<glyph unicode="7" horiz-adv-x="1560" d="M143 1071v352h33q8 -31 24.5 -47t47.5 -16h1081q27 0 43.5 10t28.5 53h33v-260l-615 -1011q-16 -23 -26.5 -41.5t-10.5 -34.5t10.5 -26.5t47.5 -22.5v-33h-490v33q45 12 76 42.5t63 82.5l611 983h-852q-27 0 -43.5 -10.5t-28.5 -53.5h-33z" />
<glyph unicode="8" horiz-adv-x="1560" d="M127 383q0 141 80 225t225 121q-111 45 -178.5 112.5t-67.5 174.5q0 205 182.5 289t413.5 84t413.5 -84t182.5 -289q0 -104 -66.5 -173t-178.5 -114q135 -33 220 -112.5t85 -206.5q0 -233 -199 -334t-457 -101q-254 0 -445.5 91.5t-209.5 316.5zM432 414 q0 -113 109.5 -159t240.5 -46q178 0 264.5 58.5t86.5 146.5q0 113 -109 158.5t-242 45.5q-178 0 -264 -57t-86 -147zM475 1010q0 -94 97.5 -129t209.5 -35q113 0 211.5 36t98.5 128q0 94 -96.5 130t-213.5 36q-115 0 -211 -36t-96 -130z" />
<glyph unicode="9" horiz-adv-x="1560" d="M133 78l176 328l29 -15q-4 -18 -6 -35q0 -80 132 -119.5t234 -39.5q205 0 323 117.5t118 318.5q-90 -80 -195.5 -125t-218.5 -45q-240 0 -414 113.5t-174 341.5q0 229 187.5 350t427.5 121q313 0 492 -179.5t179 -496.5q0 -322 -193.5 -530t-514.5 -208q-125 0 -258 35 q-121 39 -242 80q-16 0 -28.5 -7t-26.5 -22zM418 928q0 -117 102.5 -177.5t227.5 -60.5q127 0 228 59.5t101 178.5q0 117 -102 176t-227 59t-227.5 -59.5t-102.5 -175.5z" />
<glyph unicode=":" horiz-adv-x="456" d="M68 143q0 66 46 114t113 48q68 0 115 -47t47 -115q0 -66 -47 -112.5t-115 -46.5q-66 0 -112.5 47t-46.5 112zM68 979q0 66 46 114t113 48q68 0 115 -47t47 -115q0 -66 -47 -113t-115 -47q-66 0 -112.5 47t-46.5 113z" />
<glyph unicode=";" horiz-adv-x="509" d="M88 156q0 74 48 115.5t122 41.5q88 0 136 -75.5t48 -167.5q0 -113 -67.5 -203t-177.5 -162l-50 64q76 51 116 102t54 133q-20 -4 -35.5 -7t-27.5 -3q-74 0 -120 44t-46 118zM94 981q0 68 46 114t114 46t115 -45t47 -115t-46 -116t-116 -46q-68 0 -114 46t-46 116z" />
<glyph unicode="&#x3c;" d="M80 739v19l864 538v-129l-516 -325l516 -350v-342z" />
<glyph unicode="=" d="M16 508v147h990v-147h-990zM16 817v148h990v-148h-990z" />
<glyph unicode="&#x3e;" d="M80 150v129l516 325l-516 350v342l864 -589v-17z" />
<glyph unicode="?" horiz-adv-x="972" d="M70 1233l26 16q29 -14 45 -14q111 61 210.5 107.5t193.5 46.5q145 0 252.5 -75t107.5 -212q0 -139 -143.5 -291t-143.5 -248q0 -27 14.5 -40t43.5 -21v-31h-328v31q43 14 55.5 38.5t22.5 91t108.5 205t98.5 197.5q0 63 -46 103.5t-110 40.5q-72 0 -144.5 -39t-72.5 -105 q0 -12 8 -37l-26 -16zM365 143q0 66 46 114t113 48q68 0 115 -47t47 -115q0 -66 -47 -112.5t-115 -46.5q-66 0 -112.5 47t-46.5 112z" />
<glyph unicode="@" horiz-adv-x="1603" d="M125 655q0 309 213 522.5t520 213.5q254 0 438.5 -159t184.5 -411q0 -190 -126 -361t-313 -171q-59 0 -98 33.5t-51 93.5q-47 -59 -111.5 -97t-132.5 -38q-104 0 -164.5 84t-60.5 192q0 172 121 346t284 174q127 0 197 -100l21 70l159 10l-151 -512q-8 -25 -15.5 -54.5 t-7.5 -50.5q0 -27 13.5 -46t37.5 -19q113 0 208 146.5t95 279.5q0 219 -153.5 358t-376.5 139q-256 0 -442.5 -186t-186.5 -442q0 -240 172 -418t414 -178q145 0 253 58t228 179l103 -8q-121 -156 -268.5 -241t-329.5 -85q-270 0 -472 204t-202 474zM582 487q0 -51 24.5 -90 t73.5 -39q78 0 133 80t88 180l74 226q6 16 6 33q0 49 -25.5 85.5t-74.5 36.5q-125 0 -212 -182t-87 -330z" />
<glyph unicode="A" horiz-adv-x="1828" d="M82 0v33q43 8 63.5 30.5t44.5 73.5l502 1051q10 18 17.5 37.5t7.5 38.5q0 51 -58 69v33h484v-33q-20 -6 -40 -18t-20 -41q0 -12 4.5 -26.5t14.5 -39.5l522 -1052q29 -59 52.5 -87t70.5 -36v-33h-502v33q31 4 48.5 16t17.5 39q0 37 -19 68l-94 192h-620l-93 -192 q-10 -25 -14 -36t-4 -26q0 -25 17.5 -39t47.5 -22v-33h-450zM666 535h446l-221 487z" />
<glyph unicode="B" horiz-adv-x="1609" d="M82 0v33q31 8 47 24.5t16 46.5v1158q0 31 -15 47t-48 24v33h924q213 0 345 -79t132 -283q0 -201 -187 -289q111 -41 171.5 -122t60.5 -198q0 -207 -147.5 -301t-366.5 -94h-932zM442 225h508q162 0 218.5 49.5t56.5 137.5q0 109 -77 147.5t-198 38.5h-508v-373zM442 823 h525q102 0 160.5 32t58.5 126t-58.5 127t-160.5 33h-525v-318z" />
<glyph unicode="C" horiz-adv-x="1708" d="M82 682q0 336 232.5 521.5t576.5 185.5q139 0 270 -38t210 -84t115 -65.5t58 -27.5q18 0 33.5 9t24.5 15l24 -16l-188 -285l-27 18q0 37 -6 53.5t-60.5 61.5t-173 85t-247.5 40q-227 0 -382 -125t-155 -348q0 -221 155.5 -347t381.5 -126q162 0 324.5 71.5t162.5 143.5 v27l27 16l188 -283l-24 -18q-10 8 -21.5 17.5t-26.5 9.5q-10 0 -22 -5.5t-101.5 -57.5t-235.5 -103.5t-304 -51.5q-342 0 -575.5 186.5t-233.5 520.5z" />
<glyph unicode="D" horiz-adv-x="1665" d="M82 0v33q31 8 47 24.5t16 46.5v1158q0 31 -15 47t-48 24v33h760q168 0 296 -28.5t234.5 -121t158.5 -231.5t52 -303q0 -160 -52 -301t-158.5 -230.5t-236.5 -120t-294 -30.5h-760zM442 225h375q233 0 347 112t114 345q0 236 -111.5 347.5t-349.5 111.5h-375v-916z" />
<glyph unicode="E" horiz-adv-x="1507" d="M82 0v33q31 8 47 24.5t16 46.5v1158q0 27 -10 43t-53 28v33h1216q31 0 47.5 15.5t24.5 48.5h33v-353h-33q-8 31 -24.5 47.5t-47.5 16.5h-856v-324h555q27 0 43.5 10.5t28.5 53.5h33v-344h-33q-8 31 -24.5 47t-47.5 16h-555v-375h879q57 0 74 66h30v-354h-30 q-8 29 -25.5 46t-48.5 17h-1239z" />
<glyph unicode="F" horiz-adv-x="1476" d="M82 0v33q31 8 47 24.5t16 46.5v1158q0 31 -15 47t-48 24v33h1208q31 0 47.5 15.5t24.5 48.5h33v-353h-33q-8 31 -24.5 47.5t-47.5 16.5h-848v-326h555q27 0 43.5 10.5t28.5 53.5h33v-347h-33q-16 66 -72 66h-555v-494q0 -55 66 -71v-33h-426z" />
<glyph unicode="G" horiz-adv-x="1720" d="M82 682q0 332 230.5 519.5t572.5 187.5q123 0 228.5 -19.5t176 -47.5t106.5 -41t64 -13q12 0 21.5 3t25.5 19l29 -14l-160 -328l-28 15q0 98 -160 145t-299 47q-211 0 -356.5 -132t-145.5 -341q0 -219 149.5 -346t372.5 -127q119 0 223.5 21.5t196.5 74.5v187h-338 q-55 0 -71 -66h-33v319h33q16 -65 69 -65h2h647v-31q-29 -8 -46 -25.5t-17 -48.5v-280q0 -31 15.5 -47.5t47.5 -24.5v-26q-182 -104 -369.5 -163t-377.5 -59q-346 0 -577.5 184.5t-231.5 522.5z" />
<glyph unicode="H" horiz-adv-x="1675" d="M82 0v33q31 8 47 24.5t16 46.5v1158q0 31 -15 47t-48 24v33h426v-33q-66 -16 -66 -71v-441h791v441q0 55 -66 71v33h426v-33q-31 -8 -47 -24.5t-16 -46.5v-1158q0 -31 15.5 -47t47.5 -24v-33h-426v33q66 16 66 71v492h-791v-492q0 -55 66 -71v-33h-426z" />
<glyph unicode="I" horiz-adv-x="589" d="M82 0v33q31 8 47 24.5t16 46.5v1158q0 31 -15 47t-48 24v33h426v-33q-66 -16 -66 -71v-1158q0 -55 66 -71v-33h-426z" />
<glyph unicode="J" horiz-adv-x="1298" d="M82 51l127 346l31 -10v-20q0 -74 130 -116t224 -42q147 0 204.5 59.5t57.5 202.5v789q0 31 -15.5 48t-47.5 25v33h424v-33q-29 -8 -46.5 -25.5t-17.5 -47.5v-805q0 -133 -25.5 -220.5t-104.5 -148.5t-176 -86t-208 -25q-104 0 -259 46.5t-204 46.5q-35 0 -63 -29z" />
<glyph unicode="K" horiz-adv-x="1662" d="M82 0v33q31 8 47 24.5t16 46.5v1158q0 31 -15 47t-48 24v33h426v-33q-66 -16 -66 -71v-478l564 459q16 10 26 22.5t12 24.5q0 20 -16 29.5t-41 13.5v33h559v-33q-47 -8 -112 -59q-74 -63 -103 -88l-465 -375l527 -633q63 -74 98 -105.5t90 -39.5v-33h-534v33 q20 4 36.5 12t16.5 23q0 18 -17 41q-23 25 -30 34l-404 494l-207 -166v-367q0 -55 66 -71v-33h-426z" />
<glyph unicode="L" horiz-adv-x="1470" d="M82 0v33q31 8 47 24.5t16 46.5v1158q0 27 -10 43t-53 28v33h426v-33q-66 -16 -66 -71v-1037h842q55 0 72 66h33v-354h-33q-8 31 -24.5 47t-47.5 16h-1202z" />
<glyph unicode="M" horiz-adv-x="1896" d="M82 0v33q31 8 47 24.5t16 46.5v1158q0 31 -15 47t-48 24v33h526v-33q-20 -6 -31.5 -16t-15.5 -31q0 -31 14 -53l373 -688l375 676q2 4 13.5 24.5t13.5 34.5q0 53 -52 53v33h517v-33q-31 -8 -47.5 -24.5t-16.5 -46.5v-1158q0 -31 15.5 -47t48.5 -24v-33h-426v33 q66 16 65 71v840l-532 -926l-502 926v-840q0 -31 15.5 -47t47.5 -24v-33h-401z" />
<glyph unicode="N" horiz-adv-x="1701" d="M82 0v33q31 8 47 24.5t16 46.5v1158q0 31 -15 47t-48 24v33h465v-33q-20 -6 -31.5 -15t-11.5 -30q0 -14 8 -27.5t18 -25.5l754 -784v811q0 55 -65 71v33h401v-33q-31 -8 -47.5 -24.5t-16.5 -46.5v-1158q0 -31 15.5 -47t48.5 -24v-33h-428v33q25 6 32 13t9 24 q0 18 -11.5 33.5t-37.5 41.5l-764 791v-832q0 -31 15.5 -47t47.5 -24v-33h-401z" />
<glyph unicode="O" horiz-adv-x="1732" d="M82 682q0 326 226.5 516.5t557.5 190.5q115 0 220.5 -20.5t234.5 -88.5t229.5 -235.5t100.5 -362.5q0 -326 -226.5 -516.5t-558.5 -190.5q-115 0 -219 19.5t-234 88.5t-230.5 236.5t-100.5 362.5zM387 682q0 -205 136 -339t343 -134q205 0 342.5 133t137.5 340 q0 211 -135.5 342t-344.5 131q-207 0 -343 -132t-136 -341z" />
<glyph unicode="P" horiz-adv-x="1552" d="M82 0v33q31 8 47 24.5t16 46.5v1158q0 31 -15 47t-48 24v33h852q133 0 224 -16.5t164 -71.5t110.5 -140t37.5 -177q0 -94 -36.5 -179.5t-110.5 -138.5t-169 -70.5t-220 -17.5h-492v-451q0 -55 66 -71v-33h-426zM442 778h457q117 0 191.5 39t74.5 144q0 104 -64.5 142 t-178.5 38h-23h-457v-363z" />
<glyph unicode="Q" horiz-adv-x="1771" d="M82 684q0 326 226.5 516.5t557.5 190.5q115 0 220.5 -19.5t234.5 -88.5t229.5 -236.5t100.5 -362.5q0 -141 -56.5 -276.5t-156.5 -231.5l106 -108q25 -31 39 -43.5t39 -12.5q16 0 45 13l23 -25l-293 -264l-23 24q20 31 21 45q0 31 -67.5 109t-106.5 123 q-80 -33 -167 -46.5t-188 -13.5q-115 0 -219 19.5t-234 88.5t-230.5 236.5t-100.5 362.5zM387 684q0 -209 135 -342t344 -133q100 0 187 33q-53 70 -122 121t-149 71v29q72 55 152 55q70 0 104.5 -15.5t202.5 -127.5q105 133 105 309q0 207 -135.5 340t-344.5 133 q-207 0 -343 -132t-136 -341z" />
<glyph unicode="R" horiz-adv-x="1656" d="M82 0v33q31 8 47 24.5t16 46.5v1158q0 31 -15 47t-48 24v33h854q264 0 412.5 -84t148.5 -332q0 -168 -99.5 -261t-271.5 -120l267 -379q59 -88 92 -122.5t90 -34.5v-33h-494v33q16 2 32.5 8t16.5 27q0 20 -20 49.5t-27 38.5l-274 401h-367v-453q0 -55 66 -71v-33h-426z M442 782h463q135 0 215 32t80 147q0 117 -79 148.5t-216 31.5h-463v-359z" />
<glyph unicode="S" horiz-adv-x="1474" d="M82 125l147 334l31 -13q0 -115 172 -176t316 -61q135 0 244.5 41t109.5 149q0 109 -318.5 146t-484.5 96t-166 313q0 229 180.5 332t427.5 103q115 0 232 -29t188.5 -60.5t98 -43t53.5 -15.5q10 0 23.5 5t27.5 18l29 -15l-162 -321l-29 16q0 31 -13 49.5t-115.5 90 t-317.5 71.5q-137 0 -236.5 -28.5t-109.5 -131.5q0 -70 51 -97.5t290.5 -52t439.5 -94t200 -335.5q0 -229 -191.5 -335t-441.5 -106q-135 0 -262 28t-201 65.5t-96.5 50t-40.5 12.5q-23 0 -47 -20z" />
<glyph unicode="T" horiz-adv-x="1517" d="M82 1077v353h33q8 -31 24.5 -47.5t46.5 -16.5h1145q27 0 43.5 10t28.5 54h33v-353h-33q-8 31 -24.5 47.5t-47.5 16.5h-424v-1037q0 -27 10.5 -43t53.5 -28v-33h-424v33q31 8 47 24.5t16 46.5v1037h-424q-27 0 -43 -10.5t-28 -53.5h-33z" />
<glyph unicode="U" horiz-adv-x="1642" d="M82 1333v33h426v-33q-29 -8 -46.5 -25.5t-17.5 -47.5v-680v-43q0 -82 11.5 -134.5t59.5 -101.5t131 -70.5t188 -21.5q205 0 297 72.5t92 267.5v31v680q0 31 -15.5 48t-48.5 25v33h404v-33q-66 -16 -66 -73v-764q0 -303 -173 -412t-503 -109q-326 0 -501 107.5t-175 413.5 v764q0 31 -15 48t-48 25z" />
<glyph unicode="V" horiz-adv-x="1753" d="M82 1333v33h485v-33q-33 -6 -49 -17t-16 -38q0 -23 9 -45.5t13 -34.5l363 -801l360 801q8 16 15.5 34.5t7.5 45.5q0 25 -18.5 37t-47.5 18v33h467v-33q-47 -8 -63.5 -32.5t-55.5 -102.5l-473 -1020q-12 -29 -21 -50.5t-9 -37.5q0 -23 19 -38t44 -19v-33h-469v33 q25 4 43.5 18.5t18.5 38.5q0 23 -11.5 48.5t-17.5 39.5l-473 1020q-23 43 -43 86q-27 39 -78 49z" />
<glyph unicode="W" horiz-adv-x="2514" d="M82 1333v33h473v-33q-27 -6 -45 -18t-18 -39q0 -18 3 -27.5t13 -40.5l270 -723l293 727q6 14 12.5 29.5t6.5 32.5q0 25 -18.5 39t-47.5 20v33h496v-33q-31 -8 -48.5 -19t-19.5 -36q0 -16 2 -25.5t14 -44.5l277 -725l270 713q12 31 16.5 45t4.5 37q0 25 -21.5 37t-52.5 18 v33h471v-33q-43 -10 -64.5 -30.5t-54.5 -106.5l-391 -1008q-12 -31 -20.5 -52t-8.5 -40q0 -29 21.5 -44t50.5 -19v-33h-444v33q27 4 48 19.5t21 43.5q0 20 -12 49t-18 43l-301 775l-314 -791q-8 -18 -17 -38.5t-9 -37.5q0 -27 21.5 -41t51.5 -22v-33h-438v33q29 6 45 18 t21 39q0 25 -10.5 53.5t-16.5 44.5l-391 1008q-27 70 -48.5 98.5t-72.5 38.5z" />
<glyph unicode="X" horiz-adv-x="1691" d="M82 0v33q41 4 67.5 24.5t106.5 118.5l412 520l-379 496q-55 74 -86 104.5t-90 36.5l-2 33h548v-33q-23 -4 -42 -21.5t-19 -39.5q0 -16 7 -29.5t38 -50.5l213 -274l217 274q14 18 30.5 43t16.5 41q0 25 -20.5 39t-46.5 18v33h532v-33q-53 -6 -87 -38.5t-87 -102.5 l-393 -481l414 -535q57 -76 87.5 -105.5t90.5 -37.5v-33h-541v33q16 2 37.5 12t21.5 39q0 16 -9 31.5t-27 36.5l-263 337l-249 -325q-20 -27 -30.5 -42.5t-10.5 -31.5q0 -27 19.5 -42t47.5 -15v-33h-524z" />
<glyph unicode="Y" horiz-adv-x="1679" d="M82 1333v33h541v-33q-27 -4 -45.5 -16t-22.5 -37q0 -23 12 -45q20 -29 29 -43l246 -367l252 367q27 35 34 48t7 32q0 25 -18.5 41t-47.5 20v33h528v-33q-53 -6 -86.5 -39.5t-80.5 -101.5l-443 -621v-467q0 -29 17.5 -46t50.5 -25v-33h-430v33q66 16 65 71v467l-440 621 q-55 76 -84 105.5t-84 35.5z" />
<glyph unicode="Z" horiz-adv-x="1462" d="M82 0v72l792 1069h-681q-27 0 -43.5 -10.5t-28.5 -53.5h-33v353h33q8 -31 24.5 -47.5t47.5 -16.5h1175v-57l-803 -1084h711q55 0 72 66h32v-354h-32q-8 31 -24.5 47t-47.5 16h-1194z" />
<glyph unicode="[" horiz-adv-x="645" d="M43 -139q31 8 47 24.5t16 44.5v1258q0 55 -63 69v27h391q55 0 76 64h27v-269h-27q-10 33 -26.5 49.5t-49.5 16.5h-108v-1170h96q41 0 59.5 13.5t28.5 52.5h27v-268h-27q-20 63 -76 63h-391v25z" />
<glyph unicode="\" horiz-adv-x="1554" d="M68 1333v33h467v-33q-23 -6 -39.5 -17t-20.5 -34q0 -25 13.5 -47.5t29.5 -42.5l789 -1016q61 -78 90.5 -106.5t89.5 -36.5v-33h-469v33q16 2 37.5 12t21.5 39q0 16 -9 31.5t-28 36.5l-802 1040q-59 78 -87 105.5t-83 35.5z" />
<glyph unicode="]" horiz-adv-x="645" d="M109 41h26q10 -33 26.5 -49.5t49.5 -16.5h108v1170h-96q-41 0 -59.5 -13.5t-28.5 -52.5h-26v269h26q16 -63 76 -64h391v-24q-31 -8 -47 -24.5t-16 -45.5v-1258q0 -55 63 -69v-27h-391q-55 0 -76 -63h-26v268z" />
<glyph unicode="^" d="M-61 569l589 865h19l538 -865h-129l-325 516l-350 -516h-342z" />
<glyph unicode="_" d="M-2 -188h1026v-152h-1026v152z" />
<glyph unicode="`" d="M328 1503v27h293v-27q-27 -4 -27 -22q0 -20 19.5 -74.5t34 -95.5t48.5 -41v-27h-200v27q25 0 24 16q-4 14 -6 17l-135 172q-18 23 -51 28z" />
<glyph unicode="a" horiz-adv-x="1562" d="M72 0v27q39 6 58.5 27.5t41.5 64.5l410 827q8 16 15 34.5t7 45.5q0 25 -15.5 40t-41.5 26v26h436v-26q-23 -8 -39 -24.5t-16 -37.5q0 -25 5 -43t19 -45l424 -803q20 -39 42 -70.5t75 -41.5v-27h-457v27q23 4 43.5 15t20.5 44q0 45 -30 96t-56 99h-514 q-25 -47 -52.5 -102.5t-27.5 -92.5q0 -23 19.5 -38t43.5 -21v-27h-411zM575 436h357l-182 361z" />
<glyph unicode="b" horiz-adv-x="1366" d="M72 0v27q63 16 63 75v916q0 57 -63 74v26h784q170 0 287 -63.5t117 -220.5q0 -82 -41 -136.5t-119 -95.5q102 -47 148 -107.5t46 -166.5q0 -166 -125 -247t-301 -81h-796zM403 203h418q88 0 144.5 32.5t56.5 114.5t-55.5 114t-145.5 32h-418v-293zM403 700h408 q82 0 131 19.5t49 87.5q0 53 -36.5 80.5t-143.5 27.5h-408v-215z" />
<glyph unicode="c" horiz-adv-x="1431" d="M72 559q0 279 195.5 431.5t482.5 152.5q152 0 286 -56l258 -122q23 0 43 16l23 -16l-168 -246l-23 16l5 27q0 68 -152 119t-262 51q-164 0 -288 -105.5t-124 -267.5t123 -267.5t289 -105.5q162 0 258 49.5t126 70t30 48.5l-5 29l23 16l168 -245l-23 -17q-20 16 -39 17 q-129 -70 -269 -124.5t-279 -54.5q-287 0 -482.5 150.5t-195.5 433.5z" />
<glyph unicode="d" horiz-adv-x="1411" d="M70 0v27q63 16 63 75v916q0 57 -63 74v26h657q143 0 249.5 -24.5t193.5 -102.5t128 -189.5t41 -242.5q0 -285 -160.5 -422t-451.5 -137h-657zM401 203h287q184 0 279.5 87t95.5 269q0 178 -97.5 267t-277.5 89h-287v-712z" />
<glyph unicode="e" horiz-adv-x="1286" d="M72 0v29q63 16 63 73v916q0 57 -63 74v28h1011q55 0 76 64h27v-332h-27q-20 63 -76 63h-680v-243h422q33 0 49.5 15t26.5 48h27v-323h-29q-16 65 -72 65h-2h-422v-272h711q55 0 76 63h27v-331h-27q-16 63 -76 63h-1042z" />
<glyph unicode="f" horiz-adv-x="1247" d="M70 0v27q63 16 63 75v916q0 57 -63 74v26h1003q55 0 76 66h27v-332h-27q-10 33 -27.5 48t-48.5 15h-672v-243h422q55 0 76 63h27v-323h-29q-8 29 -25.5 46t-48.5 17h-422v-373q0 -31 15.5 -48t48.5 -27v-27h-395z" />
<glyph unicode="g" horiz-adv-x="1456" d="M72 559q0 266 201.5 425t474.5 159q111 0 232.5 -33t246.5 -68q20 2 37 17l24 -12l-133 -283l-25 12q0 68 -138 112t-242 44q-166 0 -284 -103.5t-118 -267.5q0 -178 115 -276.5t297 -98.5q102 0 186 15.5t160 58.5v172h-254q-55 0 -76 -65h-26v297h26q16 -63 76 -64h532 v-29q-63 -18 -63 -82v-237q0 -29 16.5 -47.5t46.5 -26.5v-24q-154 -84 -310 -131.5t-316 -47.5q-139 0 -256 29t-216.5 104.5t-156.5 197.5t-57 253z" />
<glyph unicode="h" horiz-adv-x="1431" d="M72 0v27q63 16 63 75v916q0 57 -63 74v26h395v-26q-63 -18 -64 -74v-328h625v328q0 57 -63 74v26h395v-26q-29 -8 -46.5 -25.5t-17.5 -48.5v-916q0 -31 15.5 -48t48.5 -27v-27h-395v27q63 16 63 75v385h-625v-385q0 -31 15.5 -48t48.5 -27v-27h-395z" />
<glyph unicode="i" horiz-adv-x="538" d="M72 0v27q63 16 63 75v916q0 57 -63 74v26h395v-26q-63 -18 -64 -74v-916q0 -31 15.5 -48t48.5 -27v-27h-395z" />
<glyph unicode="j" horiz-adv-x="1095" d="M72 29l98 305l27 -8q0 -72 97 -106t185 -34q104 0 158.5 46.5t54.5 150.5v633q0 31 -15 48t-48 28v26h395v-26q-63 -16 -63 -76v-637q0 -223 -113 -313.5t-348 -90.5q-74 0 -166 22.5t-191 49.5q-12 0 -23 -7t-22 -20z" />
<glyph unicode="k" horiz-adv-x="1429" d="M72 0v27q63 16 63 75v916q0 57 -63 74v26h395v-26q-63 -18 -64 -74v-367l422 336q23 18 35 31.5t12 32.5q0 14 -13 24t-46 17v26h504v-26q-55 -8 -125 -68q-45 -43 -64 -59l-378 -301l415 -478q59 -76 106.5 -111.5t88.5 -47.5v-27h-490v27q27 8 41.5 15t14.5 26 q-6 23 -26.5 43t-29.5 30l-307 371l-160 -131v-279q0 -31 15.5 -48t48.5 -27v-27h-395z" />
<glyph unicode="l" horiz-adv-x="1202" d="M72 0v29q63 16 63 73v916q0 57 -63 74v28h395v-28q-29 -8 -46.5 -25.5t-17.5 -48.5v-813h627q55 0 76 63h27v-331h-27q-16 63 -76 63h-958z" />
<glyph unicode="m" horiz-adv-x="1622" d="M70 0v27q63 16 63 75v916q0 57 -63 74v26h473v-26q-23 -8 -35 -20.5t-12 -35.5q0 -25 10 -51.5t24 -48.5l279 -471l281 463q20 35 32.5 56.5t14.5 45.5q0 49 -47 62v26h460v-26q-66 -16 -65 -74v-916q0 -55 65 -75v-27h-397v27q33 10 49.5 26.5t16.5 48.5v633l-433 -700 l-409 700v-633q0 -55 65 -75v-27h-372z" />
<glyph unicode="n" horiz-adv-x="1468" d="M72 0v27q63 16 63 75v916q0 57 -63 74v26h430v-26q-23 -4 -34 -12.5t-11 -26.5q0 -16 6 -25.5t26 -32.5l601 -594v617q0 57 -64 74v26h373v-26q-66 -16 -66 -74v-916q0 -55 66 -75v-27h-402v27q14 2 28.5 9t14.5 25q0 29 -29.5 55.5t-37.5 35.5l-594 585v-635 q0 -55 65 -75v-27h-372z" />
<glyph unicode="o" horiz-adv-x="1456" d="M72 559q0 272 189.5 428t467.5 156q276 0 465.5 -156t189.5 -428q0 -270 -190.5 -427t-464.5 -157q-279 0 -468 156t-189 428zM348 559q0 -164 108.5 -268.5t272.5 -104.5q162 0 271.5 105.5t109.5 267.5q0 164 -108.5 268.5t-272.5 104.5t-272.5 -104.5t-108.5 -268.5z " />
<glyph unicode="p" horiz-adv-x="1335" d="M72 0v27q63 16 63 75v916q0 57 -63 74v26h729q207 0 336 -69.5t129 -260.5q0 -182 -133.5 -255.5t-331.5 -73.5h-398v-357q0 -31 15.5 -48t48.5 -27v-27h-395zM403 664h383q94 0 148.5 21.5t54.5 102.5q0 82 -55 104.5t-148 22.5h-383v-251z" />
<glyph unicode="q" horiz-adv-x="1507" d="M72 559q0 272 189.5 428t467.5 156q276 0 465.5 -156t189.5 -428q0 -117 -44 -225.5t-128 -186.5q39 -43 90 -95t78 -52q12 0 37 16l19 -18l-242 -223l-18 20q18 23 18 39q0 20 -55.5 81.5t-104.5 117.5q-66 -29 -147.5 -43.5t-157.5 -14.5q-279 0 -468 156t-189 428z M348 559q0 -162 108.5 -266.5t272.5 -104.5q72 0 152 27q-45 59 -100.5 103t-118.5 61v18q31 20 62.5 32.5t68.5 12.5q78 0 123 -27.5t120 -84.5q74 98 74 229q0 164 -108.5 268.5t-272.5 104.5t-272.5 -104.5t-108.5 -268.5z" />
<glyph unicode="r" horiz-adv-x="1417" d="M72 0v27q63 16 63 75v916q0 57 -63 74v26h733q219 0 346 -64.5t127 -262.5q0 -139 -83 -213t-232 -107l213 -295q51 -70 84.5 -105.5t85.5 -43.5v-27h-469v27q31 8 41 17t10 24q0 20 -6.5 34.5t-24.5 36.5l-225 320h-269v-357q0 -31 15.5 -48t48.5 -27v-27h-395zM403 664 h404q92 0 148.5 23.5t56.5 100.5q0 82 -55.5 104.5t-149.5 22.5h-404v-251z" />
<glyph unicode="s" horiz-adv-x="1273" d="M72 76l114 274l27 -10q0 -84 156.5 -123t279.5 -39q104 0 198.5 29t94.5 108q0 92 -279.5 117t-425 73t-145.5 273q0 186 158 275.5t360 89.5q121 0 254 -41q125 -47 250 -92q12 0 22.5 6t20.5 14l25 -12l-135 -260l-25 12q0 76 -145.5 123t-251.5 47 q-100 0 -193.5 -27.5t-103.5 -103.5q0 -86 280.5 -116.5t437 -84t156.5 -270.5q0 -186 -168 -274.5t-372 -88.5q-127 0 -247 22.5t-231 74.5q-25 8 -47 18q-20 0 -41 -24z" />
<glyph unicode="t" horiz-adv-x="1273" d="M72 852v332h26q10 -33 26.5 -49.5t49.5 -16.5h928q57 0 74 66h28v-332h-28q-16 63 -74 63h-330v-813q0 -55 64 -75v-27h-396v27q63 18 64 75v813h-330q-55 0 -76 -63h-26z" />
<glyph unicode="u" horiz-adv-x="1402" d="M70 1092v26h397v-26q-63 -20 -64 -76v-539q0 -162 71 -226.5t239 -64.5q166 0 237.5 65.5t71.5 225.5v539q0 31 -15.5 48t-48.5 28l-2 26h375v-26q-33 -10 -49 -26.5t-16 -49.5v-592q0 -258 -143.5 -353.5t-422.5 -95.5q-276 0 -421.5 94.5t-145.5 354.5v592q0 55 -63 76 z" />
<glyph unicode="v" horiz-adv-x="1484" d="M72 1092v26h448v-26q-27 -8 -44 -20.5t-19 -39.5q0 -25 5 -43t19 -43l271 -592l270 592q10 20 16 39t6 37q0 27 -17 44t-46 26v26h432v-26q-39 -12 -60.5 -37t-43.5 -74l-391 -823q-8 -20 -13.5 -33.5t-7.5 -28.5q0 -59 66 -69v-27h-441v27q29 6 48.5 21t19.5 42 q0 23 -23 68l-391 823q-25 51 -43 74.5t-61 36.5z" />
<glyph unicode="w" horiz-adv-x="2140" d="M72 1092v26h426v-26q-29 -10 -45.5 -23.5t-16.5 -38.5q0 -18 4 -33.5t17 -40.5l209 -528l208 524q6 14 12.5 36t6.5 36q0 27 -19.5 44t-46.5 24v26h498v-26q-27 -10 -45 -23.5t-20 -38.5q0 -35 16 -74l205 -528l202 535q14 33 15 59q0 29 -17.5 45t-48.5 25v26h436v-26 q-53 -20 -76.5 -54t-49.5 -106l-302 -762q-4 -12 -10 -35.5t-6 -36.5q0 -31 17.5 -48t50.5 -23v-27h-435v27q37 10 51.5 31.5t14.5 43.5l-4 21l-19 47l-233 608l-244 -608q-6 -14 -12 -36.5t-6 -39.5q0 -27 18.5 -45t46.5 -22v-27h-417v27q25 6 42 20t19 39q0 27 -3 40 t-15 44l-297 762q-27 74 -50.5 109.5t-76.5 50.5z" />
<glyph unicode="x" horiz-adv-x="1431" d="M72 0v27q51 12 76.5 33.5t72.5 80.5l332 426l-291 387q-47 61 -81 93t-83 45v26h512v-26q-27 -8 -46 -21.5t-19 -36.5q0 -18 7 -32.5t23 -36.5l152 -203l141 190q27 35 34 48.5t7 33.5q0 23 -20.5 37t-44.5 21l-2 26h489v-26q-55 -10 -87 -39t-83 -99l-295 -374l330 -439 q39 -53 76 -80.5t90 -33.5v-27h-516v27q25 6 43 16t20 31q0 18 -9 34.5t-26 34.5l-180 240l-184 -240q-12 -16 -19.5 -30.5t-7.5 -30.5q0 -18 20.5 -32.5t45.5 -22.5v-27h-477z" />
<glyph unicode="y" horiz-adv-x="1411" d="M70 1092v26h503v-26q-33 -8 -48 -19.5t-15 -36.5q0 -27 9 -42t38 -52l162 -225l158 225q18 25 32.5 47.5t14.5 40.5q0 25 -18.5 39t-45.5 23v26h479v-26q-53 -10 -87.5 -44t-80.5 -100l-333 -456v-390q0 -55 65 -75v-27h-397v27q33 10 49 26.5t16 48.5v390l-331 456 q-47 63 -82 98t-88 46z" />
<glyph unicode="z" horiz-adv-x="1247" d="M72 0v61l653 854h-543q-55 0 -76 -63h-26v332h26q10 -33 28 -48.5t48 -15.5h985v-49l-659 -866h567q57 0 74 63h27v-331h-27q-16 63 -74 63h-1003z" />
<glyph unicode="{" d="M213 549v51q90 0 125 37t35 131l-4 229q0 233 57 319.5t266 86.5l129 2v-53q-125 0 -173 -50.5t-48 -199.5v-275q0 -115 -46 -172t-165 -77q111 -20 160 -84t49 -177v-350q0 -125 49 -176t174 -51v-53h-33q-221 0 -322 45t-101 239l6 424q0 84 -39 119t-119 35z" />
<glyph unicode="|" d="M412 -342v1706h202v-1706h-202z" />
<glyph unicode="}" d="M203 -260q125 0 174 51t49 176l2 371q0 203 207 233q-98 23 -153.5 70t-55.5 137l-2 348q0 125 -50 175.5t-171 50.5v53l39 -2q254 0 333.5 -62.5t79.5 -320.5l-4 -242q0 -96 34 -137t126 -41v-51q-158 0 -158 -152l6 -426q0 -162 -77.5 -222t-243.5 -60l-135 -2v53z" />
<glyph unicode="~" horiz-adv-x="1366" d="M279 1264q57 106 116.5 166.5t145.5 60.5q53 0 168.5 -40t162.5 -40q49 0 90.5 24.5t75.5 65.5l47 -26q-47 -96 -114.5 -162t-157.5 -66q-55 0 -172 41t-160 41q-39 0 -65.5 -14.5t-91.5 -79.5z" />
<glyph unicode="&#xa1;" horiz-adv-x="555" d="M68 0v33q39 6 49 23.5t16 64.5l74 614l2 45q0 33 -15.5 48.5t-48.5 25.5v31h263v-31l-13 -4q-49 -14 -49 -70l2 -45l74 -614q6 -49 14 -64.5t51 -23.5v-33h-419zM111 1221q0 66 45.5 113.5t113.5 47.5t115 -47t47 -114q0 -66 -47 -113t-115 -47q-66 0 -112.5 47 t-46.5 113z" />
<glyph unicode="&#xa2;" horiz-adv-x="1458" d="M84 559q0 252 171 417t417 165v53q0 31 -15.5 48.5t-48.5 25.5v28h273v-28q-63 -16 -64 -74v-53q127 0 248 -51q121 -63 242 -125q23 0 43 16l22 -16l-168 -246l-22 16l4 27q0 61 -140.5 115.5t-228.5 54.5v-744q45 0 92 10.5t108.5 34t115 53t53.5 70.5l-4 29l22 16 l168 -245l-22 -19q-20 16 -35 17q-129 -68 -266.5 -122.5t-231.5 -54.5v-57q0 -55 64 -76v-26h-273v26q33 10 48.5 27.5t15.5 48.5v60q-248 0 -418 163.5t-170 415.5zM360 559q0 -137 86 -231.5t226 -128.5v721q-135 -33 -223.5 -128.5t-88.5 -232.5z" />
<glyph unicode="&#xa3;" horiz-adv-x="1531" d="M82 180q100 51 148.5 121t48.5 176l-5 133h-81q-31 0 -47.5 -15t-24.5 -48h-33v323h33q16 -66 72 -65h57q-2 18 -9.5 76.5t-7.5 91.5q0 209 160 313.5t381 104.5q178 0 301 -60q123 -74 246 -147q16 0 33 10l20 -25l-293 -211l-18 27q18 12 18 33q0 20 -18.5 39.5t-55 46 t-98 40t-131.5 13.5q-104 0 -177 -51t-73 -152q0 -33 5.5 -86t5.5 -63h227q55 0 72 65h32v-323h-32q-8 31 -24.5 47t-47.5 16h-207l2 -10l4 -147q0 -51 -18.5 -92.5t-89.5 -118.5q39 12 88 21t88 9q59 0 184 -27.5t168 -27.5q63 0 119.5 22.5t56.5 71.5q0 27 -20 41l22 25 l287 -221l-18 -25q-25 12 -37 12q-111 -66 -206 -116t-198 -50q-70 0 -230.5 33t-221.5 33q-96 0 -187.5 -19.5t-173.5 -60.5z" />
<glyph unicode="&#xa4;" horiz-adv-x="1366" d="M66 1212l102 101l201 -201q66 45 147.5 69.5t165.5 24.5q80 0 153.5 -24.5t153.5 -71.5l207 207l102 -103l-208 -210q43 -76 66.5 -154t23.5 -162q0 -74 -25 -145.5t-68 -145.5l207 -209l-102 -102l-201 203q-80 -47 -154.5 -71.5t-156.5 -24.5t-155.5 23.5t-153.5 70.5 l-201 -201l-102 102l198 199q-47 84 -70.5 155.5t-23.5 162.5q0 61 16.5 127.5t75.5 179.5zM397 698q0 -117 84 -198.5t201 -81.5q115 0 198 83t83 197q0 115 -82 199t-199 84t-201 -82t-84 -201z" />
<glyph unicode="&#xa5;" horiz-adv-x="1679" d="M82 1333v33h541v-31q-68 -25 -68 -57q0 -25 35 -78l252 -373l258 371q33 53 33 80q0 41 -64 55v33h528v-33q-53 -6 -83.5 -34.5t-81.5 -104.5l-283 -395h217v-82h-276l-103 -146v-61h424v-84h-424v-229v-58q0 -51 11.5 -72.5t56.5 -33.5v-33h-430v33q43 12 54 32.5 t11 67.5v64v229h-418v84h418v61l-104 146h-359v82h301l-286 403q-43 61 -69 89t-91 42z" />
<glyph unicode="&#xa6;" d="M412 313h202v-655h-202v655zM412 641v723h202v-723h-202z" />
<glyph unicode="&#xa7;" horiz-adv-x="1325" d="M72 -12l174 266l22 -14q-2 -8 -6 -18.5t-4 -16.5q0 -27 19.5 -45.5t56.5 -38.5q74 -47 163 -67.5t191 -20.5q127 0 238.5 36.5t111.5 135.5q0 90 -300 127t-447.5 84t-147.5 246q0 86 44 151.5t122 110.5q-84 41 -125 98t-41 141q0 203 155 285t378 82q90 0 177 -18.5 t147.5 -40t82 -28.5t37.5 -9q14 0 45 26l23 -10l-137 -279l-23 11l6 35q0 43 -132 79.5t-220 36.5q-172 0 -252 -34.5t-80 -106.5q0 -76 284 -108.5t452.5 -91t168.5 -267.5q0 -88 -34.5 -158.5t-106.5 -109.5q76 -55 108.5 -106.5t32.5 -133.5q0 -209 -161.5 -295 t-391.5 -86q-164 0 -265 33t-292 129q-14 0 -22 -3t-31 -20zM350 686q0 -70 117 -94q76 -12 100 -14l289 -43q94 37 137 67.5t43 93.5q0 80 -57 102.5t-178 39.5l-262 28q-80 -29 -134.5 -70.5t-54.5 -109.5z" />
<glyph unicode="&#xa8;" d="M156 1337q0 59 42 101.5t101 42.5t101 -42t42 -102q0 -59 -42 -101t-101 -42t-101 42t-42 101zM580 1337q0 59 42 101.5t101 42.5t101 -42t42 -102q0 -59 -42 -101t-101 -42t-101 42t-42 101z" />
<glyph unicode="&#xa9;" horiz-adv-x="1646" d="M113 684q0 291 208.5 500t501.5 209t501 -208t208 -501t-207 -502t-502 -209q-293 0 -501.5 209t-208.5 502zM199 684q0 -258 183 -441.5t441 -183.5q256 0 440.5 182.5t184.5 442.5q0 256 -184.5 440.5t-440.5 184.5t-440 -184.5t-184 -440.5zM442 670 q0 172 108.5 284.5t280.5 112.5q45 0 97.5 -15.5t109.5 -31.5q14 0 22.5 6t24.5 41l37 4v-248h-37q-25 78 -81 130.5t-130 52.5q-109 0 -157.5 -100.5t-48.5 -221.5q0 -131 44 -224t156 -93q78 0 143.5 50t116.5 128v-94q-57 -70 -135 -111t-164 -41q-166 0 -276.5 102.5 t-110.5 268.5z" />
<glyph unicode="&#xaa;" horiz-adv-x="690" d="M55 598v86h598v-86h-598zM76 926q0 90 96 142t223 83v90q0 86 -82 86q-25 0 -55.5 -12t-30.5 -33q0 -10 14.5 -30.5t14.5 -34.5q0 -31 -25.5 -51.5t-56.5 -20.5q-35 0 -59.5 22.5t-24.5 59.5q0 72 83 110.5t163 38.5q102 0 159.5 -33.5t57.5 -130.5v-274v-25 q0 -39 18 -39q14 0 26.5 14.5t16.5 20.5l25 -16q-20 -39 -56 -62.5t-77 -23.5q-84 0 -111 88q-53 -43 -96 -65.5t-96 -22.5q-51 0 -89 33.5t-38 85.5zM238 958q0 -59 49 -65q33 0 52 10t56 43v156q-59 -16 -108 -53.5t-49 -90.5z" />
<glyph unicode="&#xab;" horiz-adv-x="653" d="M-2 582l195 401h172l-197 -401l197 -404h-172zM285 582l194 401h172l-196 -401l196 -404h-172z" />
<glyph unicode="&#xac;" d="M61 406v141h902v-547h-328v406h-574z" />
<glyph unicode="&#xad;" horiz-adv-x="1361" d="M377 416v340h33q8 -31 24.5 -47.5t46.5 -16.5h398q27 0 43 10.5t28 53.5h33v-340h-33q-8 31 -24.5 47t-46.5 16h-398q-27 0 -43 -10t-28 -53h-33z" />
<glyph unicode="&#xae;" horiz-adv-x="1646" d="M113 684q0 291 208.5 500t501.5 209t501 -208t208 -501t-207 -502t-502 -209q-293 0 -501.5 209t-208.5 502zM199 684q0 -258 183 -441.5t441 -183.5q256 0 440.5 182.5t184.5 442.5q0 256 -184.5 440.5t-440.5 184.5t-440 -184.5t-184 -440.5zM442 1016v41h412 q127 0 214 -44t87 -161q0 -72 -35 -114t-106 -74l155 -265q29 -49 88 -49v-39h-229l-203 355h-80v-238q0 -41 13.5 -59.5t54.5 -18.5h35v-39h-402v39q57 0 78 13.5t21 64.5v510q0 45 -11.5 61.5t-56.5 16.5h-35zM745 702q111 0 160 26t49 124q0 96 -51 121.5t-158 25.5v-297 z" />
<glyph unicode="&#xaf;" d="M233 1243v270h27q16 -66 74 -65h358q57 0 74 65h27v-270h-27q-16 63 -72 64h-360q-31 0 -47.5 -16.5t-26.5 -47.5h-27z" />
<glyph unicode="&#xb0;" horiz-adv-x="913" d="M250 1108q0 92 71.5 151.5t167.5 59.5q86 -8 141.5 -71.5t55.5 -147.5q0 -88 -61.5 -151.5t-151.5 -63.5q-92 0 -157.5 65.5t-65.5 157.5zM360 1087q4 -41 37 -66.5t76 -25.5t72.5 32t29.5 73q0 43 -28.5 77.5t-73.5 34.5q-51 0 -82 -36.5t-31 -88.5z" />
<glyph unicode="&#xb1;" d="M18 39v151h990v-151h-990zM18 670v151h414v410h158v-410h416v-151h-416v-396h-158v396h-414z" />
<glyph unicode="&#xb2;" horiz-adv-x="940" d="M61 508q0 209 98.5 286.5t283 159.5t184.5 166q0 53 -35 81t-92 28q-72 0 -158 -29t-92 -86q0 -6 3 -17.5t7 -25.5l-22 -22l-177 180l25 22q20 -12 37 -12q10 0 89 69.5t292 69.5q139 0 234.5 -63.5t95.5 -196.5q0 -172 -252 -279.5t-277 -133.5h504q29 0 39 36h33v-233 h-33q-10 37 -39 37h-659q-31 0 -39.5 -5t-14.5 -32h-35z" />
<glyph unicode="&#xb3;" horiz-adv-x="964" d="M59 612l105 230l33 -13l-4 -12q0 -63 107.5 -98t191.5 -35q82 0 147.5 21.5t65.5 85.5q0 74 -60.5 94t-152.5 20q-35 0 -55.5 -7t-26.5 -34h-35v211h35q12 -29 26.5 -36t46.5 -7q113 0 158 23.5t45 74.5q0 43 -42 71t-132 28q-66 0 -163 -24.5t-97 -74.5q0 -14 10 -28 l-26 -21l-154 179l27 18q20 -10 32 -10q88 43 192.5 77.5t180.5 34.5q137 0 246.5 -54t109.5 -179q0 -113 -98 -170q59 -20 96 -69.5t37 -110.5q0 -135 -121.5 -200t-273.5 -65q-111 0 -197 25l-180 66q-14 0 -26.5 -9.5t-18.5 -15.5z" />
<glyph unicode="&#xb4;" d="M328 1243v27q35 0 54 61.5t48 149.5q0 18 -29 22v27h295v-27q-18 -4 -29.5 -9t-21.5 -19l-135 -172q-2 -2 -4 -6.5t-2 -6.5q0 -20 24 -20v-27h-200z" />
<glyph unicode="&#xb5;" horiz-adv-x="1138" d="M92 -276q0 25 5 60.5t40 208.5t35 505v438h270v-588q0 -102 20.5 -178t92.5 -76q51 0 92 31t82 82v729h266v-666v-32q0 -61 15.5 -99.5t64.5 -38.5q10 0 29.5 4.5t32.5 6.5v-41l-263 -93l-14 -2q-47 0 -69.5 38t-45.5 106q-68 -72 -121 -111t-126 -39q-94 0 -144.5 40 t-87.5 132q0 -106 39 -232t45 -177q0 -57 -33.5 -95t-91.5 -38q-63 0 -98 32.5t-35 92.5z" />
<glyph unicode="&#xb6;" horiz-adv-x="1284" d="M100 1038q0 84 42 161t95.5 107.5t112 44t154.5 13.5h98h557v-66h-29q-80 0 -98 -20.5t-18 -93.5v-31v-1159l2 -41q0 -39 12 -49t43 -10h68v-66h-275v1466h-147v-1466h-320v66h86q41 0 61.5 12t20.5 51l2 47v698h-86q-53 0 -84.5 2.5t-103.5 25t-132.5 109.5t-60.5 199z M336 1022q0 -94 42 -170t128 -76h59v522q-135 0 -182 -53t-47 -223z" />
<glyph unicode="&#xb7;" horiz-adv-x="456" d="M68 569q0 66 46 114t113 48q68 0 115 -47t47 -115q0 -66 -47 -112.5t-115 -46.5q-66 0 -112.5 47t-46.5 112z" />
<glyph unicode="&#xb8;" d="M217 -346h45q84 0 147.5 19.5t63.5 82.5q0 41 -36 61.5t-81 20.5l-28 -2q45 37 80.5 75t78.5 89h86l-69 -88q72 -10 120 -44t48 -99q0 -96 -85 -133t-198 -37l-172 2v53z" />
<glyph unicode="&#xb9;" horiz-adv-x="479" d="M61 1061v229h35q2 -10 7.5 -22.5t15.5 -12.5q14 0 31.5 4.5t33.5 8.5q0 35 -6 47t-35 20v31h277v-31q-23 -6 -32 -12t-9 -25v-684q0 -16 11 -23t30 -13v-31h-277v31q41 8 41 36v502l-49 -10q-29 -8 -39 -45h-35z" />
<glyph unicode="&#xba;" horiz-adv-x="690" d="M47 598v86h598v-86h-598zM68 1092q0 123 76.5 203.5t201.5 80.5q121 0 199 -79.5t78 -204.5q0 -127 -76 -209t-201 -82t-201.5 81t-76.5 210zM236 1081q0 -98 19 -166.5t91 -68.5q57 0 76.5 41t26 83t6.5 120v32q0 92 -19.5 150.5t-89.5 58.5t-90 -62.5t-20 -154.5v-33z " />
<glyph unicode="&#xbb;" horiz-adv-x="655" d="M2 178l197 404l-197 401h172l195 -401l-195 -404h-172zM289 178l196 404l-196 401h172l194 -401l-194 -404h-172z" />
<glyph unicode="&#xbc;" horiz-adv-x="1859" d="M61 1061v229h35q2 -10 7.5 -22.5t15.5 -12.5q14 0 31.5 4.5t33.5 8.5q0 35 -6 47t-35 20v31h277v-31q-23 -6 -32 -12t-9 -25v-684q0 -16 11 -23t30 -13v-31h-277v31q41 8 41 36v502l-49 -10q-29 -8 -39 -45h-35zM248 -53l819 1419h68l-816 -1419h-71zM965 98v181l421 452 q10 12 16.5 19.5t8.5 15.5q0 16 -31 22v31h349v-31q-41 -8 -41 -36v-469h38q18 0 25.5 9t13.5 30h35v-224h-35q-12 39 -39 39h-38v-67q0 -29 41 -39v-31h-277v31q41 10 41 39v67h-438q-33 0 -43.5 -10t-14.5 -29h-32zM1192 283h301v327z" />
<glyph unicode="&#xbd;" horiz-adv-x="1843" d="M61 1061v229h35q2 -10 7.5 -22.5t15.5 -12.5q14 0 31.5 4.5t33.5 8.5q0 35 -6 47t-35 20v31h277v-31q-23 -6 -32 -12t-9 -25v-684q0 -16 11 -23t30 -13v-31h-277v31q41 8 41 36v502l-49 -10q-29 -8 -39 -45h-35zM248 -53l819 1419h68l-816 -1419h-71zM965 -37 q0 88 10 142.5t52 109.5t272.5 171t230.5 189q0 51 -37 80t-92 29q-70 0 -159 -29.5t-89 -87.5q0 -18 3 -25t7 -16l-22 -22l-176 180l24 23q20 -12 37 -13q10 0 89 70t292 70q137 0 232.5 -64.5t95.5 -196.5q0 -170 -252 -279.5t-275 -133.5h504q27 0 37 37h35v-234h-35 q-10 37 -37 37h-659q-31 0 -39 -5t-15 -32h-34z" />
<glyph unicode="&#xbe;" horiz-adv-x="2344" d="M59 612l105 230l33 -13l-4 -12q0 -63 107.5 -98t191.5 -35q82 0 147.5 21.5t65.5 85.5q0 74 -60.5 94t-152.5 20q-35 0 -55.5 -7t-26.5 -34h-35v211h35q12 -29 26.5 -36t46.5 -7q113 0 158 23.5t45 74.5q0 43 -42 71t-132 28q-66 0 -163 -24.5t-97 -74.5q0 -14 10 -28 l-26 -21l-154 179l27 18q20 -10 32 -10q88 43 192.5 77.5t180.5 34.5q135 0 245.5 -54t110.5 -177q0 -115 -98 -172q59 -20 96 -69.5t37 -110.5q0 -135 -121.5 -200t-273.5 -65q-111 0 -197 25l-180 66q-14 0 -26.5 -9.5t-18.5 -15.5zM733 -53l819 1419h68l-815 -1419h-72z M1450 98v181l422 452q10 12 16 19.5t8 15.5q0 16 -30 22v31h348v-31q-41 -8 -41 -36v-469h39q18 0 25.5 9t13.5 30h35v-224h-35q-12 39 -39 39h-39v-67q0 -29 41 -39v-31h-277v31q41 10 41 39v67h-438q-33 0 -43 -10t-14 -29h-33zM1675 283h303v327z" />
<glyph unicode="&#xbf;" horiz-adv-x="972" d="M76 262q0 139 144.5 292t144.5 249q0 27 -14.5 40t-45.5 19v33h330v-33q-43 -14 -55.5 -38.5t-23.5 -91t-109.5 -206t-98.5 -196.5q0 -61 48 -101.5t110 -40.5q68 0 142.5 40t74.5 102q0 16 -10 37l28 18l170 -252l-24 -18q-23 14 -39 14q-123 -61 -222.5 -107.5 t-187.5 -46.5q-145 0 -253.5 74t-108.5 213zM297 1221q0 66 47 112.5t113 46.5t113.5 -46t47.5 -113q0 -68 -47 -115t-114 -47q-66 0 -113 47t-47 115z" />
<glyph unicode="&#xc0;" horiz-adv-x="1828" d="M82 0v33q43 8 63.5 30.5t44.5 73.5l502 1051q10 18 17.5 37.5t7.5 38.5q0 51 -58 69v33h484v-33q-20 -6 -40 -18t-20 -41q0 -12 4.5 -26.5t14.5 -39.5l522 -1052q29 -59 52.5 -87t70.5 -36v-33h-502v33q31 4 48.5 16t17.5 39q0 37 -19 68l-94 192h-620l-93 -192 q-10 -25 -14 -36t-4 -26q0 -25 17.5 -39t47.5 -22v-33h-450zM666 535h446l-221 487zM678 1698v27h293v-27q-27 -4 -27 -22q0 -20 19.5 -74.5t34 -95.5t48.5 -41v-27h-200v27q25 0 24 16q-4 14 -6 17l-135 172q-18 23 -51 28z" />
<glyph unicode="&#xc1;" horiz-adv-x="1828" d="M82 0v33q43 8 63.5 30.5t44.5 73.5l502 1051q10 18 17.5 37.5t7.5 38.5q0 51 -58 69v33h484v-33q-20 -6 -40 -18t-20 -41q0 -12 4.5 -26.5t14.5 -39.5l522 -1052q29 -59 52.5 -87t70.5 -36v-33h-502v33q31 4 48.5 16t17.5 39q0 37 -19 68l-94 192h-620l-93 -192 q-10 -25 -14 -36t-4 -26q0 -25 17.5 -39t47.5 -22v-33h-450zM666 535h446l-221 487zM844 1438v27q35 0 54 61.5t48 149.5q0 18 -29 22v27h295v-27q-18 -4 -29.5 -9t-21.5 -19l-135 -172q-2 -2 -4 -6.5t-2 -6.5q0 -20 24 -20v-27h-200z" />
<glyph unicode="&#xc2;" horiz-adv-x="1828" d="M82 0v33q43 8 63.5 30.5t44.5 73.5l502 1051q10 18 17.5 37.5t7.5 38.5q0 51 -58 69v33h484v-33q-20 -6 -40 -18t-20 -41q0 -12 4.5 -26.5t14.5 -39.5l522 -1052q29 -59 52.5 -87t70.5 -36v-33h-502v33q31 4 48.5 16t17.5 39q0 37 -19 68l-94 192h-620l-93 -192 q-10 -25 -14 -36t-4 -26q0 -25 17.5 -39t47.5 -22v-33h-450zM598 1495v27q37 4 51 20l145 170q10 12 11 33q-6 10 -33 10v27h254v-27q-29 -6 -29 -18q0 -8 6 -17.5t8 -11.5l154 -166q18 -18 47 -20v-27h-260v27q31 6 31 14q0 10 -26.5 39t-84.5 90l-90 -108l-10 -19 q0 -10 31 -16v-27h-205zM666 535h446l-221 487z" />
<glyph unicode="&#xc3;" horiz-adv-x="1828" d="M82 0v33q43 8 63.5 30.5t44.5 73.5l502 1051q10 18 17.5 37.5t7.5 38.5q0 51 -58 69v33h484v-33q-20 -6 -40 -18t-20 -41q0 -12 4.5 -26.5t14.5 -39.5l522 -1052q29 -59 52.5 -87t70.5 -36v-33h-502v33q31 4 48.5 16t17.5 39q0 37 -19 68l-94 192h-620l-93 -192 q-10 -25 -14 -36t-4 -26q0 -25 17.5 -39t47.5 -22v-33h-450zM463 1559l14 18l19 -2q63 53 113 93t104 40q66 0 182 -50q117 -50 176 -50q18 0 39 15q20 15 20 34q0 18 -22 33l16 24l160 -94l-14 -25l-15 6q-4 1 -6 1q-10 0 -41 -36t-74 -68q-44 -32 -98 -32q-57 0 -184 51 q-127 50 -168 50q-20 0 -40 -14q-19 -13 -23 -33q0 -18 18 -33l-12 -23zM666 535h446l-221 487z" />
<glyph unicode="&#xc4;" horiz-adv-x="1828" d="M82 0v33q43 8 63.5 30.5t44.5 73.5l502 1051q10 18 17.5 37.5t7.5 38.5q0 51 -58 69v33h484v-33q-20 -6 -40 -18t-20 -41q0 -12 4.5 -26.5t14.5 -39.5l522 -1052q29 -59 52.5 -87t70.5 -36v-33h-502v33q31 4 48.5 16t17.5 39q0 37 -19 68l-94 192h-620l-93 -192 q-10 -25 -14 -36t-4 -26q0 -25 17.5 -39t47.5 -22v-33h-450zM570 1642q0 59 42 101.5t101 42.5t101 -42t42 -102q0 -59 -42 -101t-101 -42t-101 42t-42 101zM666 535h446l-221 487zM994 1642q0 59 42 101.5t101 42.5t101 -42t42 -102q0 -59 -42 -101t-101 -42t-101 42 t-42 101z" />
<glyph unicode="&#xc5;" horiz-adv-x="1828" d="M82 0v33q43 8 63.5 30.5t44.5 73.5l502 1051q10 18 17.5 37.5t7.5 38.5q0 51 -58 69v33h484v-33q-20 -6 -40 -18t-20 -41q0 -12 4.5 -26.5t14.5 -39.5l522 -1052q29 -59 52.5 -87t70.5 -36v-33h-502v33q31 4 48.5 16t17.5 39q0 37 -19 68l-94 192h-620l-93 -192 q-10 -25 -14 -36t-4 -26q0 -25 17.5 -39t47.5 -22v-33h-450zM666 535h446l-221 487zM674 1647q0 84 78 133t168 49q88 0 166 -48q79 -48 79 -134q0 -84 -78 -134q-77 -49 -167 -49t-168 49t-78 134zM793 1647q0 -43 40 -68t87 -25q45 0 86 25t41 68t-40 67q-40 25 -87 25 t-87 -24t-40 -68z" />
<glyph unicode="&#xc6;" horiz-adv-x="2484" d="M82 0v33q33 6 58.5 25.5t62.5 80.5l604 1049q20 37 26.5 52t6.5 34q0 20 -17.5 35.5t-42.5 23.5v33h1493q27 0 43.5 10t28.5 54h33v-353h-33q-8 31 -24.5 47.5t-47.5 16.5h-854v-324h553q33 0 49.5 15.5t24.5 48.5h31v-344h-31q-8 29 -25.5 46t-48.5 17h-553v-375h879 q55 0 72 66h32v-354h-32q-8 31 -24.5 47t-47.5 16h-1241v33q66 16 65 71v246h-489l-113 -194l-18 -37.5t-6 -28.5q0 -23 17 -37t42 -20v-33h-473zM741 537h381v604h-45z" />
<glyph unicode="&#xc7;" horiz-adv-x="1708" d="M82 684q0 336 232.5 521.5t576.5 185.5q182 0 356 -68q154 -76 307 -149q16 0 48 26l24 -18l-188 -285l-27 18q0 35 -3 51.5t-24 30.5q-94 80 -212.5 120t-247.5 40q-225 0 -381 -125t-156 -348t153.5 -349t383.5 -126q197 0 312.5 65.5t145 89t29.5 60.5v27l27 18 l188 -285l-24 -18q-10 8 -21.5 17.5t-26.5 9.5q-25 0 -47 -19q-199 -106 -321.5 -151.5t-294.5 -45.5q-346 0 -577.5 184.5t-231.5 522.5zM668 -254q0 72 51 111t127 39q86 0 140 -66t54 -152q0 -98 -64.5 -173.5t-166.5 -131.5v90q41 35 64.5 70t35.5 82l-65 -10 q-74 0 -125 34.5t-51 106.5z" />
<glyph unicode="&#xc8;" horiz-adv-x="1507" d="M82 0v33q31 8 47 24.5t16 46.5v1158q0 27 -10 43t-53 28v33h1216q31 0 47.5 15.5t24.5 48.5h33v-353h-33q-8 31 -24.5 47.5t-47.5 16.5h-856v-324h555q27 0 43.5 10.5t28.5 53.5h33v-344h-33q-8 31 -24.5 47t-47.5 16h-555v-375h879q57 0 74 66h30v-354h-30 q-8 29 -25.5 46t-48.5 17h-1239zM518 1700v27h293v-27q-27 -4 -27 -22q0 -20 19.5 -74.5t34 -95.5t48.5 -41v-27h-200v27q25 0 24 16q-4 14 -6 17l-135 172q-18 23 -51 28z" />
<glyph unicode="&#xc9;" horiz-adv-x="1507" d="M82 0v33q31 8 47 24.5t16 46.5v1158q0 27 -10 43t-53 28v33h1216q31 0 47.5 15.5t24.5 48.5h33v-353h-33q-8 31 -24.5 47.5t-47.5 16.5h-856v-324h555q27 0 43.5 10.5t28.5 53.5h33v-344h-33q-8 31 -24.5 47t-47.5 16h-555v-375h879q57 0 74 66h30v-354h-30 q-8 29 -25.5 46t-48.5 17h-1239zM664 1440v27q35 0 54 61.5t48 149.5q0 18 -29 22v27h295v-27q-18 -4 -29.5 -9t-21.5 -19l-135 -172q-2 -2 -4 -6.5t-2 -6.5q0 -20 24 -20v-27h-200z" />
<glyph unicode="&#xca;" horiz-adv-x="1507" d="M82 0v33q31 8 47 24.5t16 46.5v1158q0 27 -10 43t-53 28v33h1216q31 0 47.5 15.5t24.5 48.5h33v-353h-33q-8 31 -24.5 47.5t-47.5 16.5h-856v-324h555q27 0 43.5 10.5t28.5 53.5h33v-344h-33q-8 31 -24.5 47t-47.5 16h-555v-375h879q57 0 74 66h30v-354h-30 q-8 29 -25.5 46t-48.5 17h-1239zM467 1446v27q37 4 51 20l145 170q10 12 11 33q-6 10 -33 10v27h254v-27q-29 -6 -29 -18q0 -8 6 -17.5t8 -11.5l154 -166q18 -18 47 -20v-27h-260v27q31 6 31 14q0 10 -26.5 39t-84.5 90l-90 -108l-10 -19q0 -10 31 -16v-27h-205z" />
<glyph unicode="&#xcb;" horiz-adv-x="1507" d="M82 0v33q31 8 47 24.5t16 46.5v1158q0 27 -10 43t-53 28v33h1216q31 0 47.5 15.5t24.5 48.5h33v-353h-33q-8 31 -24.5 47.5t-47.5 16.5h-856v-324h555q27 0 43.5 10.5t28.5 53.5h33v-344h-33q-8 31 -24.5 47t-47.5 16h-555v-375h879q57 0 74 66h30v-354h-30 q-8 29 -25.5 46t-48.5 17h-1239zM461 1589q0 59 42 101.5t101 42.5t101 -42t42 -102q0 -59 -42 -101t-101 -42t-101 42t-42 101zM885 1589q0 59 42 101.5t101 42.5t101 -42t42 -102q0 -59 -42 -101t-101 -42t-101 42t-42 101z" />
<glyph unicode="&#xcc;" horiz-adv-x="589" d="M58 1698v27h293v-27q-27 -4 -27 -22q0 -20 19.5 -74.5t34 -95.5t48.5 -41v-27h-200v27q25 0 24 16q-4 14 -6 17l-135 172q-18 23 -51 28zM82 0v33q31 8 47 24.5t16 46.5v1158q0 31 -15 47t-48 24v33h426v-33q-66 -16 -66 -71v-1158q0 -55 66 -71v-33h-426z" />
<glyph unicode="&#xcd;" horiz-adv-x="589" d="M82 0v33q31 8 47 24.5t16 46.5v1158q0 31 -15 47t-48 24v33h426v-33q-66 -16 -66 -71v-1158q0 -55 66 -71v-33h-426zM183 1438v27q35 0 54 61.5t48 149.5q0 18 -29 22v27h295v-27q-18 -4 -29.5 -9t-21.5 -19l-135 -172q-2 -2 -4 -6.5t-2 -6.5q0 -20 24 -20v-27h-200z" />
<glyph unicode="&#xce;" horiz-adv-x="589" d="M19 1446v27q37 4 51 20l145 170q10 12 11 33q-6 10 -33 10v27h254v-27q-29 -6 -29 -18q0 -8 6 -17.5t8 -11.5l154 -166q18 -18 47 -20v-27h-260v27q31 6 31 14q0 10 -26.5 39t-84.5 90l-90 -108l-10 -19q0 -10 31 -16v-27h-205zM82 0v33q31 8 47 24.5t16 46.5v1158 q0 31 -15 47t-48 24v33h426v-33q-66 -16 -66 -71v-1158q0 -55 66 -71v-33h-426z" />
<glyph unicode="&#xcf;" horiz-adv-x="589" d="M-49 1589q0 59 42 101.5t101 42.5t101 -42t42 -102q0 -59 -42 -101t-101 -42t-101 42t-42 101zM82 0v33q31 8 47 24.5t16 46.5v1158q0 31 -15 47t-48 24v33h426v-33q-66 -16 -66 -71v-1158q0 -55 66 -71v-33h-426zM375 1589q0 59 42 101.5t101 42.5t101 -42t42 -102 q0 -59 -42 -101t-101 -42t-101 42t-42 101z" />
<glyph unicode="&#xd0;" horiz-adv-x="1665" d="M-14 522v324h30q10 -27 25.5 -45.5t40.5 -18.5h63v480q0 31 -15 47t-48 24v31l760 2q168 0 296 -28.5t234.5 -121t158.5 -231.5t52 -303q0 -160 -52 -301t-158.5 -230.5t-236.5 -120t-294 -30.5h-760v33q31 8 47 24.5t16 46.5v482h-55q-27 0 -45 -13.5t-27 -50.5h-32z M442 225h375q233 0 347 112t114 345q0 236 -111.5 347.5t-349.5 111.5h-375v-361h191q45 0 66.5 12.5t35.5 53.5h33v-324h-27q-16 39 -35.5 51.5t-52.5 12.5h-211v-361z" />
<glyph unicode="&#xd1;" horiz-adv-x="1701" d="M82 0v33q31 8 47 24.5t16 46.5v1158q0 31 -15 47t-48 24v33h465v-33q-20 -6 -31.5 -15t-11.5 -30q0 -14 8 -27.5t18 -25.5l754 -784v811q0 55 -65 71v33h401v-33q-31 -8 -47.5 -24.5t-16.5 -46.5v-1158q0 -31 15.5 -47t48.5 -24v-33h-428v33q25 6 32 13t9 24 q0 18 -11.5 33.5t-37.5 41.5l-764 791v-832q0 -31 15.5 -47t47.5 -24v-33h-401zM492 1559l14 18l18 -2q63 53 114 93q50 40 103 40q66 0 183 -50t176 -50q18 0 39 15q20 15 20 34q0 18 -22 33l16 24l160 -94l-15 -25q-10 4 -14 6q-4 1 -6 1q-10 0 -41 -36t-75 -68t-97 -32 q-57 0 -184 51q-127 50 -168 50q-20 0 -40 -14q-19 -13 -24 -33q0 -18 19 -33l-13 -23z" />
<glyph unicode="&#xd2;" horiz-adv-x="1732" d="M82 682q0 326 226.5 516.5t557.5 190.5q115 0 220.5 -20.5t234.5 -88.5t229.5 -235.5t100.5 -362.5q0 -326 -226.5 -516.5t-558.5 -190.5q-115 0 -219 19.5t-234 88.5t-230.5 236.5t-100.5 362.5zM387 682q0 -205 136 -339t343 -134q205 0 342.5 133t137.5 340 q0 211 -135.5 342t-344.5 131q-207 0 -343 -132t-136 -341zM631 1698v27h293v-27q-27 -4 -27 -22q0 -20 19.5 -74.5t34 -95.5t48.5 -41v-27h-200v27q25 0 24 16q-4 14 -6 17l-135 172q-18 23 -51 28z" />
<glyph unicode="&#xd3;" horiz-adv-x="1732" d="M82 682q0 326 226.5 516.5t557.5 190.5q115 0 220.5 -20.5t234.5 -88.5t229.5 -235.5t100.5 -362.5q0 -326 -226.5 -516.5t-558.5 -190.5q-115 0 -219 19.5t-234 88.5t-230.5 236.5t-100.5 362.5zM387 682q0 -205 136 -339t343 -134q205 0 342.5 133t137.5 340 q0 211 -135.5 342t-344.5 131q-207 0 -343 -132t-136 -341zM795 1438v27q35 0 54 61.5t48 149.5q0 18 -29 22v27h295v-27q-18 -4 -29.5 -9t-21.5 -19l-135 -172q-2 -2 -4 -6.5t-2 -6.5q0 -20 24 -20v-27h-200z" />
<glyph unicode="&#xd4;" horiz-adv-x="1732" d="M82 682q0 326 226.5 516.5t557.5 190.5q115 0 220.5 -20.5t234.5 -88.5t229.5 -235.5t100.5 -362.5q0 -326 -226.5 -516.5t-558.5 -190.5q-115 0 -219 19.5t-234 88.5t-230.5 236.5t-100.5 362.5zM387 682q0 -205 136 -339t343 -134q205 0 342.5 133t137.5 340 q0 211 -135.5 342t-344.5 131q-207 0 -343 -132t-136 -341zM580 1476v27q37 4 51 20l145 170q10 12 11 33q-6 10 -33 10v27h254v-27q-29 -6 -29 -18q0 -8 6 -17.5t8 -11.5l154 -166q18 -18 47 -20v-27h-260v27q31 6 31 14q0 10 -26.5 39t-84.5 90l-90 -108l-10 -19 q0 -10 31 -16v-27h-205z" />
<glyph unicode="&#xd5;" horiz-adv-x="1732" d="M82 682q0 326 226.5 516.5t557.5 190.5q115 0 220.5 -20.5t234.5 -88.5t229.5 -235.5t100.5 -362.5q0 -326 -226.5 -516.5t-558.5 -190.5q-115 0 -219 19.5t-234 88.5t-230.5 236.5t-100.5 362.5zM387 682q0 -205 136 -339t343 -134q205 0 342.5 133t137.5 340 q0 211 -135.5 342t-344.5 131q-207 0 -343 -132t-136 -341zM518 1559l14 18l19 -2q63 53 114 93q50 40 103 40q66 0 182 -50q117 -50 176 -50q18 0 39 15q20 15 21 34q0 18 -23 33l17 24l159 -94l-14 -25q-10 4 -14 6q-4 1 -6 1q-10 0 -41 -36t-75 -68t-97 -32 q-57 0 -185 51q-127 50 -168 50q-20 0 -40 -14q-19 -13 -23 -33q0 -18 18 -33l-12 -23z" />
<glyph unicode="&#xd6;" horiz-adv-x="1732" d="M82 682q0 326 226.5 516.5t557.5 190.5q115 0 220.5 -20.5t234.5 -88.5t229.5 -235.5t100.5 -362.5q0 -326 -226.5 -516.5t-558.5 -190.5q-115 0 -219 19.5t-234 88.5t-230.5 236.5t-100.5 362.5zM387 682q0 -205 136 -339t343 -134q205 0 342.5 133t137.5 340 q0 211 -135.5 342t-344.5 131q-207 0 -343 -132t-136 -341zM564 1642q0 59 42 101.5t101 42.5t101 -42t42 -102q0 -59 -42 -101t-101 -42t-101 42t-42 101zM988 1642q0 59 42 101.5t101 42.5t101 -42t42 -102q0 -59 -42 -101t-101 -42t-101 42t-42 101z" />
<glyph unicode="&#xd7;" d="M96 432l310 307l-306 301l109 109l301 -305l305 309l113 -113l-310 -305l308 -303l-109 -108l-303 307l-307 -309z" />
<glyph unicode="&#xd8;" horiz-adv-x="1732" d="M82 682q0 326 226.5 516.5t557.5 190.5q111 0 206 -17.5t188 -58.5q16 16 27 36.5t11 39.5q0 35 -23.5 51t-47.5 22v39h422v-39q-90 -10 -153.5 -95t-102.5 -140q117 -78 187.5 -235.5t70.5 -309.5q0 -330 -224.5 -518.5t-560.5 -188.5q-115 0 -203 15.5t-182 58.5 q-20 -27 -32.5 -45t-12.5 -41q0 -27 19.5 -41t52.5 -20v-39h-424v39q66 10 103.5 42.5t156.5 188.5q-123 96 -192.5 242.5t-69.5 306.5zM387 682q0 -199 127 -332l586 754q-102 51 -234 51q-207 0 -343 -132t-136 -341zM643 256q100 -47 223 -47q209 0 344.5 131t135.5 342 q0 90 -31 176t-90 152z" />
<glyph unicode="&#xd9;" horiz-adv-x="1642" d="M82 1333v33h426v-33q-29 -8 -46.5 -25.5t-17.5 -47.5v-680v-43q0 -82 11.5 -134.5t59.5 -101.5t131 -70.5t188 -21.5q205 0 297 72.5t92 267.5v31v680q0 31 -15.5 48t-48.5 25v33h404v-33q-66 -16 -66 -73v-764q0 -303 -173 -412t-503 -109q-326 0 -501 107.5t-175 413.5 v764q0 31 -15 48t-48 25zM586 1698v27h293v-27q-27 -4 -27 -22q0 -20 19.5 -74.5t34 -95.5t48.5 -41v-27h-200v27q25 0 24 16q-4 14 -6 17l-135 172q-18 23 -51 28z" />
<glyph unicode="&#xda;" horiz-adv-x="1642" d="M82 1333v33h426v-33q-29 -8 -46.5 -25.5t-17.5 -47.5v-680v-43q0 -82 11.5 -134.5t59.5 -101.5t131 -70.5t188 -21.5q205 0 297 72.5t92 267.5v31v680q0 31 -15.5 48t-48.5 25v33h404v-33q-66 -16 -66 -73v-764q0 -303 -173 -412t-503 -109q-326 0 -501 107.5t-175 413.5 v764q0 31 -15 48t-48 25zM742 1438v27q35 0 54 61.5t48 149.5q0 18 -29 22v27h295v-27q-18 -4 -29.5 -9t-21.5 -19l-135 -172q-2 -2 -4 -6.5t-2 -6.5q0 -20 24 -20v-27h-200z" />
<glyph unicode="&#xdb;" horiz-adv-x="1642" d="M82 1333v33h426v-33q-29 -8 -46.5 -25.5t-17.5 -47.5v-680v-43q0 -82 11.5 -134.5t59.5 -101.5t131 -70.5t188 -21.5q205 0 297 72.5t92 267.5v31v680q0 31 -15.5 48t-48.5 25v33h404v-33q-66 -16 -66 -73v-764q0 -303 -173 -412t-503 -109q-326 0 -501 107.5t-175 413.5 v764q0 31 -15 48t-48 25zM535 1444v27q37 4 51 20l145 170q10 12 11 33q-6 10 -33 10v27h254v-27q-29 -6 -29 -18q0 -8 6 -17.5t8 -11.5l154 -166q18 -18 47 -20v-27h-260v27q31 6 31 14q0 10 -26.5 39t-84.5 90l-90 -108l-10 -19q0 -10 31 -16v-27h-205z" />
<glyph unicode="&#xdc;" horiz-adv-x="1642" d="M82 1333v33h426v-33q-29 -8 -46.5 -25.5t-17.5 -47.5v-680v-43q0 -82 11.5 -134.5t59.5 -101.5t131 -70.5t188 -21.5q205 0 297 72.5t92 267.5v31v680q0 31 -15.5 48t-48.5 25v33h404v-33q-66 -16 -66 -73v-764q0 -303 -173 -412t-503 -109q-326 0 -501 107.5t-175 413.5 v764q0 31 -15 48t-48 25zM518 1642q0 59 42 101.5t101 42.5t101 -42t42 -102q0 -59 -42 -101t-101 -42t-101 42t-42 101zM942 1642q0 59 42 101.5t101 42.5t101 -42t42 -102q0 -59 -42 -101t-101 -42t-101 42t-42 101z" />
<glyph unicode="&#xdd;" horiz-adv-x="1679" d="M82 1333v33h541v-33q-27 -4 -45.5 -16t-22.5 -37q0 -23 12 -45q20 -29 29 -43l246 -367l252 367q27 35 34 48t7 32q0 25 -18.5 41t-47.5 20v33h528v-33q-53 -6 -86.5 -39.5t-80.5 -101.5l-443 -621v-467q0 -29 17.5 -46t50.5 -25v-33h-430v33q66 16 65 71v467l-440 621 q-55 76 -84 105.5t-84 35.5zM768 1438v27q35 0 54 61.5t48 149.5q0 18 -29 22v27h295v-27q-18 -4 -29.5 -9t-21.5 -19l-135 -172q-2 -2 -4 -6.5t-2 -6.5q0 -20 24 -20v-27h-200z" />
<glyph unicode="&#xde;" horiz-adv-x="1552" d="M82 0v33q31 8 47 24.5t16 46.5v1158q0 31 -15 47t-48 24v33h426v-33q-66 -18 -66 -76v-55h492q133 0 224 -16.5t164 -71.5t110.5 -140t37.5 -177q0 -94 -36.5 -179.5t-110.5 -138.5t-169 -70.5t-220 -17.5h-492v-287q0 -55 66 -71v-33h-426zM442 614h457q117 0 191.5 39 t74.5 144q0 104 -64.5 142t-178.5 38h-23h-457v-363z" />
<glyph unicode="&#xdf;" horiz-adv-x="2478" d="M72 76l114 274l27 -10q0 -84 156.5 -123t279.5 -39q104 0 198.5 29t94.5 108q0 92 -279.5 117t-425 73t-145.5 273q0 186 158 275.5t360 89.5q121 0 254 -41q125 -47 250 -92q12 0 22.5 6t20.5 14l25 -12l-135 -260l-25 12q0 76 -145.5 123t-251.5 47 q-100 0 -193.5 -27.5t-103.5 -103.5q0 -86 280.5 -116.5t437 -84t156.5 -270.5q0 -186 -168 -274.5t-372 -88.5q-127 0 -247 22.5t-231 74.5q-25 8 -47 18q-20 0 -41 -24zM1276 76l115 274l26 -10v-12q0 -25 15.5 -38.5t67.5 -41t158.5 -49t194.5 -21.5q104 0 198.5 29 t94.5 108q0 70 -75.5 91.5t-169.5 21.5q-266 0 -435.5 63.5t-169.5 286.5q0 186 158 275.5t363 89.5q121 0 254 -41q125 -47 249 -92q16 0 41 20l25 -12l-135 -260l-25 12q0 27 -13 43t-101.5 71.5t-282.5 55.5q-98 0 -192.5 -28.5t-104.5 -102.5q0 -86 281.5 -116.5 t437 -84t155.5 -270.5q0 -188 -166.5 -275.5t-371.5 -87.5q-127 0 -247 22.5t-232 74.5q-25 8 -48 18q-20 0 -41 -24z" />
<glyph unicode="&#xe0;" horiz-adv-x="1562" d="M72 0v27q39 6 58.5 27.5t41.5 64.5l410 827q8 16 15 34.5t7 45.5q0 25 -15.5 40t-41.5 26v26h436v-26q-23 -8 -39 -24.5t-16 -37.5q0 -25 5 -43t19 -45l424 -803q20 -39 42 -70.5t75 -41.5v-27h-457v27q23 4 43.5 15t20.5 44q0 45 -30 96t-56 99h-514 q-25 -47 -52.5 -102.5t-27.5 -92.5q0 -23 19.5 -38t43.5 -21v-27h-411zM575 436h357l-182 361zM639 1503v27h293v-27q-27 -4 -27 -22q0 -20 19.5 -74.5t34 -95.5t48.5 -41v-27h-200v27q25 0 24 16q-4 14 -6 17l-135 172q-18 23 -51 28z" />
<glyph unicode="&#xe1;" horiz-adv-x="1562" d="M72 0v27q39 6 58.5 27.5t41.5 64.5l410 827q8 16 15 34.5t7 45.5q0 25 -15.5 40t-41.5 26v26h436v-26q-23 -8 -39 -24.5t-16 -37.5q0 -25 5 -43t19 -45l424 -803q20 -39 42 -70.5t75 -41.5v-27h-457v27q23 4 43.5 15t20.5 44q0 45 -30 96t-56 99h-514 q-25 -47 -52.5 -102.5t-27.5 -92.5q0 -23 19.5 -38t43.5 -21v-27h-411zM575 436h357l-182 361zM670 1243v27q35 0 54 61.5t48 149.5q0 18 -29 22v27h295v-27q-18 -4 -29.5 -9t-21.5 -19l-135 -172q-2 -2 -4 -6.5t-2 -6.5q0 -20 24 -20v-27h-200z" />
<glyph unicode="&#xe2;" horiz-adv-x="1562" d="M72 0v27q39 6 58.5 27.5t41.5 64.5l410 827q8 16 15 34.5t7 45.5q0 25 -15.5 40t-41.5 26v26h436v-26q-23 -8 -39 -24.5t-16 -37.5q0 -25 5 -43t19 -45l424 -803q20 -39 42 -70.5t75 -41.5v-27h-457v27q23 4 43.5 15t20.5 44q0 45 -30 96t-56 99h-514 q-25 -47 -52.5 -102.5t-27.5 -92.5q0 -23 19.5 -38t43.5 -21v-27h-411zM455 1243v27q37 4 51 20l145 170q10 12 11 33q-6 10 -33 10v27h254v-27q-29 -6 -29 -18q0 -8 6 -17.5t8 -11.5l154 -166q18 -18 47 -20v-27h-260v27q31 6 31 14q0 10 -26.5 39t-84.5 90l-90 -108 l-10 -19q0 -10 31 -16v-27h-205zM575 436h357l-182 361z" />
<glyph unicode="&#xe3;" horiz-adv-x="1562" d="M72 0v27q39 6 58.5 27.5t41.5 64.5l410 827q8 16 15 34.5t7 45.5q0 25 -15.5 40t-41.5 26v26h436v-26q-23 -8 -39 -24.5t-16 -37.5q0 -25 5 -43t19 -45l424 -803q20 -39 42 -70.5t75 -41.5v-27h-457v27q23 4 43.5 15t20.5 44q0 45 -30 96t-56 99h-514 q-25 -47 -52.5 -102.5t-27.5 -92.5q0 -23 19.5 -38t43.5 -21v-27h-411zM362 1323l15 18l18 -2q63 53 114 94q50 40 103 40q66 0 183 -51q117 -50 176 -50q18 0 39 16q20 15 20 33t-22 33l16 25l160 -95l-15 -24q-10 4 -14 5t-6 1q-10 0 -41 -36t-75 -67q-44 -32 -97 -32 q-57 0 -184 50t-168 50q-20 0 -40 -13q-19 -13 -24 -34q0 -18 19 -33l-13 -22zM575 436h357l-182 361z" />
<glyph unicode="&#xe4;" horiz-adv-x="1562" d="M72 0v27q39 6 58.5 27.5t41.5 64.5l410 827q8 16 15 34.5t7 45.5q0 25 -15.5 40t-41.5 26v26h436v-26q-23 -8 -39 -24.5t-16 -37.5q0 -25 5 -43t19 -45l424 -803q20 -39 42 -70.5t75 -41.5v-27h-457v27q23 4 43.5 15t20.5 44q0 45 -30 96t-56 99h-514 q-25 -47 -52.5 -102.5t-27.5 -92.5q0 -23 19.5 -38t43.5 -21v-27h-411zM437 1349q0 59 42 101.5t101 42.5t101 -42t42 -102q0 -59 -42 -101t-101 -42t-101 42t-42 101zM575 436h357l-182 361zM861 1349q0 59 42 101.5t101 42.5t101 -42t42 -102q0 -59 -42 -101t-101 -42 t-101 42t-42 101z" />
<glyph unicode="&#xe5;" horiz-adv-x="1562" d="M72 0v27q39 6 58.5 27.5t41.5 64.5l410 827q8 16 15 34.5t7 45.5q0 25 -15.5 40t-41.5 26v26h436v-26q-23 -8 -39 -24.5t-16 -37.5q0 -25 5 -43t19 -45l424 -803q20 -39 42 -70.5t75 -41.5v-27h-457v27q23 4 43.5 15t20.5 44q0 45 -30 96t-56 99h-514 q-25 -47 -52.5 -102.5t-27.5 -92.5q0 -23 19.5 -38t43.5 -21v-27h-411zM539 1386q0 84 77 134q78 49 168 49q88 0 167 -48t79 -135q0 -84 -78 -133t-168 -49t-168 49t-77 133zM575 436h357l-182 361zM657 1386q0 -43 40 -67q40 -25 87 -25q45 0 86 25t41 67q0 43 -40 68 t-87 25t-87 -24t-40 -69z" />
<glyph unicode="&#xe6;" horiz-adv-x="2117" d="M72 0v29q43 6 62.5 24.5t49.5 65.5l502 825q14 25 25.5 47.5t11.5 40.5q0 25 -15.5 37t-43.5 23v28h1251q55 0 76 64h26v-332h-26q-16 63 -76 63h-680v-243h422q33 0 49 15t25 48h28v-323h-28q-16 66 -74 65h-422v-272h711q55 0 75 63h27v-331h-27q-20 63 -75 63h-1043 v29q63 16 64 73v179h-406q-39 -57 -71.5 -108.5t-32.5 -84.5q0 -49 55 -59v-29h-440zM659 436h308v479h-33z" />
<glyph unicode="&#xe7;" horiz-adv-x="1431" d="M68 563q0 281 196.5 433.5t483.5 152.5q186 0 342 -72q61 -35 122.5 -68.5t79.5 -37.5q25 0 45 16l25 -18l-172 -250l-25 18l4 29q0 31 -41 57.5t-98 53t-129 41t-143 14.5q-164 0 -287 -103.5t-123 -265.5q0 -160 123 -264t287 -104q82 0 156.5 16t137 49t90 52.5 t27.5 45.5l-4 31l25 19l172 -250l-25 -21q-18 18 -41 19q-127 -70 -270 -124.5t-278 -54.5q-291 0 -485.5 152t-194.5 434zM547 -242q0 70 45 104t117 34q78 0 127 -59.5t49 -141.5q0 -88 -59.5 -155.5t-151.5 -119.5v82q70 57 92 140q-20 -4 -35.5 -7.5t-25.5 -3.5 q-68 0 -113 32t-45 95z" />
<glyph unicode="&#xe8;" horiz-adv-x="1286" d="M72 0v29q63 16 63 73v916q0 57 -63 74v28h1011q55 0 76 64h27v-332h-27q-20 63 -76 63h-680v-243h422q33 0 49.5 15t26.5 48h27v-323h-29q-16 66 -74 65h-422v-272h711q55 0 76 63h27v-331h-27q-16 63 -76 63h-1042zM531 1503v27h293v-27q-27 -4 -27 -22 q0 -20 19.5 -74.5t34 -95.5t48.5 -41v-27h-200v27q25 0 24 16q-4 14 -6 17l-135 172q-18 23 -51 28z" />
<glyph unicode="&#xe9;" horiz-adv-x="1286" d="M72 0v29q63 16 63 73v916q0 57 -63 74v28h1011q55 0 76 64h27v-332h-27q-20 63 -76 63h-680v-243h422q33 0 49.5 15t26.5 48h27v-323h-29q-16 66 -74 65h-422v-272h711q55 0 76 63h27v-331h-27q-16 63 -76 63h-1042zM531 1243v27q35 0 54 61.5t48 149.5q0 18 -29 22v27 h295v-27q-18 -4 -29.5 -9t-21.5 -19l-135 -172q-2 -2 -4 -6.5t-2 -6.5q0 -20 24 -20v-27h-200z" />
<glyph unicode="&#xea;" horiz-adv-x="1286" d="M72 0v29q63 16 63 73v916q0 57 -63 74v28h1011q55 0 76 64h27v-332h-27q-20 63 -76 63h-680v-243h422q33 0 49.5 15t26.5 48h27v-323h-29q-16 66 -74 65h-422v-272h711q55 0 76 63h27v-331h-27q-16 63 -76 63h-1042zM346 1243v27q37 4 51 20l145 170q10 12 11 33 q-6 10 -33 10v27h254v-27q-29 -6 -29 -18q0 -8 6 -17.5t8 -11.5l154 -166q18 -18 47 -20v-27h-260v27q31 6 31 14q0 10 -26.5 39t-84.5 90l-90 -108l-10 -19q0 -10 31 -16v-27h-205z" />
<glyph unicode="&#xeb;" horiz-adv-x="1286" d="M72 0v29q63 16 63 73v916q0 57 -63 74v28h1011q55 0 76 64h27v-332h-27q-20 63 -76 63h-680v-243h422q33 0 49.5 15t26.5 48h27v-323h-29q-16 66 -74 65h-422v-272h711q55 0 76 63h27v-331h-27q-16 63 -76 63h-1042zM330 1339q0 59 42 101.5t101 42.5t101 -42t42 -102 q0 -59 -42 -101t-101 -42t-101 42t-42 101zM754 1339q0 59 42 101.5t101 42.5t101 -42t42 -102q0 -59 -42 -101t-101 -42t-101 42t-42 101z" />
<glyph unicode="&#xec;" horiz-adv-x="538" d="M72 0v27q63 16 63 75v916q0 57 -63 74v26h395v-26q-63 -18 -64 -74v-916q0 -31 16 -48q15 -17 48 -27v-27h-395zM158 1503v27h293v-27q-27 -4 -27 -22q0 -20 19.5 -74.5t34 -95.5t48.5 -41v-27h-200v27q25 0 24 16q-4 14 -6 17l-135 172q-18 23 -51 28z" />
<glyph unicode="&#xed;" horiz-adv-x="538" d="M72 0v27q63 16 63 75v916q0 57 -63 74v26h395v-26q-63 -18 -64 -74v-916q0 -31 16 -48q15 -17 48 -27v-27h-395zM158 1243v27q35 0 54 61.5t48 149.5q0 18 -29 22v27h295v-27q-18 -4 -29.5 -9t-21.5 -19l-135 -172q-2 -2 -4 -6.5t-2 -6.5q0 -20 24 -20v-27h-200z" />
<glyph unicode="&#xee;" horiz-adv-x="538" d="M4 1292v27q37 4 51 20l145 170q10 12 11 33q-6 10 -33 10v27h254v-27q-29 -6 -29 -18q0 -8 6 -17.5t8 -11.5l154 -166q18 -18 47 -20v-27h-260v27q31 6 31 14q0 10 -26.5 39t-84.5 90l-90 -108l-10 -19q0 -10 31 -16v-27h-205zM72 0v27q63 16 63 75v916q0 57 -63 74v26 h395v-26q-63 -18 -64 -74v-916q0 -31 16 -48q15 -17 48 -27v-27h-395z" />
<glyph unicode="&#xef;" horiz-adv-x="538" d="M-63 1386q0 59 42 101.5t101 42.5t101 -42t42 -102q0 -59 -42 -101t-101 -42t-101 42t-42 101zM72 0v27q63 16 63 75v916q0 57 -63 74v26h395v-26q-63 -18 -64 -74v-916q0 -31 16 -48q15 -17 48 -27v-27h-395zM361 1386q0 59 42 101.5t101 42.5t101 -42t42 -102 q0 -59 -42 -101t-101 -42t-101 42t-42 101z" />
<glyph unicode="&#xf0;" horiz-adv-x="1067" d="M70 461q0 195 126 339t318 144q45 0 68.5 -7t136.5 -63q-37 92 -83 172t-112 158l-159 -135l-41 47l157 135q-92 70 -182 140l18 39q121 -41 236 -117l160 133l41 -47l-148 -125q184 -143 288.5 -360.5t104.5 -452.5q0 -205 -132 -349.5t-337 -144.5t-332.5 142.5 t-127.5 351.5zM342 457q0 -162 36 -295t154 -133q123 0 159 130t36 298q0 117 -11 205t-41 136t-65 66.5t-75 18.5q-93 0 -138 -84q-31 -61 -43 -153.5t-12 -188.5z" />
<glyph unicode="&#xf1;" horiz-adv-x="1468" d="M72 0v27q63 16 63 75v916q0 57 -63 74v26h430v-26q-23 -4 -34 -12.5t-11 -26.5q0 -16 6 -25.5t26 -32.5l601 -594v617q0 57 -64 74v26h373v-26q-66 -16 -66 -74v-916q0 -55 66 -75v-27h-402v27q14 2 28.5 9t14.5 25q0 29 -29.5 55.5t-37.5 35.5l-594 585v-635 q0 -55 65 -75v-27h-372zM293 1323l14 18l19 -2q63 53 113 94q50 40 104 40q66 0 182 -51q117 -50 176 -50q18 0 39 16q20 15 21 33q0 18 -23 33l16 25l160 -95l-14 -24q-10 4 -15 5q-4 1 -6 1q-10 0 -41 -36t-74 -67q-44 -32 -98 -32q-57 0 -184 50t-168 50q-20 0 -40 -13 q-19 -13 -23 -34q0 -18 18 -33l-12 -22z" />
<glyph unicode="&#xf2;" horiz-adv-x="1456" d="M72 559q0 272 189.5 428t467.5 156q276 0 465.5 -156t189.5 -428q0 -270 -190.5 -427t-464.5 -157q-279 0 -468 156t-189 428zM348 559q0 -164 108.5 -268.5t272.5 -104.5q162 0 271.5 105.5t109.5 267.5q0 164 -108.5 268.5t-272.5 104.5t-272.5 -104.5t-108.5 -268.5z M617 1501v27h293v-27q-27 -4 -27 -22q0 -20 19.5 -74.5t34 -95.5t48.5 -41v-27h-200v27q25 0 24 16q-4 14 -6 17l-135 172q-18 23 -51 28z" />
<glyph unicode="&#xf3;" horiz-adv-x="1456" d="M72 559q0 272 189.5 428t467.5 156q276 0 465.5 -156t189.5 -428q0 -270 -190.5 -427t-464.5 -157q-279 0 -468 156t-189 428zM348 559q0 -164 108.5 -268.5t272.5 -104.5q162 0 271.5 105.5t109.5 267.5q0 164 -108.5 268.5t-272.5 104.5t-272.5 -104.5t-108.5 -268.5z M617 1241v27q35 0 54 61.5t48 149.5q0 18 -29 22v27h295v-27q-18 -4 -29.5 -9t-21.5 -19l-135 -172q-2 -2 -4 -6.5t-2 -6.5q0 -20 24 -20v-27h-200z" />
<glyph unicode="&#xf4;" horiz-adv-x="1456" d="M72 559q0 272 189.5 428t467.5 156q276 0 465.5 -156t189.5 -428q0 -270 -190.5 -427t-464.5 -157q-279 0 -468 156t-189 428zM348 559q0 -164 108.5 -268.5t272.5 -104.5q162 0 271.5 105.5t109.5 267.5q0 164 -108.5 268.5t-272.5 104.5t-272.5 -104.5t-108.5 -268.5z M451 1241v27q37 4 51 20l145 170q10 12 11 33q-6 10 -33 10v27h254v-27q-29 -6 -29 -18q0 -8 6 -17.5t8 -11.5l154 -166q18 -18 47 -20v-27h-260v27q31 6 31 14q0 10 -26.5 39t-84.5 90l-90 -108l-10 -19q0 -10 31 -16v-27h-205z" />
<glyph unicode="&#xf5;" horiz-adv-x="1456" d="M72 559q0 272 189.5 428t467.5 156q276 0 465.5 -156t189.5 -428q0 -270 -190.5 -427t-464.5 -157q-279 0 -468 156t-189 428zM348 559q0 -164 108.5 -268.5t272.5 -104.5q162 0 271.5 105.5t109.5 267.5q0 164 -108.5 268.5t-272.5 104.5t-272.5 -104.5t-108.5 -268.5z M348 1323l14 18l19 -2q63 53 114 94q50 40 103 40q66 0 182 -51q117 -50 176 -50q18 0 39 16q20 15 21 33q0 18 -23 33l17 25l159 -95l-14 -24q-10 4 -14 5t-6 1q-10 0 -41 -36t-75 -67q-44 -32 -97 -32q-57 0 -185 50q-127 50 -168 50q-20 0 -40 -13q-19 -13 -23 -34 q0 -18 18 -33l-12 -22z" />
<glyph unicode="&#xf6;" horiz-adv-x="1456" d="M72 559q0 272 189.5 428t467.5 156q276 0 465.5 -156t189.5 -428q0 -270 -190.5 -427t-464.5 -157q-279 0 -468 156t-189 428zM348 559q0 -164 108.5 -268.5t272.5 -104.5q162 0 271.5 105.5t109.5 267.5q0 164 -108.5 268.5t-272.5 104.5t-272.5 -104.5t-108.5 -268.5z M396 1349q0 59 42 101.5t101 42.5t101 -42t42 -102q0 -59 -42 -101t-101 -42t-101 42t-42 101zM820 1349q0 59 42 101.5t101 42.5t101 -42t42 -102q0 -59 -42 -101t-101 -42t-101 42t-42 101z" />
<glyph unicode="&#xf7;" d="M18 659v154h990v-154h-990zM395 383q0 47 35 82t82 35t82 -35t35 -82t-35 -82t-82 -35t-82 35t-35 82zM395 1087q0 47 35 82t84 35q47 0 82 -35t35 -82t-35 -81.5t-82 -34.5q-49 0 -84 34.5t-35 81.5z" />
<glyph unicode="&#xf8;" horiz-adv-x="1456" d="M72 559q0 272 189.5 428t467.5 156q94 0 168 -13.5t152 -50.5q0 10 14 30.5t14 33.5q0 23 -18.5 39t-40.5 22v27h352v-27q-47 -6 -80 -35.5t-127 -156.5q109 -76 165 -196t56 -257q0 -270 -190 -427t-465 -157q-84 0 -165 14.5t-154 47.5q-16 -23 -26.5 -38t-10.5 -32 q0 -23 16.5 -35t42.5 -18v-27h-354v27q51 8 81.5 34.5t133.5 157.5q-221 168 -221 453zM348 559q0 -74 23.5 -139.5t72.5 -116.5l459 592q-80 37 -174 37q-164 0 -272.5 -104.5t-108.5 -268.5zM555 223q43 -16 86 -26.5t88 -10.5q162 0 271.5 105.5t109.5 267.5 q0 154 -98 258z" />
<glyph unicode="&#xf9;" horiz-adv-x="1402" d="M70 1092v26h397v-26q-63 -20 -64 -76v-539q0 -162 71 -226.5t239 -64.5q166 0 237.5 65.5t71.5 225.5v539q0 31 -15.5 48t-48.5 28l-2 26h375v-26q-33 -10 -49 -26.5t-16 -49.5v-592q0 -258 -143.5 -353.5t-422.5 -95.5q-276 0 -421.5 94.5t-145.5 354.5v592q0 55 -63 76 zM586 1501v27h293v-27q-27 -4 -27 -22q0 -20 19.5 -74.5t34 -95.5t48.5 -41v-27h-200v27q25 0 24 16q-4 14 -6 17l-135 172q-18 23 -51 28z" />
<glyph unicode="&#xfa;" horiz-adv-x="1402" d="M70 1092v26h397v-26q-63 -20 -64 -76v-539q0 -162 71 -226.5t239 -64.5q166 0 237.5 65.5t71.5 225.5v539q0 31 -15.5 48t-48.5 28l-2 26h375v-26q-33 -10 -49 -26.5t-16 -49.5v-592q0 -258 -143.5 -353.5t-422.5 -95.5q-276 0 -421.5 94.5t-145.5 354.5v592q0 55 -63 76 zM586 1241v27q35 0 54 61.5t48 149.5q0 18 -29 22v27h295v-27q-18 -4 -29.5 -9t-21.5 -19l-135 -172q-2 -2 -4 -6.5t-2 -6.5q0 -20 24 -20v-27h-200z" />
<glyph unicode="&#xfb;" horiz-adv-x="1402" d="M70 1092v26h397v-26q-63 -20 -64 -76v-539q0 -162 71 -226.5t239 -64.5q166 0 237.5 65.5t71.5 225.5v539q0 31 -15.5 48t-48.5 28l-2 26h375v-26q-33 -10 -49 -26.5t-16 -49.5v-592q0 -258 -143.5 -353.5t-422.5 -95.5q-276 0 -421.5 94.5t-145.5 354.5v592q0 55 -63 76 zM443 1241v27q37 4 51 20l145 170q10 12 11 33q-6 10 -33 10v27h254v-27q-29 -6 -29 -18q0 -8 6 -17.5t8 -11.5l154 -166q18 -18 47 -20v-27h-260v27q31 6 31 14q0 10 -26.5 39t-84.5 90l-90 -108l-10 -19q0 -10 31 -16v-27h-205z" />
<glyph unicode="&#xfc;" horiz-adv-x="1406" d="M70 1092v26h397v-26q-63 -20 -64 -76v-539q0 -162 71 -226.5t239 -64.5q166 0 237.5 65.5t71.5 225.5v539q0 31 -15.5 48t-48.5 28l-2 26h375v-26q-33 -10 -49 -26.5t-16 -49.5v-592q0 -258 -143.5 -353.5t-422.5 -95.5q-276 0 -421.5 94.5t-145.5 354.5v592q0 55 -63 76 zM398 1349q0 59 42 101.5t101 42.5t101 -42t42 -102q0 -59 -42 -101t-101 -42t-101 42t-42 101zM822 1349q0 59 42 101.5t101 42.5t101 -42t42 -102q0 -59 -42 -101t-101 -42t-101 42t-42 101z" />
<glyph unicode="&#xfd;" horiz-adv-x="1411" d="M70 1092v26h503v-26q-33 -8 -48 -19.5t-15 -36.5q0 -27 9 -42t38 -52l162 -225l158 225q18 25 32.5 47.5t14.5 40.5q0 25 -18.5 39t-45.5 23v26h479v-26q-53 -10 -87.5 -44t-80.5 -100l-333 -456v-390q0 -55 65 -75v-27h-397v27q33 10 49 26.5t16 48.5v390l-331 456 q-47 63 -82 98t-88 46zM611 1194v27q35 0 54 61.5t48 149.5q0 18 -29 22v27h295v-27q-18 -4 -29.5 -9t-21.5 -19l-135 -172q-2 -2 -4 -6.5t-2 -6.5q0 -20 24 -20v-27h-200z" />
<glyph unicode="&#xfe;" horiz-adv-x="1335" d="M72 0v27q63 16 63 75v916q0 57 -63 74v26h395v-26q-63 -14 -64 -66v-41h398q207 0 336 -69.5t129 -260.5q0 -182 -133.5 -255.5t-331.5 -73.5h-398v-224q0 -31 15.5 -48t48.5 -27v-27h-395zM403 530h383q94 0 148.5 21.5t54.5 103.5t-55 104.5t-148 22.5h-383v-252z" />
<glyph unicode="&#xff;" horiz-adv-x="1411" d="M70 1092v26h503v-26q-33 -8 -48 -19.5t-15 -36.5q0 -27 9 -42t38 -52l162 -225l158 225q18 25 32.5 47.5t14.5 40.5q0 25 -18.5 39t-45.5 23v26h479v-26q-53 -10 -87.5 -44t-80.5 -100l-333 -456v-390q0 -55 65 -75v-27h-397v27q33 10 49 26.5t16 48.5v390l-331 456 q-47 63 -82 98t-88 46zM379 1337q0 59 42 101.5t101 42.5t101 -42t42 -102q0 -59 -42 -101t-101 -42t-101 42t-42 101zM803 1337q0 59 42 101.5t101 42.5t101 -42t42 -102q0 -59 -42 -101t-101 -42t-101 42t-42 101z" />
<glyph unicode="&#x152;" horiz-adv-x="2418" d="M82 684q0 322 228.5 506t555.5 184l191 -8h1151q33 0 49 15.5t24 48.5h31v-353h-31q-10 31 -26.5 47.5t-46.5 16.5h-854v-324h555q31 0 47 15.5t24 48.5h33v-344h-33q-8 31 -24.5 47t-46.5 16h-555v-375h878q31 0 48.5 17.5t23.5 48.5h33v-354h-33q-8 31 -24.5 47 t-47.5 16h-1175l-191 -8q-328 0 -556 185t-228 507zM387 684q0 -213 132 -341t347 -128q84 0 191 10v916q-41 6 -87.5 8t-103.5 2q-215 0 -347 -126t-132 -341z" />
<glyph unicode="&#x153;" horiz-adv-x="2035" d="M72 561q0 264 193.5 415.5t463.5 151.5l154 -8h952q55 0 76 64h26v-332h-26q-20 63 -76 63h-682v-243h422q31 0 48 16.5t26 46.5h26v-323h-26q-16 66 -74 65h-422v-272h711q57 0 73 63h27v-331h-27q-16 63 -73 63h-981l-154 -8q-274 0 -465.5 150.5t-191.5 418.5z M348 561q0 -166 107.5 -267t273.5 -101q78 0 156 12v710q-39 8 -74 10.5t-82 2.5q-166 0 -273.5 -101.5t-107.5 -265.5z" />
<glyph unicode="&#x178;" horiz-adv-x="1679" d="M82 1333v33h541v-33q-27 -4 -45.5 -16t-22.5 -37q0 -23 12 -45q20 -29 29 -43l246 -367l252 367q27 35 34 48t7 32q0 25 -18.5 41t-47.5 20v33h528v-33q-53 -6 -86.5 -39.5t-80.5 -101.5l-443 -621v-467q0 -29 17.5 -46t50.5 -25v-33h-430v33q66 16 65 71v467l-440 621 q-55 76 -84 105.5t-84 35.5zM516 1589q0 59 42 101.5t101 42.5t101 -42t42 -102q0 -59 -42 -101t-101 -42t-101 42t-42 101zM940 1589q0 59 42 101.5t101 42.5t101 -42t42 -102q0 -59 -42 -101t-101 -42t-101 42t-42 101z" />
<glyph unicode="&#x2c6;" d="M205 1243v27q37 4 51 20l145 170q10 12 11 33q-6 10 -33 10v27h254v-27q-29 -6 -29 -18q0 -8 6 -17.5t8 -11.5l154 -166q18 -18 47 -20v-27h-260v27q31 6 31 14q0 10 -26.5 39t-84.5 90l-90 -108l-10 -19q0 -10 31 -16v-27h-205z" />
<glyph unicode="&#x2dc;" d="M100 1325l15 18l18 -2q63 53 113.5 93.5t103.5 40.5q66 0 182.5 -50.5t176.5 -50.5q18 0 38.5 15.5t20.5 33.5t-23 33l17 25l160 -95l-15 -24q-10 4 -14 5t-6 1q-10 0 -41 -36t-75 -67.5t-97 -31.5q-57 0 -184.5 50t-167.5 50q-20 0 -40 -13t-24 -34q0 -18 18 -33 l-12 -22z" />
<glyph unicode="&#x2000;" horiz-adv-x="914" />
<glyph unicode="&#x2001;" horiz-adv-x="1829" />
<glyph unicode="&#x2002;" horiz-adv-x="914" />
<glyph unicode="&#x2003;" horiz-adv-x="1829" />
<glyph unicode="&#x2004;" horiz-adv-x="609" />
<glyph unicode="&#x2005;" horiz-adv-x="457" />
<glyph unicode="&#x2006;" horiz-adv-x="304" />
<glyph unicode="&#x2007;" horiz-adv-x="304" />
<glyph unicode="&#x2008;" horiz-adv-x="228" />
<glyph unicode="&#x2009;" horiz-adv-x="365" />
<glyph unicode="&#x200a;" horiz-adv-x="101" />
<glyph unicode="&#x2010;" horiz-adv-x="1361" d="M377 416v340h33q8 -31 24.5 -47.5t46.5 -16.5h398q27 0 43 10.5t28 53.5h33v-340h-33q-8 31 -24.5 47t-46.5 16h-398q-27 0 -43 -10t-28 -53h-33z" />
<glyph unicode="&#x2011;" horiz-adv-x="1361" d="M377 416v340h33q8 -31 24.5 -47.5t46.5 -16.5h398q27 0 43 10.5t28 53.5h33v-340h-33q-8 31 -24.5 47t-46.5 16h-398q-27 0 -43 -10t-28 -53h-33z" />
<glyph unicode="&#x2012;" horiz-adv-x="1361" d="M377 416v340h33q8 -31 24.5 -47.5t46.5 -16.5h398q27 0 43 10.5t28 53.5h33v-340h-33q-8 31 -24.5 47t-46.5 16h-398q-27 0 -43 -10t-28 -53h-33z" />
<glyph unicode="&#x2013;" horiz-adv-x="1361" d="M90 416v340h33q8 -31 24.5 -47.5t47.5 -16.5h974q27 0 43.5 10.5t28.5 53.5h33v-340h-33q-8 31 -24.5 47t-47.5 16h-974q-27 0 -43.5 -10t-28.5 -53h-33z" />
<glyph unicode="&#x2014;" horiz-adv-x="1361" d="M35 416v340h33q8 -31 24.5 -47.5t46.5 -16.5h1086q27 0 43 10.5t28 53.5h33v-340h-33q-8 31 -24.5 47t-46.5 16h-1086q-27 0 -43 -10t-28 -53h-33z" />
<glyph unicode="&#x2018;" horiz-adv-x="509" d="M88 1016q0 115 66.5 203t179.5 163l47 -65q-74 -47 -114 -99.5t-54 -134.5q20 4 35.5 7.5t25.5 3.5q76 0 122 -44t46 -120q0 -72 -48 -114t-122 -42q-88 0 -136 74t-48 168z" />
<glyph unicode="&#x2019;" horiz-adv-x="509" d="M88 1225q0 74 48 115.5t122 41.5q88 0 136 -75.5t48 -167.5q0 -113 -67.5 -203t-177.5 -162l-50 64q76 51 116 102t54 133q-20 -4 -35.5 -7t-27.5 -3q-74 0 -120 44t-46 118z" />
<glyph unicode="&#x201a;" horiz-adv-x="509" d="M88 156q0 74 48 115.5t122 41.5q88 0 136 -75.5t48 -167.5q0 -113 -67.5 -203t-177.5 -162l-50 64q76 51 116 102t54 133q-20 -4 -35.5 -7t-27.5 -3q-74 0 -120 44t-46 118z" />
<glyph unicode="&#x201c;" horiz-adv-x="925" d="M90 1016q0 115 66.5 203t179.5 163l47 -65q-74 -47 -114 -99.5t-54 -134.5q20 4 35.5 7.5t25.5 3.5q76 0 122 -44t46 -120q0 -72 -48 -114t-122 -42q-88 0 -136 74t-48 168zM512 1016q0 115 66.5 203t179.5 163l47 -65q-72 -47 -113 -100.5t-55 -133.5q20 4 35.5 7.5 t25.5 3.5q74 0 120 -44t46 -120q0 -74 -47 -115t-121 -41q-88 0 -136 74t-48 168z" />
<glyph unicode="&#x201d;" horiz-adv-x="925" d="M90 1225q0 74 48 115.5t122 41.5q88 0 136 -75.5t48 -167.5q0 -113 -67.5 -203t-177.5 -162l-49 64q76 51 115.5 102t53.5 133q-20 -4 -35.5 -7t-27.5 -3q-74 0 -120 44t-46 118zM512 1225q0 74 48 115.5t122 41.5q90 0 136 -74.5t46 -168.5q0 -113 -65.5 -200 t-177.5 -165l-50 64q76 51 116 102t54 133q-16 -4 -33.5 -7t-29.5 -3q-74 0 -120 44t-46 118z" />
<glyph unicode="&#x201e;" horiz-adv-x="925" d="M90 156q0 74 48 115.5t122 41.5q88 0 136 -75.5t48 -167.5q0 -113 -67.5 -203t-177.5 -162l-49 64q76 51 115.5 102t53.5 133q-20 -4 -35.5 -7t-27.5 -3q-74 0 -120 44t-46 118zM512 156q0 74 48 115.5t122 41.5q90 0 136 -74.5t46 -168.5q0 -113 -65.5 -200t-177.5 -165 l-50 64q76 51 116 102t54 133q-16 -4 -33.5 -7t-29.5 -3q-74 0 -120 44t-46 118z" />
<glyph unicode="&#x2022;" horiz-adv-x="1228" d="M406 586q0 82 57 139t139 57t141.5 -57t59.5 -139t-57.5 -139.5t-143.5 -57.5q-82 0 -139 57.5t-57 139.5z" />
<glyph unicode="&#x2026;" horiz-adv-x="1372" d="M68 143q0 66 46 114t113 48q68 0 115 -47t47 -115q0 -66 -47 -112.5t-115 -46.5q-66 0 -112.5 47t-46.5 112zM524 143q0 68 47 115t115 47q66 0 113 -47t47 -115q0 -66 -47 -112.5t-113 -46.5t-114 46t-48 113zM983 143q0 66 46 114t114 48t115 -47t47 -115 q0 -66 -47 -112.5t-115 -46.5q-66 0 -113 47t-47 112z" />
<glyph unicode="&#x202f;" horiz-adv-x="365" />
<glyph unicode="&#x2039;" horiz-adv-x="368" d="M2 582l195 401h172l-197 -401l197 -404h-172z" />
<glyph unicode="&#x203a;" horiz-adv-x="368" d="M2 178l197 404l-197 401h172l195 -401l-195 -404h-172z" />
<glyph unicode="&#x205f;" horiz-adv-x="457" />
<glyph unicode="&#x2122;" horiz-adv-x="2199" d="M63 1182v223h35q10 -39 39 -39h709q18 0 25.5 9t13.5 30h35v-223h-35q-12 39 -39 39h-254v-607q0 -20 13 -27t26 -9v-31h-279v31q39 12 39 36v607h-254q-12 0 -22.5 -7.5t-16.5 -31.5h-35zM1047 547v31q39 8 38 36v684q0 16 -9 23.5t-29 13.5v31h342v-31q-29 -4 -29 -22 q0 -20 6 -29l225 -393l226 387q12 20 14 33q0 23 -31 22v33h336v-31q-39 -8 -39 -37v-684q0 -20 13.5 -27t25.5 -9v-31h-281v31q41 8 41 36v467l-321 -532l-303 530v-465q0 -31 39 -36v-31h-264z" />
<glyph unicode="&#xe000;" horiz-adv-x="1116" d="M0 0v1116h1116v-1116h-1116z" />
<glyph unicode="&#xfb01;" horiz-adv-x="1785" d="M70 0v27q63 16 63 75v916q0 57 -63 74v26h1003q55 0 76 66h27v-332h-27q-10 33 -27.5 48t-48.5 15h-672v-243h422q55 0 76 63h27v-323h-29q-8 29 -25.5 46t-48.5 17h-422v-373q0 -31 15.5 -48t48.5 -27v-27h-395zM1317 0v27q66 16 65 75v916q0 57 -65 74v26h397v-26 q-66 -16 -65 -74v-916q0 -55 65 -75v-27h-397z" />
<glyph unicode="&#xfb02;" horiz-adv-x="2451" d="M72 0v29q63 16 63 73v916q0 57 -63 74v28h1003q55 0 76 64h27v-332h-27q-20 63 -76 63h-672v-243h422q33 0 49.5 15t26.5 48h27v-323h-29q-16 66 -74 65h-422v-375q0 -31 15.5 -48t48.5 -25v-29h-395zM1319 0v29q66 16 65 73v916q0 57 -65 74v28h397v-28q-66 -16 -65 -74 v-813h628q57 0 74 63h29v-331h-29q-16 63 -74 63h-960z" />
</font>
</defs>
</svg>
